<svg width="156" height="156" viewBox="0 0 156 156" fill="none" xmlns="http://www.w3.org/2000/svg">
<circle opacity="0.6" cx="78" cy="78" r="78" fill="white"/>
<path d="M38.1117 62.996C36.5277 62.534 34.9437 62.314 33.3597 62.314C30.9177 62.314 28.9597 62.996 27.4417 64.36C25.9457 65.724 25.1977 67.682 25.1977 70.234C25.1757 72.852 25.9237 74.832 27.4197 76.196C28.9157 77.538 30.8957 78.22 33.3377 78.22C34.7677 78.22 36.3517 78.044 38.1117 77.692V73.116L34.8117 76.944C34.3277 77.076 33.8657 77.142 33.4477 77.142C30.7197 77.142 29.2237 74.744 29.2017 70.168C29.1797 65.834 30.7197 63.392 33.3597 63.392C33.8657 63.392 34.3497 63.48 34.8117 63.634L38.1117 67.506V62.996ZM47.6013 62.248C45.2033 62.248 43.2453 62.952 41.7713 64.36C40.2973 65.768 39.5713 67.726 39.5713 70.256C39.5713 72.786 40.2973 74.744 41.7713 76.174C43.2453 77.604 45.2033 78.308 47.6013 78.308C49.9993 78.308 51.9133 77.604 53.3873 76.196C54.8613 74.766 55.5873 72.786 55.5873 70.256C55.5873 67.726 54.8613 65.768 53.3873 64.36C51.9133 62.952 49.9993 62.248 47.6013 62.248ZM43.5753 70.278C43.5753 65.944 45.0493 63.414 47.5793 63.414C49.9773 63.414 51.5613 65.834 51.5613 70.234C51.5613 74.612 50.1093 77.142 47.5793 77.142C45.1373 77.142 43.5753 74.678 43.5753 70.278ZM61.2085 78L59.6685 75.8V66.758L67.8965 78H70.7345V64.668L72.2525 62.6H68.1605L69.6345 64.668V74.282L61.1425 62.6H56.5005L58.5685 65.372V75.8L57.0945 78H61.2085ZM87.7061 62.6H73.2961V67.638L76.6401 63.7H78.6861V75.8L77.2121 78H84.0101L82.3381 75.8V63.7H84.3621L87.6841 67.638L87.7061 62.6ZM100.728 78L99.3204 75.646L95.0524 62.6H90.3664L91.3344 64.316L87.5724 74.238L86.8244 75.602L85.1304 78H90.1904L88.4964 74.942L89.4424 72.434H94.4804L95.5584 75.8L94.5684 78H100.728ZM94.1284 71.334H89.8604L92.0824 65.394H92.1264L94.1284 71.334ZM113.264 62.996C111.68 62.534 110.096 62.314 108.512 62.314C106.07 62.314 104.112 62.996 102.594 64.36C101.098 65.724 100.35 67.682 100.35 70.234C100.328 72.852 101.076 74.832 102.572 76.196C104.068 77.538 106.048 78.22 108.49 78.22C109.92 78.22 111.504 78.044 113.264 77.692V73.116L109.964 76.944C109.48 77.076 109.018 77.142 108.6 77.142C105.872 77.142 104.376 74.744 104.354 70.168C104.332 65.834 105.872 63.392 108.512 63.392C109.018 63.392 109.502 63.48 109.964 63.634L113.264 67.506V62.996ZM129.106 62.6H114.696V67.638L118.04 63.7H120.086V75.8L118.612 78H125.41L123.738 75.8V63.7H125.762L129.084 67.638L129.106 62.6ZM74.1229 89.6L75.5969 91.712V98.004C75.5749 102.162 74.4309 104.12 71.3729 104.098C70.0309 104.076 69.0629 103.636 68.4909 102.756C67.9409 101.854 67.6549 100.336 67.6549 98.18V91.712L69.3269 89.6H62.3749L64.0029 91.712V97.806C64.0029 100.446 64.5089 102.36 65.4989 103.526C66.5109 104.692 68.2049 105.286 70.5809 105.308C72.9789 105.308 74.5629 104.736 75.4649 103.504C76.3669 102.25 76.6969 100.688 76.6969 98.312V91.712L78.2149 89.6H74.1229ZM91.529 100.622C91.529 99.28 90.979 98.202 89.901 97.432C89.373 97.036 88.889 96.728 88.449 96.508C88.009 96.288 87.437 96.046 86.755 95.782L85.391 95.254C83.631 94.55 82.597 93.846 82.597 92.614C82.597 91.888 82.905 91.36 83.543 91.008C84.181 90.656 84.907 90.458 85.765 90.414C85.853 90.392 85.985 90.392 86.139 90.392H86.447C86.667 90.414 86.887 90.458 87.085 90.524H87.107L90.649 94.836H90.693V90.04C89.483 89.556 87.899 89.314 85.963 89.314C83.873 89.314 82.179 89.688 80.881 90.436C79.605 91.184 78.967 92.262 78.967 93.692C78.967 94.924 79.451 95.914 80.485 96.684C80.991 97.058 81.475 97.366 81.893 97.608C82.311 97.828 82.883 98.092 83.587 98.378C83.807 98.444 84.027 98.532 84.225 98.642C85.281 99.06 85.831 99.302 86.623 99.83C87.437 100.336 87.855 101.018 87.855 101.81C87.855 103.592 85.809 104.01 84.379 104.01C83.785 104.01 83.301 103.966 82.905 103.878L79.407 99.72H79.341V104.362C80.793 104.89 82.421 105.176 84.247 105.242C85.897 105.242 87.437 104.978 88.955 104.362C90.517 103.724 91.529 102.382 91.529 100.622Z" fill="black"/>
</svg>
