<svg width="156" height="156" viewBox="0 0 156 156" fill="none" xmlns="http://www.w3.org/2000/svg">
<circle opacity="0.6" cx="78" cy="78" r="78" fill="white"/>
<path d="M59.9457 57.996C58.3617 57.534 56.7777 57.314 55.1937 57.314C52.7517 57.314 50.7937 57.996 49.2757 59.36C47.7797 60.724 47.0317 62.682 47.0317 65.234C47.0097 67.852 47.7577 69.832 49.2537 71.196C50.7497 72.538 52.7297 73.22 55.1717 73.22C56.6017 73.22 58.1857 73.044 59.9457 72.692V68.116L56.6457 71.944C56.1617 72.076 55.6997 72.142 55.2817 72.142C52.5537 72.142 51.0577 69.744 51.0357 65.168C51.0137 60.834 52.5537 58.392 55.1937 58.392C55.6997 58.392 56.1837 58.48 56.6457 58.634L59.9457 62.506V57.996ZM69.4353 57.248C67.0373 57.248 65.0793 57.952 63.6053 59.36C62.1313 60.768 61.4053 62.726 61.4053 65.256C61.4053 67.786 62.1313 69.744 63.6053 71.174C65.0793 72.604 67.0373 73.308 69.4353 73.308C71.8333 73.308 73.7473 72.604 75.2213 71.196C76.6953 69.766 77.4213 67.786 77.4213 65.256C77.4213 62.726 76.6953 60.768 75.2213 59.36C73.7473 57.952 71.8333 57.248 69.4353 57.248ZM65.4093 65.278C65.4093 60.944 66.8833 58.414 69.4133 58.414C71.8113 58.414 73.3953 60.834 73.3953 65.234C73.3953 69.612 71.9433 72.142 69.4133 72.142C66.9713 72.142 65.4093 69.678 65.4093 65.278ZM89.6256 66.62L86.9856 66.07C90.2416 65.828 92.1776 64.288 92.1776 61.758C92.1556 59.096 89.9556 57.6 85.8196 57.6H78.1636L79.8356 59.712V70.8L78.3396 73H85.1816L83.5096 70.8V66.092H85.3576L89.0976 73H94.0036L92.1336 70.954L89.6256 66.62ZM85.0276 58.7C87.3156 58.7 88.4596 59.712 88.4596 61.758C88.4376 63.892 87.1176 64.992 85.0276 64.992H83.5096V58.7H85.0276ZM104.859 68.116V62.44L102.637 64.728H100.437V58.7H104.199L107.521 62.638L107.543 57.6H95.1132L96.7852 59.712V70.8L95.2892 73H107.763V67.984L104.419 71.9H100.437V65.828H102.637L104.859 68.116ZM48.9121 86.844L50.5621 84.6H45.5901L47.2401 87.57L43.6101 97.338L43.1481 96.216L39.9581 86.712L40.9921 84.6H34.8541L36.1521 86.756L36.4381 87.548L40.6181 100H43.7861L48.0981 88.428L48.9121 86.844ZM62.2235 100L60.8155 97.646L56.5475 84.6H51.8615L52.8295 86.316L49.0675 96.238L48.3195 97.602L46.6255 100H51.6855L49.9915 96.942L50.9375 94.434H55.9755L57.0535 97.8L56.0635 100H62.2235ZM55.6235 93.334H51.3555L53.5775 87.394H53.6215L55.6235 93.334ZM70.1947 84.6H63.1767L64.8267 86.712L64.8487 97.8L63.3747 100H75.4967V94.984L72.1527 98.9H68.4787V86.712L70.1947 84.6ZM87.5995 84.6L89.0735 86.712V93.004C89.0515 97.162 87.9075 99.12 84.8495 99.098C83.5075 99.076 82.5395 98.636 81.9675 97.756C81.4175 96.854 81.1315 95.336 81.1315 93.18V86.712L82.8035 84.6H75.8515L77.4795 86.712V92.806C77.4795 95.446 77.9855 97.36 78.9755 98.526C79.9875 99.692 81.6815 100.286 84.0575 100.308C86.4555 100.308 88.0395 99.736 88.9415 98.504C89.8435 97.25 90.1735 95.688 90.1735 93.312V86.712L91.6915 84.6H87.5995ZM102.421 95.116V89.44L100.199 91.728H97.9988V85.7H101.761L105.083 89.638L105.105 84.6H92.6748L94.3468 86.712V97.8L92.8508 100H105.325V94.984L101.981 98.9H97.9988V92.828H100.199L102.421 95.116ZM119.83 95.622C119.83 94.28 119.28 93.202 118.202 92.432C117.674 92.036 117.19 91.728 116.75 91.508C116.31 91.288 115.738 91.046 115.056 90.782L113.692 90.254C111.932 89.55 110.898 88.846 110.898 87.614C110.898 86.888 111.206 86.36 111.844 86.008C112.482 85.656 113.208 85.458 114.066 85.414C114.154 85.392 114.286 85.392 114.44 85.392H114.748C114.968 85.414 115.188 85.458 115.386 85.524H115.408L118.95 89.836H118.994V85.04C117.784 84.556 116.2 84.314 114.264 84.314C112.174 84.314 110.48 84.688 109.182 85.436C107.906 86.184 107.268 87.262 107.268 88.692C107.268 89.924 107.752 90.914 108.786 91.684C109.292 92.058 109.776 92.366 110.194 92.608C110.612 92.828 111.184 93.092 111.888 93.378C112.108 93.444 112.328 93.532 112.526 93.642C113.582 94.06 114.132 94.302 114.924 94.83C115.738 95.336 116.156 96.018 116.156 96.81C116.156 98.592 114.11 99.01 112.68 99.01C112.086 99.01 111.602 98.966 111.206 98.878L107.708 94.72H107.642V99.362C109.094 99.89 110.722 100.176 112.548 100.242C114.198 100.242 115.738 99.978 117.256 99.362C118.818 98.724 119.83 97.382 119.83 95.622Z" fill="black"/>
</svg>
