<?xml version="1.0" standalone="no"?>
<!DOCTYPE svg PUBLIC "-//W3C//DTD SVG 1.1//EN" "http://www.w3.org/Graphics/SVG/1.1/DTD/svg11.dtd" >
<svg xmlns="http://www.w3.org/2000/svg" xmlns:xlink="http://www.w3.org/1999/xlink" version="1.1">
<metadata>
Created by FontForge 20170731 at Thu Dec  9 15:30:48 2021
 By Aleksey,,,
Copyright (c) 2018 by TDC. All rights reserved. |DCNT
</metadata>
<defs>
<font id="USBlaak-SemiBold" horiz-adv-x="1261" >
  <font-face 
    font-family="US Blaak SemiBold"
    font-weight="600"
    font-stretch="normal"
    units-per-em="2048"
    panose-1="0 0 0 0 0 0 0 0 0 0"
    ascent="1505"
    descent="-543"
    x-height="1057"
    cap-height="1434"
    bbox="-12 -582 2816 1976"
    underline-thickness="102"
    underline-position="-358"
    unicode-range="U+000D-FB05"
  />
<missing-glyph horiz-adv-x="1024" 
 />
    <glyph glyph-name="f_f" unicode="ff" horiz-adv-x="1669" 
d="M449 954v-796l147 -158h-518l110 158v796h-102v103h102v84q0 218 93.5 320t287.5 102q121 0 269 -37v-336l-246 262h-19q-124 0 -124 -182v-213h518v84q0 218 91 320.5t285 101.5q119 0 273 -37v-336l-248 262h-18q-123 0 -123 -182v-213h237v-103h-237v-796l121 -158
h-504l123 158v796h-518z" />
    <glyph glyph-name="f_i" unicode="fi" horiz-adv-x="1433" 
d="M858 0l135 158v708l-63 88h-486v-796l144 -158h-514l108 158v796h-102l2 103h100v84q0 218 94 320t287 102q120 0 271 -37v-336l-248 262h-19q-123 0 -123 -217v-178h809l-2 -899l129 -158h-522zM1100 1591l188 -172l-176 -200l-184 163z" />
    <glyph glyph-name="f_l" unicode="fl" horiz-adv-x="1423" 
d="M860 0l123 158l-2 1073l-393 221h-21q-71 0 -97 -44.5t-26 -137.5v-213h332l-2 -103h-330v-796l146 -158h-516l108 158v796h-100v103h100v84q0 216 92.5 319.5t286.5 102.5q119 0 273 -37l75 -99l334 109v-1378l115 -158h-498z" />
    <glyph glyph-name="f_f_i" unicode="ffi" horiz-adv-x="2213" 
d="M1204 1270v-213h811v-899l127 -158h-514l125 158v708l-61 88h-488v-796l148 -158h-516l108 158v796h-489v-796l143 -158h-516l111 158v796h-103v103h103v84q0 218 93 320t287 102q121 0 269 -37v-336l-246 262h-23q-67 0 -93.5 -43t-26.5 -137v-215h491v84
q0 218 93.5 320t287.5 102q120 0 268 -37v-336l-245 262h-19q-67 0 -96 -44.5t-29 -137.5zM1690 1382l172 209l188 -172l-176 -200z" />
    <glyph glyph-name="f_f_l" unicode="ffl" horiz-adv-x="2236" 
d="M1243 1235v-178h332v-103h-332v-796l146 -158h-517l111 158v796h-526v-796l143 -158h-516l111 158v796h-103v103h103v84q0 216 92 319.5t286 102.5q120 0 271 -37v-336l-246 262q-41 0 -57 -8q-84 -18 -84 -209v-178h526v84q0 217 92 320t287 102q116 0 270 -37l76 -99
l334 109v-1378l115 -158h-498l123 158v1073l-400 221q-98 0 -122 -72q-17 -60 -17 -145z" />
    <glyph glyph-name="f_t" unicode="ft" horiz-adv-x="1527" 
d="M940 248v706h-494v-796l146 -158h-516l110 158v796h-100v103h100v84q0 218 93.5 320t285.5 102q123 0 271 -37v-336l-248 262h-19q-123 0 -123 -182v-213h476l272 305v-305h219v-103h-213v-675q0 -166 105 -166q74 0 149 57l35 -43q-125 -152 -299 -152q-114 0 -182 72
t-68 201z" />
    <glyph glyph-name=".notdef" horiz-adv-x="1024" 
 />
    <glyph glyph-name=".null" horiz-adv-x="0" 
 />
    <glyph glyph-name="nonmarkingreturn" horiz-adv-x="682" 
 />
    <glyph glyph-name="NULL" horiz-adv-x="0" 
 />
    <glyph glyph-name="NULL" horiz-adv-x="0" 
 />
    <glyph glyph-name="CR.001" unicode="&#xd;" horiz-adv-x="512" 
 />
    <glyph glyph-name="space" unicode=" " horiz-adv-x="358" 
 />
    <glyph glyph-name="exclam" unicode="!" horiz-adv-x="487" 
d="M135 10q-43 40 -43 107q0 64 43 104q44 41 114 41t113 -41q46 -40 46 -104q0 -67 -46 -107q-43 -41 -113 -41t-114 41zM59 1434h383l-182 -1020h-20z" />
    <glyph glyph-name="quotedbl" unicode="&#x22;" horiz-adv-x="786" 
d="M238 1495q68 0 104.5 -42.5t32.5 -115.5q-3 -40 -27 -94q-13 -30 -55 -102.5t-55 -102.5q-19 42 -58 103q-42 65 -61.5 107.5t-20.5 86.5q-4 72 35 116t105 44zM557 1495q68 0 104.5 -42.5t32.5 -115.5q-3 -43 -26 -94q-13 -30 -55 -103t-56 -102q-22 48 -57 103
q-42 65 -61.5 107.5t-20.5 86.5q-4 72 34.5 116t104.5 44z" />
    <glyph glyph-name="numbersign" unicode="#" horiz-adv-x="1406" 
d="M723 0l94 444h-338l-94 -444h-102l94 444h-322l21 105h323l72 336h-324l23 104h322l96 445h102l-94 -445h336l96 445h102l-94 -445h322l-23 -104h-321l-72 -336h322l-21 -105h-323l-95 -444h-102zM502 549h338l71 336h-338z" />
    <glyph glyph-name="dollar" unicode="$" horiz-adv-x="1302" 
d="M1225 391q0 -177 -138 -283.5t-380 -125.5v-213h-103v208q-250 0 -489 103v409h2l291 -374q106 -25 196 -25v508q-5 1 -18 7t-15 7l-135 54q-47 20 -123 61q-82 50 -116 84q-42 47 -71.5 112t-29.5 134q0 170 135 272t373 123v186h103v-180h22q255 0 430 -69v-441h-2
l-297 395q-77 17 -153 17v-500q256 -89 387 -190t131 -279zM707 555v-453q227 40 227 215q0 83 -55 137t-172 101zM604 899v449q-215 -44 -215 -213q0 -83 53 -138t162 -98z" />
    <glyph glyph-name="percent" unicode="%" horiz-adv-x="1720" 
d="M451 1460q170 0 267 -95.5t97 -256.5q0 -163 -97.5 -261.5t-266.5 -98.5t-266 97.5t-97 262.5q0 161 97 256.5t266 95.5zM399 0h-127l1051 1434h127zM1636 338q0 -161 -97 -259.5t-263 -98.5q-168 0 -267.5 99t-99.5 261q0 160 98 256t267 96q168 0 265 -97t97 -257z
M1106 334q0 -142 44 -221.5t124 -79.5t124 80t44 227q0 143 -43.5 221t-122.5 78q-80 0 -125 -80t-45 -225zM283 1102q0 -303 168 -303q79 0 123 78t44 229q0 149 -43 226t-120 77q-172 0 -172 -307z" />
    <glyph glyph-name="ampersand" unicode="&#x26;" horiz-adv-x="1658" 
d="M754 743q119 -181 321 -354q0 1 7 9.5t8 11.5l147 227l-102 205h450l-229 -219l-33 -43l-158 -234l-16 -20q171 -127 262 -127h4q84 0 172 98h4q0 -133 -84 -223q-82 -88 -198 -97h-45q-135 9 -306 134q-158 -134 -393 -134q-5 0 -22 1.5t-21 1.5q-193 12 -313 126
q-117 117 -117 279q0 125 77.5 225t223.5 156q-88 169 -88 330q11 160 109.5 255t273.5 107h47q44 0 76 -4q152 -18 245 -101.5t93 -211.5q0 -263 -395 -398zM455 662q-99 -102 -99 -244q0 -130 79.5 -217.5t213.5 -91.5q6 -3 21 -3t24 3q104 6 183 67q-242 202 -422 486z
M682 823q107 60 167 143t66 171q0 196 -178 196q-80 0 -128 -41.5t-60 -115.5q-5 -27 -2 -72q12 -137 135 -281z" />
    <glyph glyph-name="quotesingle" unicode="'" horiz-adv-x="415" 
d="M213 1495q66 0 102.5 -42.5t32.5 -115.5q-3 -48 -24 -94q-13 -27 -55.5 -100.5t-55.5 -104.5q-22 48 -57 103q-42 65 -61.5 107.5t-20.5 86.5q-5 72 33.5 116t105.5 44z" />
    <glyph glyph-name="parenleft" unicode="(" horiz-adv-x="757" 
d="M725 -223q-284 40 -473 291q-184 251 -184 598t184 589q187 246 477 283q-202 -63 -317 -309q-111 -243 -111 -567q0 -321 111 -570q110 -247 313 -315z" />
    <glyph glyph-name="parenright" unicode=")" horiz-adv-x="757" 
d="M37 -223q203 68 313 315q113 247 113 570q0 324 -113 565q-115 248 -317 311q291 -37 475 -283q186 -241 186 -589t-186 -598t-471 -291z" />
    <glyph glyph-name="asterisk" unicode="*" horiz-adv-x="966" 
d="M610 1495l-102 -377l305 215l90 -225l-387 -35l324 -194l-193 -174l-160 354l-161 -354l-193 172l324 196l-387 35l108 225l287 -215l-103 377h248z" />
    <glyph glyph-name="plus" unicode="+" horiz-adv-x="1001" 
d="M977 600h-424v-422h-102v422h-422v102h422v424h102v-424h424v-102z" />
    <glyph glyph-name="comma" unicode="," horiz-adv-x="438" 
d="M209 -23q-60 0 -97.5 39t-37.5 101q0 67 43.5 107t113.5 40q72 0 115 -43.5t43 -118.5q0 -110 -90 -223q-87 -113 -203 -137q44 34 78 108q35 75 35 127z" />
    <glyph glyph-name="period" unicode="." horiz-adv-x="473" 
d="M248 264q72 0 113.5 -39.5t41.5 -105.5t-43 -107t-112 -41t-110.5 41t-41.5 107t41.5 105.5t110.5 39.5z" />
    <glyph glyph-name="slash" unicode="/" horiz-adv-x="997" 
d="M156 -225h-127l815 1761h129z" />
    <glyph glyph-name="zero" unicode="0" horiz-adv-x="1468" 
d="M1374 723q0 -360 -172 -553q-172 -190 -461 -190q-309 0 -475 185t-166 544q0 363 168.5 555t468.5 192q299 0 468 -190t169 -543zM741 82q161 0 247.5 160t86.5 475t-87 477t-247 162q-163 0 -252.5 -163t-89.5 -474q0 -313 88.5 -475t253.5 -162z" />
    <glyph glyph-name="one" unicode="1" horiz-adv-x="649" 
d="M84 1350l389 112v-1306l129 -156h-520l121 143l-2 1080z" />
    <glyph glyph-name="two" unicode="2" horiz-adv-x="1230" 
d="M903 233l219 252v-485h-1044v80q346 285 545 561q198 274 198 473q0 122 -79 185t-216 63q-67 0 -98 -8l-264 -326v377q225 57 409 57q285 0 414 -100q131 -101 131 -252q0 -115 -72.5 -251.5t-191.5 -258.5q-245 -248 -489 -367h538z" />
    <glyph glyph-name="three" unicode="3" horiz-adv-x="1214" 
d="M1096 1085q0 -321 -463 -358q486 -15 489 -352q1 -201 -166.5 -297t-480.5 -96q-213 0 -371 41v407l285 -354q2 0 37 -3t45 -3q154 0 248 80.5t94 228.5q0 155 -113.5 230t-357.5 81v74q236 14 354.5 91t118.5 228q-1 142 -96.5 211.5t-257.5 69.5q-59 0 -99 -6
l-258 -326v377h5q205 51 413 51q259 0 416 -92q158 -90 158 -283z" />
    <glyph glyph-name="four" unicode="4" horiz-adv-x="1181" 
d="M727 565l178 295v-409h53l158 272v-375h-211v-201l115 -147h-504l119 135v213h-600v60q286 228 405 475q119 244 119 555h299q0 -325 -166 -588q-167 -265 -487 -399h436z" />
    <glyph glyph-name="five" unicode="5" horiz-adv-x="1183" 
d="M1030 1473l29 -23q-35 -182 -151.5 -273.5t-299.5 -91.5q-162 0 -329 72l-41 -344q151 86 374 86q233 0 363.5 -110.5t130.5 -301.5q0 -230 -166 -368q-165 -137 -467 -137q-195 0 -375 57v387l269 -334q37 -6 77 -6q17 0 23 2q151 8 244.5 100.5t93.5 247.5
q0 324 -434 324q-118 -6 -246 -37l82 709q192 -82 403 -82q27 0 33 2q219 9 387 121z" />
    <glyph glyph-name="six" unicode="6" horiz-adv-x="1335" 
d="M399 754q63 79 168.5 124.5t223.5 45.5q193 0 323 -121q131 -119 131 -338q0 -222 -147 -354q-144 -132 -414 -129q-285 0 -436.5 183t-151.5 517q0 374 185 576t530 202q187 0 381 -51v-379l-283 336q-28 4 -49 4q-185 0 -317 -166q-129 -167 -144 -450zM397 662
q0 -265 52 -410q59 -166 225 -166q131 0 207.5 104.5t76.5 282.5q0 162 -66 243t-185 81q-85 0 -172.5 -38.5t-137.5 -96.5z" />
    <glyph glyph-name="seven" unicode="7" horiz-adv-x="1208" 
d="M281 1210l-193 -231v465h1081l-86 -258q-252 -202 -370 -471q-119 -268 -119 -715h-324q0 256 86 494q52 141 129 264q80 128 216 248t303 204h-723z" />
    <glyph glyph-name="eight" unicode="8" horiz-adv-x="1316" 
d="M139 1071q0 172 148 281q150 108 407 108q230 0 364 -90.5t134 -234.5q0 -110 -81.5 -202t-221.5 -134q343 -150 334 -398q-3 -183 -166 -303q-161 -118 -420 -118q-258 0 -399 108q-141 110 -138 279q2 119 76 216t207 146q-244 133 -244 342zM338 379
q0 -132 78.5 -212.5t216.5 -80.5q118 0 207 59q88 58 88 164q0 112 -105 185q-55 39 -100 61q-43 25 -123 61q-33 16 -115 58q-147 -111 -147 -295zM432 1163q6 -185 334 -305q86 49 138 130t52 163q0 98 -66.5 154.5t-189.5 56.5t-195.5 -55.5t-72.5 -143.5z" />
    <glyph glyph-name="nine" unicode="9" horiz-adv-x="1347" 
d="M948 688q-63 -79 -169 -124.5t-224 -45.5q-193 0 -326 121q-129 120 -129 340q0 227 148 355.5t416 127.5q287 0 439 -183.5t152 -518.5q0 -376 -185 -578t-533 -202q-177 0 -385 51v381l284 -336q32 -4 53 -4q187 0 316 166q128 168 143 450zM950 782q0 267 -51 410
q-59 166 -225 166q-133 0 -210 -103.5t-77 -283.5q0 -162 67.5 -244t186.5 -82q85 0 171.5 39.5t137.5 97.5z" />
    <glyph glyph-name="colon" unicode=":" horiz-adv-x="430" 
d="M66 145q0 67 42 107.5t111 40.5t111.5 -40.5t42.5 -107.5q0 -66 -42.5 -106.5t-111.5 -40.5t-111 40.5t-42 106.5zM66 862q0 67 42 107.5t111 40.5t111.5 -40.5t42.5 -107.5q0 -66 -42.5 -106.5t-111.5 -40.5t-111 40.5t-42 106.5z" />
    <glyph glyph-name="semicolon" unicode=";" horiz-adv-x="419" 
d="M197 2q-61 0 -99.5 38.5t-38.5 100.5q0 67 44 107.5t114 40.5q72 0 115 -43.5t43 -118.5q0 -110 -90 -223q-87 -113 -203 -137q44 35 78 108q37 73 37 127zM63 862q0 67 42.5 107.5t111.5 40.5t111.5 -40.5t42.5 -107.5q0 -66 -42.5 -106.5t-111.5 -40.5t-111.5 40.5
t-42.5 106.5z" />
    <glyph glyph-name="less" unicode="&#x3c;" horiz-adv-x="927" 
d="M27 659v5l798 387l35 -82l-629 -307l629 -308l-35 -82z" />
    <glyph glyph-name="equal" unicode="=" horiz-adv-x="862" 
d="M80 764v102h702v-102h-702zM80 436v103h702v-103h-702z" />
    <glyph glyph-name="greater" unicode="&#x3e;" horiz-adv-x="935" 
d="M709 662l-629 307l35 82l798 -387v-5l-798 -387l-35 82z" />
    <glyph glyph-name="question" unicode="?" horiz-adv-x="956" 
d="M459 262q72 0 115.5 -39.5t43.5 -105.5t-43.5 -107t-115.5 -41q-69 0 -113.5 41t-44.5 107q0 65 44 105t114 40zM477 449h-14q-62 29 -98 87.5t-35 125.5q1 66 40.5 129t96.5 110q57 48 96 119.5t39 153.5q0 95 -52 140.5t-142 45.5q-22 0 -89 -6l-268 -328v377
q219 57 404 57q245 0 349.5 -73t104.5 -226q0 -70 -18.5 -129t-55.5 -107t-71 -79.5t-86 -71.5q-7 -6 -21 -17q-41 -33 -61 -50.5t-50.5 -50t-43.5 -59t-21.5 -66t-3.5 -82.5z" />
    <glyph glyph-name="at" unicode="@" horiz-adv-x="2021" 
d="M1120 1462q359 0 592 -219q232 -218 232 -555q0 -281 -168 -479q-167 -197 -404 -197q-141 0 -223 67t-78 179q-37 -112 -127 -179t-201 -67q-124 0 -202 89.5t-78 232.5q0 297 166 514q168 219 389 219q140 0 215 -78l305 68l-188 -744q-9 -47 -9 -65q0 -119 121 -119
q107 0 197 96q88 94 135 226.5t47 265.5q0 266 -209 454q-210 189 -516 189q-143 4 -283 -44.5t-255 -138t-202.5 -207t-135 -260t-43.5 -288.5q0 -337 223 -541q226 -209 577 -209q249 0 486 146l53 -88q-245 -160 -551 -160q-395 0 -643 242q-248 239 -248 620
q0 427 299 729q298 301 727 301zM846 199q77 0 147 98q77 108 101 205l106 399q-40 27 -88 27q-86 0 -174 -97q-83 -91 -137 -231q-49 -131 -49 -250q0 -151 94 -151z" />
    <glyph glyph-name="A" unicode="A" horiz-adv-x="1511" 
d="M1470 0h-509l86 184l-107 334h-508l-104 -278l141 -240h-432l156 211l61 127l367 960l-82 136h399l408 -1225zM907 621l-207 596h-4l-225 -596h436z" />
    <glyph glyph-name="B" unicode="B" horiz-adv-x="1404" 
d="M1331 426q0 -201 -157.5 -313.5t-438.5 -112.5h-651l129 184l-2 1078l-139 172h663q531 0 531 -340q0 -228 -248 -322q313 -64 313 -346zM705 688h-197v-586h184q330 0 330 287q0 146 -83.5 222.5t-233.5 76.5zM692 1331h-184v-540h149q142 0 221.5 74t79.5 208
q0 127 -69 192.5t-197 65.5z" />
    <glyph glyph-name="C" unicode="C" horiz-adv-x="1341" 
d="M1268 1393v-398h-2l-260 330q-93 37 -185 37q-200 0 -313.5 -167.5t-112.5 -467.5q1 -315 115.5 -482t320.5 -167q80 0 175 31l258 325h4v-401q-224 -51 -439 -51q-129 0 -240.5 26t-207 83t-163.5 142.5t-106 210t-38 279.5q0 364 209 549q210 186 546 186
q220 0 439 -65z" />
    <glyph glyph-name="D" unicode="D" horiz-adv-x="1472" 
d="M1401 719q0 -359 -196 -539t-576 -180h-545l129 184v1078l-139 172h555q772 0 772 -715zM635 1331h-127v-1231h127q225 0 343 166.5t118 462.5q0 288 -116 445t-345 157z" />
    <glyph glyph-name="E" unicode="E" horiz-adv-x="1316" 
d="M948 471l-186 197h-258v-566h457l270 340v-442h-1149l129 184v1078l-139 172h1138v-447l-270 344h-436v-561h258l186 197v-496z" />
    <glyph glyph-name="F" unicode="F" horiz-adv-x="1247" 
d="M788 627h-284v-443l143 -184h-565l127 184v1078l-137 172h1147v-447l-271 344h-444v-602h284l187 197v-496z" />
    <glyph glyph-name="G" unicode="G" horiz-adv-x="1566" 
d="M940 729h571l-137 -184v-545l-184 47q-186 -61 -387 -61q-7 0 -31 1t-31 1q-301 18 -483 209q-180 192 -180 532t192 526t508 201q14 2 58 2h8q221 0 428 -63v-400l-260 330q-90 35 -176 35q-194 0 -314 -156q-122 -159 -119 -459q0 -313 125 -483t359 -170q93 0 192 27
v426z" />
    <glyph glyph-name="H" unicode="H" horiz-adv-x="1658" 
d="M512 1262v-471h639v471l-141 172h571l-135 -172v-1078l139 -184h-563l129 184v504h-639v-504l139 -184h-563l129 184v1078l-141 172h571z" />
    <glyph glyph-name="I" unicode="I" horiz-adv-x="655" 
d="M602 1434l-123 -172v-1078l137 -184h-559l127 184l-2 1078l-135 172h555z" />
    <glyph glyph-name="J" unicode="J" horiz-adv-x="743" 
d="M717 1434l-135 -172v-727q0 -473 -111 -646q-110 -174 -432 -174h-16v68q158 3 210 123q54 123 54 467v889l-140 172h570z" />
    <glyph glyph-name="K" unicode="K" horiz-adv-x="1558" 
d="M510 616v-458l139 -158h-559l125 184l-2 1078l-135 172h569l-137 -172v-512l526 497l-123 187h473l-507 -478l444 -747l195 -209h-400l-456 764z" />
    <glyph glyph-name="L" unicode="L" horiz-adv-x="1210" 
d="M651 1434l-147 -172v-1160h414l268 340v-442h-1102l125 184v1078l-135 172h577z" />
    <glyph glyph-name="M" unicode="M" horiz-adv-x="1908" 
d="M1835 0h-559l123 184v846l-453 -1030h-153l-480 1067l2 -883l129 -184h-358l125 184v1035l-111 215h365l506 -1121l487 1121h344l-108 -172v-1078z" />
    <glyph glyph-name="N" unicode="N" horiz-adv-x="1576" 
d="M469 0h-356l125 184v1041l-162 209h381l819 -1149v983l-125 166h356l-129 -166v-1268h-252l-786 1098v-914z" />
    <glyph glyph-name="O" unicode="O" horiz-adv-x="1622" 
d="M283 1270q204 198 530 198q324 0 528 -198q207 -198 207 -551q0 -352 -207 -553q-206 -197 -528 -197q-321 0 -530 197q-207 201 -207 553q0 353 207 551zM397 719q0 -306 113 -473.5t303 -167.5q195 0 303.5 168.5t108.5 474.5q0 308 -111.5 472.5t-304.5 164.5
t-302.5 -169t-109.5 -470z" />
    <glyph glyph-name="P" unicode="P" horiz-adv-x="1327" 
d="M711 496h-203v-312l139 -184h-563l129 184v1078l-139 172h637q282 0 434.5 -118t152.5 -335q0 -226 -156 -355.5t-431 -129.5zM672 1331h-164v-733h151q158 0 245 99t87 274q0 173 -83 266.5t-236 93.5z" />
    <glyph glyph-name="Q" unicode="Q" horiz-adv-x="1665" 
d="M1110 -233q136 0 243.5 45t217.5 153l28 -22q-181 -424 -575 -424q-132 0 -383 78q-248 77 -371 77q-74 0 -145 -18l-12 10l321 391q-172 89 -266 259.5t-94 402.5q0 353 207 551t532 198q324 0 528 -198q207 -198 207 -551q0 -352 -207 -553q-206 -197 -528 -197
q-175 0 -317 60l-93 -123q171 -35 314 -78q241 -61 393 -61zM397 719q0 -306 113 -473.5t303 -167.5q195 0 303.5 168.5t108.5 474.5q0 307 -112.5 472t-303.5 165q-193 0 -302.5 -169t-109.5 -470z" />
    <glyph glyph-name="R" unicode="R" horiz-adv-x="1536" 
d="M1057 590l270 -424l158 -166h-400l-380 643h-193v-459l139 -184h-565l131 184v1078l-141 172h651q288 0 437 -100t149 -287q0 -176 -123.5 -280.5t-345.5 -121.5zM682 1331h-170v-586h170q150 0 237 78t87 224q1 141 -83 212.5t-241 71.5z" />
    <glyph glyph-name="S" unicode="S" horiz-adv-x="1296" 
d="M1225 391q0 -95 -41.5 -172t-110.5 -123q-64 -43 -158 -71q-166 -48 -344 -48q-255 9 -456 103v409h4l287 -374q104 -23 194 -23q31 0 41 2q131 6 211.5 61.5t79.5 155.5q0 120 -119 193q-57 35 -104 56t-134 52q-6 2 -15 5.5t-22.5 8.5t-23.5 9q-146 58 -233 110
q-89 56 -134 129t-51 181q0 200 174 301q175 102 455 102q259 0 434 -69v-441h-4l-297 395q-47 12 -86 15q-10 2 -43 2q-60 0 -115 -10.5t-108 -34t-85 -70t-32 -110.5q0 -90 64.5 -149.5t193.5 -106.5l127 -45q56 -20 123 -50q44 -17 117 -59q72 -42 110 -82
q43 -46 72 -112.5t29 -139.5z" />
    <glyph glyph-name="T" unicode="T" horiz-adv-x="1384" 
d="M1343 1434v-447l-270 344h-229v-1147l139 -184h-559l125 184v1147h-232l-268 -344h-2v447h1296z" />
    <glyph glyph-name="U" unicode="U" horiz-adv-x="1552" 
d="M1130 1434h357l-129 -174v-650q0 -342 -125 -491q-128 -153 -424 -150q-331 3 -469 162q-139 165 -139 526v605l-135 172h569l-139 -172v-627q0 -303 82 -428t278 -125q214 -1 306.5 135t92.5 422v621z" />
    <glyph glyph-name="V" unicode="V" horiz-adv-x="1529" 
d="M1352 1245l-74 -160l-408 -1085h-282l-428 1253l-117 181h510l-90 -172l338 -988l39 -67l374 999l-135 228h420z" />
    <glyph glyph-name="W" unicode="W" horiz-adv-x="2314" 
d="M805 203l35 59l258 723l-88 275l-127 174h532l-94 -172l315 -990l33 -69l318 1003l-123 228h395l-133 -181l-66 -161l-354 -1092h-293l-264 825l-297 -825h-285l-385 1255l-121 179h519l-93 -172z" />
    <glyph glyph-name="X" unicode="X" horiz-adv-x="1581" 
d="M299 225l346 461l-539 748h576l-96 -156l293 -408l268 369l-133 195h504l-236 -195l-340 -453l582 -786h-563l73 164l-321 434l-293 -395l131 -203h-492z" />
    <glyph glyph-name="Y" unicode="Y" horiz-adv-x="1427" 
d="M592 1434l-121 -172l324 -545l305 526l-127 191h430l-189 -191l-360 -641v-418l152 -184h-572l125 184l-2 357l-520 893h555z" />
    <glyph glyph-name="Z" unicode="Z" horiz-adv-x="1316" 
d="M166 0l-96 203l868 1128h-479l-160 -327l-184 430h1038l100 -177l-888 -1155h520l215 340l135 -442h-1069z" />
    <glyph glyph-name="bracketleft" unicode="[" horiz-adv-x="649" 
d="M340 1358v-1395l285 -147l-508 -41l-2 1761l510 -41z" />
    <glyph glyph-name="backslash" unicode="\" horiz-adv-x="997" 
d="M844 -225l-815 1761h127l815 -1761h-127z" />
    <glyph glyph-name="bracketright" unicode="]" horiz-adv-x="630" 
d="M537 1536l-2 -1761l-508 41l284 147v1395l-284 137z" />
    <glyph glyph-name="uni005F" unicode="_" horiz-adv-x="1398" 
d="M123 -102v102h1153v-102h-1153z" />
    <glyph glyph-name="a" unicode="a" horiz-adv-x="1177" 
d="M84 266q0 117 78 199q28 32 88 63q58 30 96 45l109 39l73 25q10 3 68 29q44 19 70 41q61 49 61 118q0 48 -26 80.5t-68 32.5h-184l-218 -238l-139 357h934l-27 -101v-796l117 -160h-379v182q-62 -92 -159.5 -147t-200.5 -55q-129 0 -211 79t-82 207zM737 279v372
q-39 -62 -192 -143q-61 -32 -101 -57q-37 -23 -67.5 -67t-30.5 -91q0 -65 40.5 -99t109.5 -34q3 0 8 1t8 1q123 9 225 117z" />
    <glyph glyph-name="b" unicode="b" horiz-adv-x="1230" 
d="M180 1288l-110 160l370 88v-600q155 137 344 137q184 0 299 -133t115 -362q-3 -258 -149 -426q-144 -170 -363 -170q-140 0 -270 81l-236 -81v1306zM606 131q144 2 229 104.5t85 288.5q0 173 -71 278t-187 105q-112 0 -222 -98v-639q63 -25 113 -33q27 -6 53 -6z" />
    <glyph glyph-name="c" unicode="c" horiz-adv-x="1122" 
d="M1006 1042v-358l-271 272q-10 1 -27 3t-22 2q-164 0 -250 -136q-84 -134 -84 -309q0 -188 88.5 -301t227.5 -113q172 0 340 183l57 -49q-191 -259 -500 -259q-226 9 -358 168q-133 160 -133 392q0 267 154 405.5t440 138.5q165 -3 338 -39z" />
    <glyph glyph-name="d" unicode="d" horiz-adv-x="1251" 
d="M805 952v336l-117 160l377 88v-1364l127 -172h-387v172q-121 -195 -346 -195q-191 0 -307 152q-111 150 -111 385q-3 256 123 406q126 153 325 153q177 0 316 -121zM584 156q113 0 221 120v539q-103 92 -211 92q-121 0 -198 -105t-77 -284q0 -171 72 -266.5t193 -95.5z
" />
    <glyph glyph-name="e" unicode="e" horiz-adv-x="1148" 
d="M1073 471h-719q12 -169 100 -264.5t226 -95.5q172 0 324 174l59 -49q-187 -261 -465 -261q-237 0 -381 150q-140 149 -143 401q-3 254 143 406q146 149 399 149q274 0 388 -172q115 -174 69 -438zM623 952q-112 0 -186.5 -98.5t-84.5 -278.5h471q9 132 -24 242
q-19 63 -64.5 99t-111.5 36z" />
    <glyph glyph-name="f" unicode="f" horiz-adv-x="835" 
d="M817 1526v-336l-250 262h-16q-23 0 -29 -2q-46 -6 -67 -49q-19 -32 -25 -86q-2 -14 -2 -72v-186h240l-2 -103h-238v-796l121 -158h-492l109 158v796h-100v103h100v84q0 209 89.5 315.5t283.5 106.5h39q98 -6 239 -37z" />
    <glyph glyph-name="g" unicode="g" horiz-adv-x="1361" 
d="M1047 930l249 196v-278h-196q49 -82 49 -201q0 -208 -145 -317t-361 -109q-173 0 -311 72q0 -30 12 -57q15 -45 72 -68q66 -24 112 -29l162 -10q15 -1 123 -8q13 -1 30.5 -3t42.5 -6t42 -6q69 -9 110 -30q74 -31 122.5 -93t41.5 -153q0 -110 -57 -191t-156 -120
q-178 -76 -393 -76q-168 0 -330 55q-86 27 -137 85.5t-51 135.5q0 157 192 248q-123 64 -123 183q0 20 7 38q15 93 104 152q-149 119 -149 322q0 208 149 315q149 110 367 110q271 0 422 -157zM381 662q0 -127 69 -208t185 -81q115 0 177 76t62 202q0 127 -65 209t-180 82
t-181.5 -78t-66.5 -202zM981 -270q0 97 -133 135q-101 28 -244 39l-78 6q-118 10 -147 16q-103 -65 -103 -170q4 -58 42.5 -102.5t97.5 -65.5q116 -39 229 -39q51 2 104 11.5t107.5 29t89.5 56t35 84.5z" />
    <glyph glyph-name="h" unicode="h" horiz-adv-x="1269" 
d="M801 1071q326 -3 329 -430v-483l113 -158h-481l106 158v438q3 301 -172 301q-115 0 -250 -129l3 -610l112 -158h-483l110 158l-2 1132l-104 160l364 86v-612q156 147 355 147z" />
    <glyph glyph-name="i" unicode="i" horiz-adv-x="557" 
d="M49 1016l365 92v-950l127 -158h-508l121 158v708zM264 1219l-184 163l172 209l188 -172z" />
    <glyph glyph-name="j" unicode="j" horiz-adv-x="555" 
d="M199 33l-2 833l-105 138l367 104v-950q0 -165 -10.5 -267.5t-38.5 -185.5q-38 -125 -133 -180t-267 -55v61q118 12 152 125q37 112 37 377zM293 1591l188 -172l-174 -200l-186 163z" />
    <glyph glyph-name="k" unicode="k" horiz-adv-x="1282" 
d="M449 582l389 297l-107 176h492l-445 -334l322 -547l168 -174h-363l-338 571l-118 -96v-317l112 -158h-483l108 158v1132l-104 158l367 88v-954z" />
    <glyph glyph-name="l" unicode="l" horiz-adv-x="563" 
d="M51 1448l367 88v-1378l114 -158h-485l111 158l-2 1130z" />
    <glyph glyph-name="m" unicode="m" horiz-adv-x="2013" 
d="M1139 813q14 -60 14 -123q0 -12 1 -59.5t1 -63.5l-2 -409l115 -158h-482l105 158l2 366v84q0 301 -195 301q-117 0 -239 -110v-641l114 -158h-485l111 160l-2 700l-107 160l369 86v-184q153 147 354 147q217 0 293 -162q77 77 182 120.5t209 43.5q84 -1 149 -31t99 -77
q36 -48 53 -119q19 -68 25 -126.5t6 -150.5l-2 -409l115 -158h-482l105 158l2 438q0 313 -199 313q-107 0 -229 -96z" />
    <glyph glyph-name="n" unicode="n" horiz-adv-x="1304" 
d="M803 1071q329 -3 332 -430v-483l110 -158h-479l106 158v450q0 303 -188 303q-112 0 -233 -112v-641l114 -158h-487l112 160l-2 700l-106 160l369 86v-184q155 149 352 149z" />
    <glyph glyph-name="o" unicode="o" horiz-adv-x="1277" 
d="M78 528q0 253 151 404q154 151 416 151q263 0 412 -149q151 -151 151 -404q0 -252 -151 -403q-152 -152 -414 -152q-266 0 -416 150q-149 149 -149 403zM641 971q-132 0 -209.5 -117t-77.5 -326q0 -211 78 -327q76 -113 211 -113q134 0 211 115q81 119 78 334
q-1 211 -80 322.5t-211 111.5z" />
    <glyph glyph-name="p" unicode="p" horiz-adv-x="1239" 
d="M193 860l-107 162l369 86v-164q145 139 340 139q180 0 297 -129q119 -128 116 -366q0 -270 -149 -438q-147 -170 -365 -170q-124 0 -239 65v-383l129 -174h-512l121 174v1198zM631 133q139 1 219 117.5t80 304.5q0 166 -68.5 267.5t-179.5 101.5q-104 0 -227 -97v-651
q93 -43 176 -43z" />
    <glyph glyph-name="q" unicode="q" horiz-adv-x="1236" 
d="M1053 1081v-1419l123 -174h-523l140 184v488q-138 -185 -347 -185q-176 0 -292 140q-115 139 -115 372q0 253 145 424q143 168 365 168q164 0 313 -96zM627 928q-144 0 -227 -103.5t-83 -296.5q0 -174 66 -272t174 -98q3 0 14.5 1t14.5 1q117 15 207 127v606
q-90 35 -166 35z" />
    <glyph glyph-name="r" unicode="r" horiz-adv-x="1040" 
d="M592 0h-510l115 160v731l-127 166h954l-127 -326l-287 215h-55q-55 0 -76.5 -25.5t-21.5 -91.5v-671z" />
    <glyph glyph-name="s" unicode="s" horiz-adv-x="1071" 
d="M973 1018v-356l-279 278q-46 18 -114 18q-183 0 -213 -102q-7 -14 -7 -31q0 -50 52 -102q37 -26 63 -39q51 -25 68 -31l84 -30q61 -22 127 -52q52 -24 106 -59q119 -71 131 -203q6 -79 -22.5 -141t-81.5 -100q-133 -95 -395 -95q-177 0 -390 78v357l281 -297
q59 -15 123 -15q77 5 138.5 32.5t78.5 70.5l8 26q0 24 -10 46t-32 41t-41.5 33t-55 30.5t-54 24.5t-55.5 22l-22 8q-131 48 -205 88q-80 47 -120 103t-46 145q0 143 130.5 229t359.5 86q213 0 393 -63z" />
    <glyph glyph-name="t" unicode="t" horiz-adv-x="729" 
d="M678 170l35 -43q-125 -152 -299 -152q-112 0 -181.5 72.5t-70.5 200.5v706h-115v39l371 369v-305h219v-103h-213v-675q0 -79 22 -125q17 -28 52 -37.5t83.5 3.5t96.5 50z" />
    <glyph glyph-name="u" unicode="u" horiz-adv-x="1304" 
d="M862 297v600l-112 160h372v-899l119 -158h-379v174q-144 -199 -352 -199q-158 0 -244.5 107.5t-87.5 325.5l2 489l-114 160h481l-105 -160l-2 -444q0 -160 43 -229.5t125 -69.5q141 0 254 143z" />
    <glyph glyph-name="v" unicode="v" horiz-adv-x="1222" 
d="M655 166l269 639l-142 252h406l-154 -252l-336 -805h-258l-389 1057h469l-117 -197z" />
    <glyph glyph-name="w" unicode="w" horiz-adv-x="1916" 
d="M1868 1057l-180 -252l-318 -805h-262l-195 565l-221 -565h-260l-362 1057h448l-106 -197l233 -694l217 551l-117 340h467l-108 -226l221 -663l252 637l-131 252h422z" />
    <glyph glyph-name="x" unicode="x" horiz-adv-x="1306" 
d="M829 1057h418l-225 -223l-234 -263l439 -571h-537l98 164l-194 254l-223 -250l110 -168h-420l254 258l217 242l-428 557h555l-98 -180l170 -224l189 213z" />
    <glyph glyph-name="y" unicode="y" horiz-adv-x="1277" 
d="M610 -512h-340l109 168l170 319l-506 1082h502l-121 -197l278 -598l289 543l-141 252h412l-154 -252l-608 -1145z" />
    <glyph glyph-name="z" unicode="z" horiz-adv-x="1118" 
d="M115 0l-41 98l635 856h-258l-205 -254l-140 357h883l62 -76l-652 -879h299l209 289l127 -391h-919z" />
    <glyph glyph-name="braceleft" unicode="{" horiz-adv-x="690" 
d="M236 651q192 -34 192 -293q0 -61 -14 -165q-13 -117 -13 -152q0 -107 59 -160t195 -57v-62q-263 0 -382 81t-119 241q0 66 20 180q21 123 21 180q0 174 -129 201v12q129 35 129 203q0 45 -23 176q-20 114 -20 181q0 160 120 240.5t383 80.5v-61q-127 -4 -181 -55
t-54 -154q0 -29 10 -142q12 -99 12 -151q0 -289 -206 -324z" />
    <glyph glyph-name="bar" unicode="|" horiz-adv-x="260" 
d="M225 -512h-102v2150h102v-2150z" />
    <glyph glyph-name="braceright" unicode="}" horiz-adv-x="690" 
d="M463 651q-110 18 -158.5 98.5t-48.5 225.5q0 62 8 153q10 113 10 140q0 106 -52 155.5t-179 53.5v61q263 0 382.5 -80.5t119.5 -240.5q0 -61 -21 -181q-20 -114 -20 -176q0 -168 129 -203v-12q-129 -27 -129 -201q0 -63 20 -180q21 -120 21 -180q0 -160 -119.5 -241
t-382.5 -81v62q136 4 194 57t58 160q0 51 -14 152q-13 120 -13 165q0 258 195 293z" />
    <glyph glyph-name="asciitilde" unicode="~" horiz-adv-x="825" 
d="M729 1016h4q2 -6 2 -33q0 -109 -50 -176.5t-132 -67.5q-61 0 -162 52q-99 51 -151 51q-102 0 -129 -105h-5q-2 8 -2 39q0 104 51.5 171t131.5 67q60 0 159 -51q101 -52 154 -52q99 0 129 105z" />
    <glyph glyph-name="exclamdown" unicode="&#xa1;" horiz-adv-x="489" 
d="M248 662q-70 0 -114 40t-44 105q0 66 44.5 106.5t113.5 40.5t113.5 -40.5t44.5 -106.5t-43 -105.5t-115 -39.5zM57 -510l183 1020h20l180 -1020h-383z" />
    <glyph glyph-name="cent" unicode="&#xa2;" horiz-adv-x="1126" 
d="M999 1042v-358l-206 211l-195 -782q37 -11 74 -11q164 0 329 183l60 -49q-191 -261 -471 -261q-19 0 -25 2l-53 -208h-127l57 227q-174 45 -272 183t-98 345q-1 280 153.5 418.5t448.5 138.5q4 0 18.5 -1t18.5 -1l55 228h129l-59 -238q51 -6 163 -27zM485 170l195 791
q-144 0 -238 -117q-96 -119 -96 -316q0 -243 139 -358z" />
    <glyph glyph-name="sterling" unicode="&#xa3;" horiz-adv-x="1288" 
d="M913 741v-102h-327q0 -44 -13 -98q-21 -166 -176 -303h566l221 307v-545h-1080v80q122 90 193.5 203.5t71.5 228.5q0 46 -19 127h-254v102h221q-92 232 -92 363q0 20 2 24q15 332 516 332q236 0 428 -71v-445l-333 414q-46 0 -56 -2q-264 -15 -264 -299q0 -59 19 -156
q11 -59 36 -160h340z" />
    <glyph glyph-name="currency" unicode="&#xa4;" horiz-adv-x="1513" 
d="M1360 1380l67 -67l-258 -256q113 -137 113 -342q0 -204 -111 -342l256 -256l-67 -68l-256 256q-136 -112 -344 -112q-206 0 -342 112l-258 -256l-68 68l258 256q-110 134 -110 342t110 342l-258 256l68 67l258 -256q135 111 342 111q206 0 344 -111zM465 408
q114 -117 295 -117t295 117q112 115 112 307t-112 307q-114 117 -295 117t-295 -117q-113 -116 -113 -307t113 -307z" />
    <glyph glyph-name="yen" unicode="&#xa5;" horiz-adv-x="1482" 
d="M1430 1434l-187 -191l-356 -635h307v-102h-311v-119h311v-102h-311v-101l149 -184h-571l127 184v101h-316v102h314v119h-314v102h275l-481 826h552l-118 -172l323 -545l305 526l-127 191h429z" />
    <glyph glyph-name="brokenbar" unicode="&#xa6;" horiz-adv-x="260" 
d="M225 731h-102v907h102v-907zM225 -512h-102v909h102v-909z" />
    <glyph glyph-name="section" unicode="&#xa7;" horiz-adv-x="1118" 
d="M614 1337q-148 0 -194 -73q-23 -30 -23 -58q0 -49 41 -90q39 -36 80 -56.5t135 -53.5q61 -21 103 -39q5 -2 90 -41q81 -39 120 -86.5t58 -126.5q4 -28 4 -62q-6 -110 -71.5 -199.5t-174.5 -136.5q114 -57 168 -121t54 -149q0 -157 -127.5 -241.5t-348.5 -84.5
q-73 0 -227 23q-137 21 -186 57v357l278 -297q53 -17 117 -17q83 0 156 31q71 30 71 107q0 57 -51 104q-25 21 -59 39q-59 36 -150 70q-70 29 -127 55q-43 21 -104 61q-118 79 -133 207q-5 21 -2 57q6 99 68.5 176t174.5 119q-216 106 -225 262q0 4 -1 11t-1 8
q0 142 130.5 226.5t360.5 84.5q221 0 392 -63v-357l-277 281q-50 16 -119 16zM786 578q0 87 -102 145q-17 10 -33.5 19t-27 14.5t-33 15t-30 12.5l-40 16t-43.5 17q-129 -79 -129 -219q4 -65 61 -107.5t199 -101.5q4 -1 18.5 -7t18.5 -7q68 30 104.5 87.5t36.5 115.5z" />
    <glyph glyph-name="copyright" unicode="&#xa9;" horiz-adv-x="1611" 
d="M1090 1118v-278l-213 252h-15q-223 0 -223 -371q0 -180 59 -281.5t170 -101.5h15l207 244v-271q-125 -43 -256 -43q-201 0 -322 127q-119 125 -119 338q0 208 116.5 318t313.5 110q125 0 267 -43zM98 713q0 321 195 516q197 194 516 194q322 0 516 -194
q197 -194 197 -516q0 -319 -197 -516q-195 -195 -516 -195q-318 0 -516 195q-195 198 -195 516zM203 719q0 -271 172 -443q173 -170 448 -170q282 0 439 177q159 179 159 430q0 267 -174 438q-171 174 -434 174q-253 0 -432 -164q-178 -163 -178 -442z" />
    <glyph glyph-name="ordfeminine" unicode="&#xaa;" horiz-adv-x="862" 
d="M100 887q0 90 66 146t203 100q62 19 99.5 55t37.5 82q0 76 -80 76h-66l-149 -158l-94 246h596l-15 -68v-518l84 -117h-268v125q-86 -141 -229 -141q-80 0 -132.5 46t-52.5 126zM514 922v237q-7 -18 -15.5 -30.5t-23 -25t-23.5 -18.5t-34 -22q-63 -36 -90 -63.5t-31 -77.5
q0 -74 80 -74q72 0 137 74z" />
    <glyph glyph-name="guillemotleft" unicode="&#xab;" horiz-adv-x="1044" 
d="M57 659v5l451 448l27 -27l-170 -423l170 -422l-27 -29zM467 659v5l451 448l26 -27l-170 -423l170 -422l-26 -29z" />
    <glyph glyph-name="logicalnot" unicode="&#xac;" horiz-adv-x="1050" 
d="M928 313h-103v314h-805v102h908v-416z" />
    <glyph glyph-name="uni00AD" unicode="&#xad;" horiz-adv-x="0" 
d="M123 600v102h743v-102h-743z" />
    <glyph glyph-name="registered" unicode="&#xae;" horiz-adv-x="1611" 
d="M98 713q0 321 195 516q197 194 516 194q322 0 516 -194q197 -194 197 -516q0 -319 -197 -516q-195 -195 -516 -195q-318 0 -516 195q-195 198 -195 516zM1257 287h-305l-168 385h-79v-240l112 -145h-430l98 145l-2 569l-112 146h438q349 0 352 -234q0 -103 -69.5 -167.5
t-200.5 -71.5l147 -25l97 -217l125 -143q157 171 157 424q0 266 -170 436q-169 172 -438 172q-267 0 -436 -172q-170 -170 -170 -436q0 -267 170 -437t436 -170q273 0 448 181zM705 1085v-352h51q183 0 186 180q0 172 -186 172h-51z" />
    <glyph glyph-name="uni00AF" unicode="&#xaf;" horiz-adv-x="989" 
d="M123 1331v103h743v-103h-743z" />
    <glyph glyph-name="degree" unicode="&#xb0;" horiz-adv-x="575" 
d="M150 1196q-54 57 -54 143q0 88 54 142q55 55 143 55t141 -53q55 -52 55 -144q0 -91 -55 -143q-53 -53 -141 -53q-87 0 -143 53zM293 1245q57 -5 80.5 45t0 99.5t-80.5 44.5q-41 0 -67.5 -27t-26.5 -68t27.5 -67.5t66.5 -26.5z" />
    <glyph glyph-name="pluminus" unicode="&#xb1;" horiz-adv-x="899" 
d="M37 102h825v-102h-825v102zM500 641h362v-102h-362v-320h-103v320h-360v102h360v322h103v-322z" />
    <glyph glyph-name="acute" unicode="&#xb4;" horiz-adv-x="524" 
d="M190 1442h316l-418 -344z" />
    <glyph glyph-name="uni00B5" unicode="&#xb5;" horiz-adv-x="1316" 
d="M213 893l-119 162h381v-602q0 -161 42.5 -230t125.5 -69q127 0 246 143v600l-115 158h375v-897l117 -158h-377v174q-132 -185 -303 -194q-6 -3 -21 -3q-43 0 -90 13v-344l131 -158h-502l109 158v1247z" />
    <glyph glyph-name="dotmiddle" unicode="&#xb7;" horiz-adv-x="616" 
d="M98 729q0 98 59 157.5t156 59.5q98 0 157.5 -59.5t59.5 -157.5q0 -97 -59.5 -156t-157.5 -59q-97 0 -156 59t-59 156z" />
    <glyph glyph-name="cedilla" unicode="&#xb8;" horiz-adv-x="665" 
d="M602 -254q0 -82 -71 -135t-181 -53q-114 0 -194 59q-79 58 -82 145q34 -116 170 -116q63 0 102 29.5t39 78.5q0 51 -38 81t-101 30q-43 0 -70 -15l100 181h60l-12 -111q35 6 65 6q92 0 152.5 -51t60.5 -129z" />
    <glyph glyph-name="ordmasculine" unicode="&#xba;" horiz-adv-x="878" 
d="M444 1464q159 0 254 -103t95 -267q0 -162 -95 -271q-90 -106 -252 -106q-163 0 -256 106q-94 107 -94 273q0 164 93.5 266t254.5 102zM285 1090q0 -150 41 -235t116 -85t118.5 86.5t43.5 239.5q0 148 -41.5 231.5t-116.5 83.5t-118 -84.5t-43 -236.5z" />
    <glyph glyph-name="guillemotright" unicode="&#xbb;" horiz-adv-x="1040" 
d="M272 662l-170 423l27 27l451 -448v-5l-451 -448l-27 29zM682 662l-170 423l27 27l450 -448v-5l-450 -448l-27 29z" />
    <glyph glyph-name="onequarter" unicode="&#xbc;" horiz-adv-x="825" 
d="M383 100l160 174v-174h10l96 121v-166h-106v-73l53 -80h-283l62 73v80h-244v27q139 127 197.5 231.5t58.5 223.5h156q0 -296 -338 -437h178zM39 729h752v-102h-752v102zM264 1413l246 49v-563l55 -80h-274l51 74v455z" />
    <glyph glyph-name="onehalf" unicode="&#xbd;" horiz-adv-x="837" 
d="M553 31l102 110v-250h-489v33q148 123 234.5 251t86.5 220t-118 92h-15l-161 -182v203q92 24 196 24q277 0 277 -151q0 -91 -87.5 -187t-234.5 -163h209zM39 729h754v-102h-754v102zM266 1413l244 49v-563l57 -80h-276l53 74v455z" />
    <glyph glyph-name="questiondown" unicode="&#xbf;" horiz-adv-x="958" 
d="M303 807q0 63 44.5 104t113.5 41q72 0 116 -39.5t44 -105.5t-44 -107t-116 -41q-69 0 -113.5 41t-44.5 107zM465 473h14q-6 -54 4.5 -98.5t46 -87.5t58 -64t79.5 -67q9 -7 13 -11q52 -39 86 -70.5t71 -78.5t55.5 -106.5t18.5 -129.5q0 -153 -104.5 -226t-349.5 -73
q-181 0 -404 58v377l269 -328q67 -6 88 -6q194 0 194 188q0 52 -14.5 97t-38.5 78.5t-52.5 64t-57.5 59.5t-53 59t-40 69t-18 83q0 69 36.5 126.5t98.5 86.5z" />
    <glyph glyph-name="Agrave" unicode="&#xc0;" horiz-adv-x="1486" 
d="M1462 0h-512l86 184l-106 334h-506l-105 -278l142 -240h-434l155 211l64 127l364 960l-80 136h400l405 -1225zM406 1860h315l102 -347zM897 621l-205 596h-6l-223 -596h434z" />
    <glyph glyph-name="Aacute" unicode="&#xc1;" horiz-adv-x="1486" 
d="M1458 0h-510l86 184l-106 334h-508l-105 -278l142 -240h-432l155 211l62 127l366 960l-82 136h400l407 -1225zM637 1507l102 344h316zM895 621l-207 596h-4l-225 -596h436z" />
    <glyph glyph-name="Acircumflex" unicode="&#xc2;" horiz-adv-x="1499" 
d="M1464 0h-510l86 184l-106 334h-508l-104 -278l141 -240h-432l155 211l62 127l366 960l-82 136h400l407 -1225zM750 1870h4l288 -338l-22 -21l-270 129l-267 -129l-22 21zM901 621l-207 596h-4l-225 -596h436z" />
    <glyph glyph-name="Atilde" unicode="&#xc3;" horiz-adv-x="1490" 
d="M1464 0h-510l86 184l-106 334h-508l-104 -278l141 -240h-432l155 211l62 127l364 960l-80 136h400l407 -1225zM1004 1792h4q15 -82 -31 -158q-46 -73 -127 -73q-49 0 -129 45q-84 41 -127 41q-86 0 -107 -88h-4q-12 81 29 155q43 76 127 76q54 0 127 -43q77 -41 127 -41
q87 0 111 86zM901 621l-207 596h-4l-225 -596h436z" />
    <glyph glyph-name="Adieresis" unicode="&#xc4;" horiz-adv-x="1499" 
d="M1466 0h-512l86 184l-106 334h-506l-104 -278l141 -240h-434l155 211l64 127l364 960l-79 136h399l405 -1225zM561 1823q63 0 101 -35.5t38 -95.5t-38 -96.5t-101 -36.5q-62 0 -99.5 36.5t-37.5 96.5t37.5 95.5t99.5 35.5zM795 1692q0 57 39 94t100 37q62 0 99.5 -35.5
t37.5 -95.5t-37.5 -96.5t-99.5 -36.5t-100.5 36.5t-38.5 96.5zM901 621l-205 596h-6l-223 -596h434z" />
    <glyph glyph-name="AE" unicode="&#xc6;" horiz-adv-x="2127" 
d="M2025 987h-2l-268 344h-444v-561h258l184 197v-496l-184 197h-258v-566h456l269 340h2v-442h-1149l127 162v356h-500l-141 -285l96 -233h-430l139 158l154 233l471 897l-86 146h1306v-447zM571 621h445v651l-72 59z" />
    <glyph glyph-name="Ccedilla" unicode="&#xc7;" horiz-adv-x="1300" 
d="M993 -246q0 -87 -69.5 -141.5t-180.5 -54.5q-117 0 -195 58t-83 146q34 -116 172 -116q63 0 101 29.5t38 78.5q0 52 -38.5 81.5t-96.5 29.5q-44 0 -74 -15l78 142q-279 42 -435.5 225t-156.5 496q0 369 209 557q212 188 545 188q221 0 440 -65v-398h-2l-260 330
q-98 37 -184 37q-207 0 -318 -184q-108 -182 -108 -453q0 -268 106 -446q108 -182 314 -197q98 0 190 27l258 325h4v-401q-236 -51 -442 -51h-29q-4 0 -19.5 1t-19.5 1l-16 2l-6 -66q24 4 59 4q95 0 157 -44.5t62 -125.5z" />
    <glyph glyph-name="Egrave" unicode="&#xc8;" horiz-adv-x="1263" 
d="M930 471l-187 197h-258v-566h457l268 340h2v-442h-1151l129 184v1078l-139 172h1141v-447h-2l-268 344h-437v-561h258l187 197v-496zM293 1860h315l105 -347z" />
    <glyph glyph-name="Eacute" unicode="&#xc9;" 
d="M930 471l-187 197h-258v-566h457l268 340h2v-442h-1151l129 184v1078l-139 172h1141v-447h-2l-268 344h-437v-561h258l187 197v-496zM553 1516l102 344h316z" />
    <glyph glyph-name="Igrave" unicode="&#xcc;" horiz-adv-x="669" 
d="M625 1434l-125 -172v-1078l139 -184h-559l127 184l-2 1078l-137 172h557zM23 1860h317l102 -347z" />
    <glyph glyph-name="Iacute" unicode="&#xcd;" horiz-adv-x="647" 
d="M592 1434l-123 -172v-1078l137 -184h-559l127 184l-2 1078l-135 172h555zM205 1516l102 344h316z" />
    <glyph glyph-name="Eth" unicode="&#xd0;" horiz-adv-x="1505" 
d="M242 791v485l-140 158h557q773 0 773 -715q0 -359 -196.5 -539t-576.5 -180h-544l127 158v528h-158v105h158zM664 1331h-125v-540h213v-105h-213v-586h125q225 0 342.5 165.5t117.5 461.5q0 290 -115.5 447t-344.5 157z" />
    <glyph glyph-name="Ntilde" unicode="&#xd1;" horiz-adv-x="1542" 
d="M453 0h-359l125 184v1041l-162 209h383l820 -1149v983l-125 166h356l-129 -166v-1268h-252l-788 1098v-914zM1028 1802h4q15 -82 -31 -157q-47 -74 -127 -74q-46 0 -131 43q-76 43 -125 43q-87 0 -108 -88h-4q-9 82 31 155q40 76 125 76q47 0 129 -43t124 -43
q89 0 113 88z" />
    <glyph glyph-name="Ograve" unicode="&#xd2;" horiz-adv-x="1581" 
d="M264 1270q204 198 531 198q324 0 528 -198q207 -198 207 -551q0 -352 -207 -553q-206 -197 -528 -197t-531 197q-207 201 -207 553q0 353 207 551zM760 1860l102 -347l-420 347h318zM379 719q0 -306 113 -473.5t303 -167.5q195 0 303 168.5t108 474.5q0 308 -111 472.5
t-304 164.5t-302.5 -169t-109.5 -470z" />
    <glyph glyph-name="Oacute" unicode="&#xd3;" horiz-adv-x="1583" 
d="M791 1468q326 0 530 -198q207 -198 207 -551t-209 -553q-206 -197 -528 -197t-531 197q-207 201 -207 553q0 353 207 551t531 198zM821 1860h316l-418 -344zM375 719q0 -306 113 -473.5t303 -167.5q195 0 303 168.5t108 474.5q0 307 -112 472t-302 165
q-195 0 -304 -168.5t-109 -470.5z" />
    <glyph glyph-name="Otilde" unicode="&#xd5;" horiz-adv-x="1587" 
d="M266 1270q204 198 531 198q324 0 528 -198q207 -198 207 -551q0 -352 -207 -553q-206 -197 -528 -197t-531 197q-207 201 -207 553q0 353 207 551zM1051 1802h4q15 -82 -31 -157q-47 -74 -127 -74q-44 0 -131 43q-76 43 -125 43q-85 0 -109 -88h-4q-9 82 31 155
q40 76 127 76q45 0 127 -43t125 -43q89 0 113 88zM381 719q0 -306 113 -473.5t303 -167.5q195 0 303 168.5t108 474.5q0 308 -111 472.5t-304 164.5t-302.5 -169t-109.5 -470z" />
    <glyph glyph-name="multiply" unicode="&#xd7;" horiz-adv-x="862" 
d="M782 922l-270 -271l270 -270l-73 -72l-271 271l-270 -271l-72 72l271 270l-271 271l72 73l270 -270l271 270z" />
    <glyph glyph-name="Oslash" unicode="&#xd8;" horiz-adv-x="1607" 
d="M561 4l-76 -164h-127l95 207q-181 86 -281 259.5t-100 414.5q0 351 207 549q204 198 528 198q160 0 285 -45l51 113h127l-74 -160q166 -89 257 -258.5t91 -398.5q0 -352 -207 -553q-206 -197 -526 -197q-128 0 -250 35zM807 1358q-195 0 -304.5 -168.5t-109.5 -470.5
q0 -331 142 -496l487 1053q-94 82 -215 82zM1221 721q0 295 -119 450l-481 -1036q83 -57 188 -57q195 0 303.5 168t108.5 475z" />
    <glyph glyph-name="Ugrave" unicode="&#xd9;" horiz-adv-x="1519" 
d="M1116 1434h357l-130 -174v-650q-3 -345 -126 -491q-128 -153 -424 -150q-329 3 -467 162q-140 166 -140 526v605l-135 172h570l-140 -172v-627q0 -303 82 -428t277 -125q109 -1 186 33.5t124 106t68.5 173.5t22.5 244v621zM506 1860h315l105 -347z" />
    <glyph glyph-name="Uacute" unicode="&#xda;" horiz-adv-x="1519" 
d="M1114 1434h356l-129 -174v-650q0 -343 -124 -491q-128 -153 -424 -150q-331 3 -469 162q-140 166 -140 526v605l-135 172h569l-139 -172v-627q0 -303 82 -428t279 -125q214 -1 306.5 135t92.5 422v621zM707 1516l102 344h315z" />
    <glyph glyph-name="Yacute" unicode="&#xdd;" horiz-adv-x="1406" 
d="M580 1434l-119 -172l323 -545l306 526l-129 191h430l-187 -191l-360 -641v-418l149 -184h-571l127 184l-2 357l-520 893h553zM651 1507l103 344h315z" />
    <glyph glyph-name="Thorn" unicode="&#xde;" horiz-adv-x="1159" 
d="M80 0l110 158l-2 1050l-112 164l375 62v-199h84q593 0 593 -455q0 -232 -152 -353.5t-441 -121.5h-84v-147l114 -158h-485zM451 1137v-734q197 0 300 96t103 285q0 353 -403 353z" />
    <glyph glyph-name="germandbls" unicode="&#xdf;" horiz-adv-x="1419" 
d="M1356 319q0 -166 -101.5 -249.5t-283.5 -83.5q-172 0 -324 63l125 342l107 -287q52 -22 98 -22q67 0 107 42t40 116q0 131 -147 249q-6 5 -36 29t-38.5 32t-35.5 31.5t-37 34.5t-32 35t-31 39.5t-23.5 40.5t-20.5 46t-11 47t-5 53q0 64 26 115.5t62.5 85.5t73.5 65
t63 70.5t26 86.5q0 85 -50 131t-142 46q-150 0 -210 -84.5t-60 -274.5v-1118h-428l133 174v778h-111v103h113q6 129 32.5 219.5t81.5 161.5q112 145 398 145q191 0 329 -72q136 -71 136 -174q0 -57 -44 -107t-108 -85q-65 -33 -108 -74.5t-43 -85.5q0 -43 43 -88.5
t124 -103.5q61 -40 108.5 -80t98 -98.5t78.5 -133.5t27 -160z" />
    <glyph glyph-name="agrave" unicode="&#xe0;" horiz-adv-x="1122" 
d="M70 266q0 159 123 234q64 40 110 61q77 33 137 51l74 25q10 3 68 29q42 18 69 41q62 50 62 118q0 48 -26.5 80.5t-68.5 32.5h-184l-217 -238l-139 357h932l-25 -101v-796l117 -160h-379v182q-64 -92 -160.5 -147t-200.5 -55q-129 0 -210.5 79t-81.5 207zM563 1503
l105 -346l-420 346h315zM723 279v372q-38 -61 -193 -143q-76 -38 -135 -86q-63 -51 -63 -129q0 -65 40.5 -99t108.5 -34q1 0 8.5 1t8.5 1q120 9 225 117z" />
    <glyph glyph-name="aacute" unicode="&#xe1;" horiz-adv-x="1126" 
d="M70 266q0 159 123 234q64 40 110 61q47 21 135 51l74 25q10 3 68 29q42 18 69 41q62 50 62 118q0 49 -26 81t-69 32h-184l-217 -238l-139 357h934l-27 -101v-796l117 -160h-379v182q-62 -92 -160 -147t-201 -55q-128 0 -209 79t-81 207zM557 1477h315l-417 -344zM723 279
v372q-46 -67 -195 -143q-52 -28 -100 -57q-37 -23 -67.5 -67t-30.5 -91q0 -65 40.5 -99t108.5 -34q4 0 11 1l6 1q122 9 227 117z" />
    <glyph glyph-name="atilde" unicode="&#xe3;" horiz-adv-x="1136" 
d="M72 266q0 159 123 234q64 40 110 61q47 21 135 51l74 25q10 3 68 29q42 18 69 41q62 50 62 118q0 49 -26 81t-69 32h-184l-217 -238l-139 357h934l-27 -101v-796l117 -160h-379v182q-62 -92 -160 -147t-201 -55q-128 0 -209 79t-81 207zM821 1409h4q15 -81 -30 -156
q-46 -75 -127 -75q-44 0 -129 43q-76 43 -127 43q-86 0 -107 -88h-4q-15 84 27 157q44 72 131 72q55 0 123 -41q74 -41 125 -41q93 0 114 86zM725 279v372q-46 -68 -193 -143q-76 -38 -135 -86q-63 -51 -63 -129q0 -65 40.5 -99t108.5 -34q1 0 7.5 1t7.5 1q122 9 227 117z
" />
    <glyph glyph-name="aring" unicode="&#xe5;" horiz-adv-x="1136" 
d="M84 266q0 117 78 199q28 32 88 63q58 30 96 45l109 39q7 3 27.5 9.5t26 8.5t21.5 8t21.5 8t17.5 7t18.5 8t17 7.5t19 9.5t17.5 10q86 51 86 135q0 48 -26 81.5t-68 33.5h-184l-218 -238l-139 357h934l-27 -101v-796l117 -160h-379v182q-62 -92 -159.5 -147t-200.5 -55
q-129 0 -211 79t-82 207zM573 1524q94 0 150.5 -54t56.5 -145t-56.5 -146t-150.5 -55q-92 0 -148 55t-56 146t56 145t148 54zM737 279v372q-39 -62 -192 -143q-61 -32 -101 -57q-37 -23 -67.5 -67t-30.5 -91q0 -62 40.5 -97.5t107.5 -35.5q14 0 20 2q121 9 223 117z
M573 1446q-52 0 -88 -33t-36 -88t36.5 -89t89.5 -34t88 33t35 88t-36 89t-89 34z" />
    <glyph glyph-name="ae" unicode="&#xe6;" horiz-adv-x="1830" 
d="M1741 471h-719q12 -168 99.5 -264t224.5 -96q173 0 325 174l60 -49q-188 -261 -465 -261q-149 0 -266 63t-183 181q-205 -239 -436 -239q-131 0 -212 76.5t-81 209.5q0 135 104.5 219.5t323.5 151.5q213 65 213 188q0 45 -25.5 77t-68.5 36h-184l-215 -238l-142 357h846
l-25 -96q147 120 369 120q270 0 387 -176q119 -174 70 -434zM741 279v372q-40 -64 -194 -141q-72 -37 -135 -84q-64 -48 -64 -127q0 -63 44.5 -102t113.5 -39q120 0 235 121zM1282 952q-106 0 -179 -99t-83 -278h471q9 80 -4 164q-13 87 -67.5 150t-137.5 63z" />
    <glyph glyph-name="ccedilla" unicode="&#xe7;" horiz-adv-x="1083" 
d="M831 -250q0 -103 -86 -147q-82 -43 -198 -43q-103 8 -173 65.5t-71 136.5q34 -116 170 -116q63 0 102 29.5t39 78.5q0 52 -39.5 82.5t-97.5 30.5q-29 0 -71 -17l73 134q-211 34 -319 188q-106 150 -103 375q1 253 144.5 388.5t404.5 143.5q8 2 39 2q157 0 340 -39v-358
l-272 272q-8 2 -39 2q-23 0 -29 -2q-154 -12 -233 -141q-80 -130 -80 -299q0 -180 88 -299q89 -118 235 -115q172 0 332 183l60 -49q-187 -261 -488 -261l-6 -55q30 6 59 6q95 0 157 -46.5t62 -129.5z" />
    <glyph glyph-name="eacute" unicode="&#xe9;" horiz-adv-x="1091" 
d="M1047 471h-719q12 -169 99.5 -264.5t225.5 -95.5q172 0 324 174l59 -49q-188 -261 -465 -261q-237 0 -381 150q-141 150 -141 401q-3 256 141 406q143 149 398 149q93 0 170.5 -22.5t132 -62.5t93.5 -95.5t56.5 -123t21 -145.5t-14.5 -161zM580 1520h315l-418 -344z
M594 952q-109 0 -183.5 -99t-84.5 -278h471q9 130 -25 242q-19 63 -65.5 99t-112.5 36z" />
    <glyph glyph-name="eth" unicode="&#xf0;" horiz-adv-x="1214" 
d="M184 1434v65h56q284 0 471 -117l272 140l49 -88l-239 -119q171 -123 263.5 -320.5t92.5 -427.5q0 -267 -150 -430q-151 -160 -411 -160q-251 0 -393 142q-140 143 -140 358q0 203 121 348q122 146 313 146q192 0 320 -119q-8 83 -66 201q-56 115 -118 174l-244 -129
l-55 86l235 116q-128 131 -377 134zM811 735q-26 35 -82.5 61.5t-101.5 26.5q-126 0 -189 -118q-65 -121 -65 -273q0 -149 59 -252q60 -100 164 -100q84 0 139 76q96 130 96 372q0 148 -20 207z" />
    <glyph glyph-name="ograve" unicode="&#xf2;" horiz-adv-x="1228" 
d="M57 528q0 252 152 404q154 151 416 151q264 0 413 -149q152 -152 152 -404q0 -251 -152 -403t-415 -152q-266 0 -416 150t-150 403zM537 1522l102 -346l-420 346h318zM623 971q-134 0 -211.5 -117t-77.5 -326q0 -211 77 -325.5t214 -114.5q135 0 211 117.5t75 331.5
q-1 210 -80 322t-208 112z" />
    <glyph glyph-name="oacute" unicode="&#xf3;" horiz-adv-x="1226" 
d="M49 528q0 252 152 404q154 151 415 151q263 0 412 -149q152 -152 152 -404q0 -251 -152 -403t-414 -152q-265 0 -415 150t-150 403zM664 1518h315l-418 -344zM612 971q-132 0 -209 -117t-77 -326q0 -212 77 -327q76 -113 211 -113q134 0 211 115q81 119 78 334
q-1 211 -80 322.5t-211 111.5z" />
    <glyph glyph-name="otilde" unicode="&#xf5;" horiz-adv-x="1241" 
d="M59 528q0 252 152 404q154 151 416 151t411 -149q152 -152 152 -404q0 -251 -152 -403t-413 -152q-266 0 -416 150t-150 403zM901 1409h4q15 -82 -31 -158q-46 -73 -126 -73q-45 0 -132 43q-76 43 -124 43q-88 0 -109 -88h-4q-9 82 31 155q43 76 125 76q47 0 129 -43
q73 -43 124 -43q89 0 113 88zM623 971q-132 0 -209.5 -117t-77.5 -326q0 -211 78 -327q76 -113 211 -113q134 0 211 115q80 118 77 334q-1 211 -80 322.5t-210 111.5z" />
    <glyph glyph-name="divide" unicode="&#xf7;" horiz-adv-x="892" 
d="M35 702h825v-102h-825v102zM295 293q0 67 41 107t110 40q72 0 114 -39.5t42 -107.5t-42 -108t-114 -40q-67 0 -109 41t-42 107zM295 1012q0 67 41 107t110 40q72 0 114 -39.5t42 -107.5q0 -66 -42 -106t-114 -40q-68 0 -109.5 40t-41.5 106z" />
    <glyph glyph-name="oslash" unicode="&#xf8;" horiz-adv-x="1257" 
d="M633 -25q-97 0 -174 21l-72 -156h-127l88 195q-135 66 -207.5 194t-72.5 299q0 253 151 404q154 151 416 151q89 0 188 -24l58 121h127l-76 -164q129 -66 198.5 -192.5t69.5 -293.5q0 -252 -151 -403q-152 -152 -416 -152zM631 971q-132 0 -209.5 -117t-77.5 -326
q0 -212 86 -321l334 723q-56 41 -133 41zM846 831l-332 -712q54 -31 119 -31q135 0 211.5 115.5t75.5 328.5q0 187 -74 299z" />
    <glyph glyph-name="ugrave" unicode="&#xf9;" horiz-adv-x="1265" 
d="M846 297v600l-113 160h373v-899l117 -158h-377v174q-144 -199 -350 -199q-331 0 -334 433l2 489l-115 160h481l-106 -160v-444q0 -161 42.5 -230t125.5 -69q141 0 254 143zM242 1526h315l105 -346z" />
    <glyph glyph-name="uacute" unicode="&#xfa;" horiz-adv-x="1263" 
d="M844 297v600l-115 160h375v-899l117 -158h-377v174q-144 -199 -352 -199q-158 0 -244.5 107.5t-87.5 325.5v489l-113 160h481l-106 -160v-444q0 -161 42.5 -230t125.5 -69q135 0 254 143zM559 1178l103 344h315z" />
    <glyph glyph-name="yacute" unicode="&#xfd;" 
d="M600 -512h-342l111 168l168 319l-504 1082h499l-118 -197l276 -598l289 543l-139 252h409l-153 -252l-607 -1145zM586 1178l104 344h316z" />
    <glyph glyph-name="thorn" unicode="&#xfe;" horiz-adv-x="1146" 
d="M565 -174h-485l110 160l-2 1325l-112 164l375 61v-322h81q594 0 594 -454q0 -232 -152.5 -353.5t-441.5 -121.5h-81v-299zM451 1116v-733q194 0 298.5 96.5t104.5 284.5q0 352 -403 352z" />
    <glyph glyph-name="Amacron" unicode="&#x100;" horiz-adv-x="1492" 
d="M1464 0h-512l86 184l-106 334h-506l-107 -278l144 -240h-434l155 211l62 127l366 960l-80 136h400l405 -1225zM1130 1542h-804v103h804v-103zM899 621l-205 596h-6l-223 -596h434z" />
    <glyph glyph-name="amacron" unicode="&#x101;" horiz-adv-x="1155" 
d="M76 266q0 59 22.5 112.5t55.5 88.5q28 32 88 63q58 30 96 45l108 39q93 32 154 60q59 30 85 63t32 88q0 39 -19.5 68.5t-54.5 30.5h-190l-230 -224l-141 357h934l-27 -101v-782l129 -174h-391v182q-62 -96 -158 -149t-200 -53q-130 0 -211.5 77.5t-81.5 208.5zM145 1180
v102h805v-102h-805zM729 279v372q-28 -36 -57 -57q-28 -22 -58 -39l-71 -39q-74 -38 -133 -82q-62 -48 -62 -127q0 -64 39.5 -100.5t110.5 -36.5q128 0 231 109z" />
    <glyph glyph-name="Abreve" unicode="&#x102;" horiz-adv-x="1497" 
d="M1466 0h-512l86 184l-106 334h-506l-104 -278l141 -240h-434l157 211l62 127l364 960l-79 136h399l405 -1225zM973 1827h4q6 -38 6 -70q0 -110 -62 -173.5t-171 -63.5q-108 0 -172 63.5t-64 169.5q0 33 8 74h4q1 -75 61 -117.5t163 -42.5t162.5 42.5t60.5 117.5zM901 621
l-205 596h-4l-225 -596h434z" />
    <glyph glyph-name="abreve" unicode="&#x103;" horiz-adv-x="1146" 
d="M61 266q1 134 106.5 219t321.5 150q216 68 216 186q0 39 -22 70.5t-54 32.5h-193l-227 -224l-139 357h929l-22 -101v-782l129 -174h-391v182q-62 -95 -161 -148.5t-204 -53.5q-127 0 -208 77.5t-81 208.5zM815 1499h4q6 -37 6 -72q0 -115 -65 -181t-178 -66t-179.5 65.5
t-66.5 175.5q0 5 6 78h4q6 -78 69 -123t167 -45t166 45t67 123zM717 279l-2 372q-21 -32 -56 -57q-30 -24 -57 -39l-72 -39q-84 -42 -133 -82q-61 -50 -61 -129q0 -62 39 -98.5t108 -36.5q131 0 234 109z" />
    <glyph glyph-name="Aogonek" unicode="&#x104;" horiz-adv-x="1507" 
d="M1444 -174q-25 -85 -86.5 -133.5t-145.5 -48.5t-137 47t-53 119q0 120 137 190h-211l86 184l-106 334h-506l-107 -278l144 -240h-434l155 211l62 127l366 960l-80 136h400l405 -1225l127 -209h-231q-53 -47 -53 -125q0 -61 32.5 -96t89.5 -35q88 0 146 82zM895 621
l-205 596h-6l-223 -596h434z" />
    <glyph glyph-name="aogonek" unicode="&#x105;" horiz-adv-x="1187" 
d="M1122 -174q-23 -85 -84 -133.5t-147 -48.5q-84 0 -136.5 46t-52.5 120q0 120 138 190h-127v182q-66 -96 -160.5 -149t-198.5 -53q-130 0 -212.5 77.5t-82.5 208.5q0 160 125 236q62 39 111 61q77 33 137 51q162 55 215 99q52 49 55 110q0 40 -19.5 70t-53.5 31h-193
l-227 -224l-141 357h933l-26 -101v-782l129 -174h-197q-51 -45 -51 -125q0 -61 33 -96t90 -35q91 0 143 82zM715 279l-2 372q-44 -65 -187 -135q-63 -34 -98 -55q-36 -22 -65 -64.5t-29 -89.5q0 -64 38 -100.5t109 -36.5q128 0 234 109z" />
    <glyph glyph-name="Cacute" unicode="&#x106;" horiz-adv-x="1290" 
d="M1241 1393v-398h-2l-260 330q-93 37 -184 37q-200 0 -313.5 -167.5t-112.5 -467.5q1 -315 115.5 -482t320.5 -167q79 0 174 31l258 325h4v-401q-224 -51 -438 -51q-129 0 -240.5 26t-207.5 83t-163.5 142.5t-106 210t-38.5 279.5q0 364 209 549q210 186 547 186
q219 0 438 -65zM702 1530l103 344h315z" />
    <glyph glyph-name="cacute" unicode="&#x107;" horiz-adv-x="1067" 
d="M979 1042v-358l-270 272q-9 1 -20 2t-18.5 2t-11.5 1q-80 -1 -146.5 -40.5t-107 -102.5t-62 -138.5t-19.5 -151.5q-3 -178 82 -303q86 -123 235 -123q172 0 340 183l57 -49q-98 -136 -212.5 -198.5t-274.5 -62.5q-231 12 -369 168q-134 155 -137 392q-1 261 156.5 403.5
t437.5 142.5q148 0 340 -39zM586 1520h315l-418 -344z" />
    <glyph glyph-name="Ccaron" unicode="&#x10c;" horiz-adv-x="1294" 
d="M1243 1393v-398h-2l-258 330q-98 37 -186 37q-200 0 -312.5 -166t-111.5 -469q1 -315 114.5 -482t319.5 -167q78 0 176 31l258 325h2v-401q-224 -51 -438 -51q-129 0 -240.5 26t-207.5 83t-163.5 142.5t-106 210t-38.5 279.5q0 365 211 549q210 186 545 186
q219 0 438 -65zM430 1933l289 -139l293 139l22 -22l-313 -367h-2l-313 367z" />
    <glyph glyph-name="ccaron" unicode="&#x10d;" horiz-adv-x="1073" 
d="M981 1042v-358l-270 277h-47q-157 0 -246 -127q-88 -125 -88 -304q0 -176 80 -303q79 -125 233 -125q175 0 340 183l59 -49q-100 -137 -214.5 -199t-276.5 -62q-228 12 -365 170q-132 156 -135 390q-3 546 582 546q162 0 348 -39zM557 1425l295 142l22 -25l-313 -366h-4
l-313 366l24 25z" />
    <glyph glyph-name="Dcaron" unicode="&#x10e;" horiz-adv-x="1431" 
d="M1389 719q0 -359 -196.5 -539t-576.5 -180h-544l129 184l-2 1078l-140 172h557q773 0 773 -715zM305 1942l289 -142l295 142l22 -23l-313 -369h-4l-313 369zM623 1331h-127v-1231h127q224 0 342 167t118 462q0 288 -115.5 445t-344.5 157z" />
    <glyph glyph-name="dcaron" unicode="&#x10f;" horiz-adv-x="1634" 
d="M817 952v336l-117 160l377 88v-1364l127 -172h-387v172q-121 -195 -346 -195q-191 0 -307 152q-111 150 -111 385q-3 256 123 406q126 153 326 153q176 0 315 -121zM1413 1262q-60 0 -97.5 38t-37.5 101q0 66 44.5 106.5t113.5 40.5q72 0 113.5 -44t41.5 -118
q0 -112 -90 -225q-89 -111 -201 -135q43 34 78 109t35 127zM596 156q113 0 221 120v539q-103 92 -211 92q-121 0 -197.5 -104.5t-76.5 -284.5q0 -171 72 -266.5t192 -95.5z" />
    <glyph glyph-name="Dcroat" unicode="&#x110;" horiz-adv-x="1505" 
d="M242 791v485l-140 158h557q773 0 773 -715q0 -359 -196.5 -539t-576.5 -180h-544l127 158v528h-158v105h158zM664 1331h-125v-540h213v-105h-213v-586h125q225 0 342.5 165.5t117.5 461.5q0 290 -115.5 447t-344.5 157z" />
    <glyph glyph-name="dslash" unicode="&#x111;" horiz-adv-x="1292" 
d="M807 1133h-143v102h143v53l-117 160l377 88v-301h131v-102h-131v-961l127 -172h-387v172q-121 -195 -346 -195q-191 0 -307 152q-111 150 -111 385q-3 256 123 406q126 153 326 153q176 0 315 -121v181zM598 907q-124 0 -200 -104.5t-76 -284.5q0 -173 71 -268
q73 -94 193 -94q119 0 221 120v539q-103 92 -209 92z" />
    <glyph glyph-name="Emacron" unicode="&#x112;" horiz-adv-x="1277" 
d="M934 471l-186 197h-256v-566h454l271 340v-442h-1149l129 184v1078l-140 172h1139v-447l-270 344h-434v-561h256l186 197v-496zM1063 1571h-805v102h805v-102z" />
    <glyph glyph-name="emacron" unicode="&#x113;" horiz-adv-x="1116" 
d="M1061 471h-721q13 -170 100.5 -265t225.5 -95q174 0 323 174l60 -49q-187 -261 -465 -261q-237 0 -381 150q-142 151 -142 401q-3 253 144 406q143 149 397 149q273 0 387 -172q115 -174 72 -438zM186 1184v102h805v-102h-805zM608 952q-112 0 -186.5 -99t-81.5 -278h471
q9 124 -27 242q-19 63 -64.5 99t-111.5 36z" />
    <glyph glyph-name="Ebreve" unicode="&#x114;" horiz-adv-x="1273" 
d="M932 471l-187 197h-258v-566h457l268 340h2v-442h-1148l127 184v1078l-140 172h1141v-447h-2l-268 344h-437v-561h258l187 197v-496zM881 1825h4q6 -24 6 -70q0 -112 -64 -177t-174 -65t-174.5 64.5t-64.5 173.5q0 37 6 74h4q5 -75 66 -118.5t163 -43.5q103 0 165 43.5
t63 118.5z" />
    <glyph glyph-name="Eogonek" unicode="&#x118;" horiz-adv-x="1271" 
d="M897 -174q-23 -85 -84 -133.5t-147 -48.5q-84 0 -136.5 46t-52.5 120q0 120 137 190h-544l127 184v1078l-140 172h1141v-447h-2l-268 344h-436v-561h258l186 197v-496l-186 197h-258v-566h456l269 340h2v-442h-537q-51 -45 -51 -123q0 -63 33 -98t90 -35q91 0 143 82z
" />
    <glyph glyph-name="eogonek" unicode="&#x119;" horiz-adv-x="1116" 
d="M817 -186q-23 -85 -84 -134t-147 -49q-84 0 -137.5 47t-53.5 119q0 115 121 180q-214 20 -338.5 168t-126.5 381q-3 253 144 406q146 149 399 149q273 0 387 -172q113 -172 70 -438h-719q12 -169 99.5 -264.5t223.5 -95.5q174 0 326 174l57 -49q-182 -255 -448 -261
q-39 -39 -39 -110q0 -63 33 -98t90 -35q91 0 143 82zM598 952q-109 0 -183.5 -99t-84.5 -278h471q9 131 -27 242q-19 63 -64.5 99t-111.5 36z" />
    <glyph glyph-name="Ecaron" unicode="&#x11a;" 
d="M930 471l-187 197h-258v-566h457l268 340h2v-442h-1151l129 184v1078l-139 172h1141v-447h-2l-268 344h-437v-561h258l187 197v-496zM348 1909l289 -140l293 140l22 -23l-313 -368h-2l-313 368z" />
    <glyph glyph-name="ecaron" unicode="&#x11b;" horiz-adv-x="1101" 
d="M1053 471h-719q12 -169 99.5 -264.5t223.5 -95.5q174 0 326 174l57 -49q-188 -261 -465 -261q-236 0 -380 150q-142 151 -142 401q-3 253 144 406q143 149 395 149q112 -1 200 -32.5t144 -87t90 -132t38 -167t-11 -191.5zM571 1436l293 139l23 -23l-314 -366h-2l-313 366
l25 23zM598 952q-110 0 -184.5 -99t-81.5 -278h471q10 134 -27 242q-19 63 -65.5 99t-112.5 36z" />
    <glyph glyph-name="uni0122" unicode="&#x122;" horiz-adv-x="1507" 
d="M911 729h570l-135 -184v-545l-185 47q-201 -63 -385 -63q-339 0 -534 198q-195 201 -195 551q0 348 205 535q205 190 561 190q218 0 430 -63v-400h-2l-260 330q-84 35 -176 35q-188 0 -313 -158q-122 -159 -119 -457q0 -314 126.5 -483.5t358.5 -169.5q92 0 191 27v426z
M719 -362q-57 0 -92 36.5t-35 96.5q0 63 40.5 101t106.5 38q67 0 107.5 -42.5t40.5 -111.5q0 -105 -86 -211q-80 -105 -189 -127q37 32 72 103q35 68 35 117z" />
    <glyph glyph-name="uni0123" unicode="&#x123;" horiz-adv-x="1310" 
d="M1022 930l250 196v-278h-197q49 -82 49 -201q0 -208 -145 -317t-361 -109q-173 0 -311 72q0 -27 2 -33q9 -87 117 -110q101 -19 215 -21q68 0 100.5 -1t80 -6.5t98.5 -17.5q121 -23 186 -88t72 -188q0 -107 -56.5 -187.5t-152.5 -119.5q-174 -78 -385 -78q-11 0 -15 2
q-169 0 -325 53q-88 30 -139.5 87.5t-51.5 133.5q0 158 193 246q-99 59 -117 156q-6 33 0 67q15 93 104 152q-149 119 -149 322q0 208 149 315q149 110 367 110q277 0 422 -157zM637 1466q57 0 92 -37t35 -94q0 -63 -42 -101t-108 -38q-67 0 -106 42t-39 110q0 106 84 213
q82 108 188 129q-42 -37 -73 -103.5t-31 -120.5zM356 659q0 -127 69 -207.5t185 -80.5q115 0 177.5 78.5t62.5 201.5q0 127 -65.5 209t-180.5 82t-181.5 -78.5t-66.5 -204.5zM956 -268q0 86 -110 123q-88 27 -234 39q-22 1 -84 8q-118 9 -174 24q-102 -64 -102 -170
q4 -60 42.5 -103.5t100.5 -64.5q118 -39 234 -39q55 2 139 21q75 15 131.5 59.5t56.5 102.5z" />
    <glyph glyph-name="Hbar" unicode="&#x126;" horiz-adv-x="1630" 
d="M498 1262v-471h639v471l-142 172h572l-135 -172v-1078l139 -184h-563l129 184v504h-639v-504l139 -184h-563l129 184v1078l-142 172h572zM1219 1544h-805v103h805v-103z" />
    <glyph glyph-name="hbar" unicode="&#x127;" horiz-adv-x="1284" 
d="M459 768l2 -610l112 -158h-483l111 158l-2 999h-121v103h121l-17 53l-90 137l367 86v-276h149v-103h-149v-233q157 145 350 145q151 0 238 -92.5t94 -267.5q2 -35 2 -162v-389l112 -158h-481l107 158v475q0 130 -46 197t-128 67q-110 0 -248 -129z" />
    <glyph glyph-name="Itilde" unicode="&#x128;" horiz-adv-x="663" 
d="M608 1434l-123 -172v-1078l138 -184h-560l127 184l-2 1078l-135 172h555zM594 1802h4q15 -82 -31 -157q-47 -74 -127 -74q-44 0 -131 43q-76 43 -125 43q-87 0 -108 -88h-4q2 105 39 168t114 63q49 0 131 -43q73 -43 125 -43q89 0 113 88z" />
    <glyph glyph-name="itilde" unicode="&#x129;" horiz-adv-x="600" 
d="M76 1016l364 92v-950l127 -158h-508l121 158v708zM563 1436h4q15 -81 -32 -158q-47 -74 -127 -74q-44 0 -129 43t-125 43q-88 0 -109 -88h-4q-9 83 31 156q40 76 125 76q44 0 129 -43q73 -43 125 -43q88 0 112 88z" />
    <glyph glyph-name="Imacron" unicode="&#x12a;" horiz-adv-x="849" 
d="M698 1434l-123 -172v-1078l138 -184h-559l127 184l-2 1078l-136 172h555zM829 1528h-804v102h804v-102z" />
    <glyph glyph-name="imacron" unicode="&#x12b;" horiz-adv-x="843" 
d="M184 1016l365 92v-950l127 -158h-508l121 158v708zM825 1180h-805v102h805v-102z" />
    <glyph glyph-name="Ibreve" unicode="&#x12c;" horiz-adv-x="731" 
d="M639 1434l-125 -166v-1098l139 -170h-557l125 164l-2 1104l-135 166h555zM369 1659q97 0 155 41.5t62 114.5h2q8 -31 8 -72q0 -103 -61 -164t-166 -61q-103 0 -163.5 60t-62.5 161q-3 31 4 76h5q5 -74 62 -115t155 -41z" />
    <glyph glyph-name="ibreve" unicode="&#x12d;" horiz-adv-x="667" 
d="M98 1016l367 92v-950l127 -158h-510l121 158v708zM524 1466h4q4 -28 4 -63q0 -106 -59.5 -167.5t-163.5 -61.5q-100 0 -160.5 60.5t-60.5 160.5q0 9 4 71h4q5 -72 60.5 -112.5t152.5 -40.5t153.5 40.5t61.5 112.5z" />
    <glyph glyph-name="Iogonek" unicode="&#x12e;" horiz-adv-x="704" 
d="M580 -174q-23 -85 -84.5 -133.5t-147.5 -48.5q-84 0 -136 46t-52 120q0 120 137 190h-234l127 184l-2 1078l-135 172h555l-125 -172v-1078l140 -184h-258q-52 -46 -52 -123q0 -63 33 -98t90 -35q92 0 144 82z" />
    <glyph glyph-name="iogonek" unicode="&#x12f;" horiz-adv-x="612" 
d="M537 -170q-25 -86 -86 -134t-146 -48t-137.5 46t-52.5 120q0 116 131 186h-193l121 158v708l-104 150l364 92v-950l127 -158h-244q-47 -44 -47 -119q0 -63 32 -99t89 -36q89 0 146 84zM285 1219l-185 163l172 209l189 -172z" />
    <glyph glyph-name="dotlessi" unicode="&#x131;" horiz-adv-x="583" 
d="M63 1016l365 92v-950l127 -158h-508l121 158v708z" />
    <glyph glyph-name="IJ" unicode="&#x132;" horiz-adv-x="1433" 
d="M614 1434l-122 -172v-1078l137 -184h-557l125 184l-2 1078l-136 172h555zM1376 1434l-135 -172v-727q0 -477 -115 -648q-114 -172 -444 -172v68q158 0 211 121t53 469v889l-139 172h569z" />
    <glyph glyph-name="ij" unicode="&#x133;" horiz-adv-x="1095" 
d="M53 1016l365 92v-950l127 -158h-508l121 158v708zM725 33l-2 833l-105 138l367 104v-950q0 -165 -10.5 -267.5t-38.5 -185.5q-38 -125 -132.5 -180t-266.5 -55v61q79 6 120 68q41 59 54.5 152.5t13.5 281.5zM268 1219l-184 163l172 209l188 -172zM819 1591l189 -172
l-174 -200l-187 163z" />
    <glyph glyph-name="uni0136" unicode="&#x136;" horiz-adv-x="1492" 
d="M477 748l527 499l-121 187h471l-508 -476l461 -776l166 -182h-375l-457 772l-164 -158v-444l139 -170h-559l125 164v1104l-135 166h569l-139 -166v-520zM739 -362q-55 0 -91 38t-36 95q0 63 41 101t107 38q69 0 108 -41t39 -113q0 -105 -86 -211q-81 -106 -188 -127
q37 32 72 103q34 67 34 117z" />
    <glyph glyph-name="uni0137" unicode="&#x137;" horiz-adv-x="1253" 
d="M422 582l389 297l-109 176h492l-442 -334l321 -547l168 -174h-364l-336 567l-119 -94v-315l113 -158h-486l111 158v1132l-107 158l369 88v-954zM627 -362q-57 0 -93 36.5t-36 96.5q0 63 41.5 101t107.5 38t107 -42.5t41 -111.5q0 -105 -86 -211q-81 -106 -191 -127
q40 34 74 103q35 68 35 117z" />
    <glyph glyph-name="kgreenlandic" unicode="&#x138;" horiz-adv-x="1310" 
d="M449 582l389 297l-107 176h494l-445 -334l320 -547l168 -174h-363l-338 567l-118 -94v-315l114 -158h-483l108 158v714l-106 162l367 86v-538z" />
    <glyph glyph-name="Lacute" unicode="&#x139;" horiz-adv-x="1185" 
d="M639 1434l-147 -172v-1160h411l271 340v-442h-1102l125 184v1078l-138 172h580zM270 1507l103 344h315z" />
    <glyph glyph-name="lacute" unicode="&#x13a;" horiz-adv-x="976" 
d="M72 1448l368 88v-1378l115 -158h-485l110 158l-2 1130zM553 1090l102 344h316z" />
    <glyph glyph-name="uni013B" unicode="&#x13b;" horiz-adv-x="1165" 
d="M623 1434l-148 -166v-1166h414l270 340v-442h-1104l125 164l-2 1104l-133 166h578zM580 -362q-55 0 -91 38t-36 95q0 63 41.5 101t107.5 38q67 0 107.5 -42.5t40.5 -111.5q0 -105 -86 -211q-80 -105 -189 -127q37 32 72 103q33 65 33 117z" />
    <glyph glyph-name="uni013C" unicode="&#x13c;" horiz-adv-x="542" 
d="M37 1448l366 88v-1378l115 -158h-483l110 158l-2 1130zM256 -362q-57 0 -92 36.5t-35 96.5q0 63 40.5 101t106.5 38q67 0 107.5 -42.5t40.5 -111.5q0 -105 -86 -211q-81 -106 -188 -127q35 30 71 103q35 68 35 117z" />
    <glyph glyph-name="Lcaron" unicode="&#x13d;" horiz-adv-x="1306" 
d="M651 1434l-147 -172v-1160h414l270 340v-442h-1102l125 184l-2 1078l-135 172h577zM983 1098q-60 0 -97.5 38t-37.5 101q0 66 44.5 107.5t113.5 41.5q72 0 113.5 -44t41.5 -119q0 -110 -90 -226q-88 -111 -201 -135q43 37 78 109q35 75 35 127z" />
    <glyph glyph-name="lcaron" unicode="&#x13e;" horiz-adv-x="960" 
d="M72 1448l366 88v-1378l115 -158h-485l110 158l-2 1130zM764 1100q-61 0 -98 38.5t-37 100.5q0 67 43 108.5t112 41.5q72 0 115 -44t43 -118q0 -112 -90 -228q-89 -112 -203 -133q43 34 78 109q37 73 37 125z" />
    <glyph glyph-name="Ldot" unicode="&#x13f;" horiz-adv-x="1255" 
d="M651 1434l-147 -172v-1160h414l270 340v-442h-1102l125 184l-2 1078l-135 172h577zM987 1071q72 0 116 -43.5t44 -112.5t-44 -111t-116 -42q-69 0 -112.5 42t-43.5 111t43.5 112.5t112.5 43.5z" />
    <glyph glyph-name="ldot" unicode="&#x140;" horiz-adv-x="989" 
d="M72 1448l368 88v-1378l115 -158h-485l110 158l-2 1130zM829 1024q72 0 116 -42.5t44 -111.5t-44 -111t-116 -42q-69 0 -112 42t-43 111t43 111.5t112 42.5z" />
    <glyph glyph-name="Lslash" unicode="&#x141;" horiz-adv-x="1376" 
d="M662 776v-674h413l268 340v-442h-1101l125 184v410l-267 -168l-55 88l322 201v547l-136 172h578l-147 -172v-365l241 152l55 -86z" />
    <glyph glyph-name="lslash" unicode="&#x142;" horiz-adv-x="958" 
d="M350 1288l-106 160l366 88v-657l277 170l53 -86l-330 -205v-600l115 -158h-483l110 158l-2 438l-268 -170l-55 88l323 203v571z" />
    <glyph glyph-name="Nacute" unicode="&#x143;" horiz-adv-x="1540" 
d="M449 0h-357l125 184v1041l-162 209h381l819 -1149v983l-125 166h357l-129 -166v-1268h-252l-787 1098v-914zM702 1507l103 344h315z" />
    <glyph glyph-name="nacute" unicode="&#x144;" horiz-adv-x="1257" 
d="M776 1071q329 0 332 -430v-483l111 -158h-480l107 158v450q0 303 -189 303q-112 0 -233 -112v-641l115 -158h-488l113 160l-2 700l-107 160l369 86v-184q155 149 352 149zM526 1130l103 345h315z" />
    <glyph glyph-name="uni0145" unicode="&#x145;" horiz-adv-x="1458" 
d="M440 0h-356l125 164v1061l-162 209h381l758 -1149v983l-125 166h356l-129 -166v-1268h-244l-733 1110v-940zM686 -362q-57 0 -93 36.5t-36 96.5q0 63 42 101t108 38q67 0 107 -42.5t40 -111.5q0 -105 -86 -211q-81 -106 -188 -127q37 27 73 101q33 67 33 119z" />
    <glyph glyph-name="uni0146" unicode="&#x146;" horiz-adv-x="1243" 
d="M770 1071q327 -3 330 -430v-483l110 -158h-479l107 158v450q0 289 -174 289q-110 0 -248 -129v-610l114 -158h-487l113 160l-2 700l-107 160l369 86v-184q155 149 354 149zM608 -362q-57 0 -93 36.5t-36 96.5q0 63 42 101t108 38q67 0 107 -42.5t40 -111.5
q0 -105 -86 -211q-81 -106 -188 -127q35 30 71 103q35 68 35 117z" />
    <glyph glyph-name="Ncaron" unicode="&#x147;" horiz-adv-x="1540" 
d="M451 0h-357l125 184v1041l-162 209h381l819 -1149v983l-124 166h356l-129 -166v-1268h-252l-786 1098v-914zM481 1874l289 -141l295 141l22 -25l-313 -366h-4l-313 366z" />
    <glyph glyph-name="ncaron" unicode="&#x148;" horiz-adv-x="1263" 
d="M778 1071q331 0 334 -430l-2 -483l113 -158h-482l107 158l2 450q0 303 -188 303q-116 0 -234 -112v-641l113 -158h-486l113 160l-2 700l-107 160l369 86v-184q155 149 350 149zM344 1575l289 -139l293 139l22 -23l-313 -366h-2l-314 366z" />
    <glyph glyph-name="Eng" unicode="&#x14a;" horiz-adv-x="1406" 
d="M1012 309v668q0 182 -44.5 257t-156.5 75q-97 0 -197 -47q-94 -46 -147 -93v-1011l115 -158h-521l111 160l-2 1102l-107 131l404 73v-174q77 70 206 117t265 47q199 -2 291.5 -120t91.5 -371v-494q0 -223 -24.5 -356t-88.5 -230q-65 -102 -181.5 -146t-307.5 -44v61
q182 3 237 127q56 124 56 426z" />
    <glyph glyph-name="eng" unicode="&#x14b;" horiz-adv-x="1187" 
d="M844 160v448q0 303 -187 303q-115 0 -233 -112v-641l113 -158h-486l111 160l-2 700l-105 160l369 86v-184q155 149 352 149q327 -3 330 -430v-414q3 -288 -92 -409q-92 -121 -330 -121v57q56 1 90.5 41t52 129t17.5 236z" />
    <glyph glyph-name="Omacron" unicode="&#x14c;" horiz-adv-x="1595" 
d="M799 1468q326 0 530 -198q207 -198 207 -551t-209 -553q-206 -197 -528 -197t-531 197q-207 201 -207 553q0 353 207 551t531 198zM393 1565v102h805v-102h-805zM383 719q0 -306 113 -473.5t303 -167.5q195 0 303 168.5t108 474.5q0 307 -111.5 472t-301.5 165
q-195 0 -304.5 -168.5t-109.5 -470.5z" />
    <glyph glyph-name="omacron" unicode="&#x14d;" horiz-adv-x="1249" 
d="M63 528q0 252 152 404q154 151 416 151t411 -149q152 -152 152 -404q0 -251 -152 -403t-413 -152q-266 0 -416 150t-150 403zM223 1180v102h805v-102h-805zM627 971q-132 0 -209.5 -117t-77.5 -326q0 -211 78 -327q76 -113 211 -113q134 0 211 115q81 119 78 334
q-1 211 -80 322.5t-211 111.5z" />
    <glyph glyph-name="Obreve" unicode="&#x14e;" horiz-adv-x="1583" 
d="M797 -31q-324 0 -533 197q-207 201 -207 553q0 353 207 551t533 198q324 0 528 -198q207 -198 207 -551q0 -352 -207 -553q-206 -197 -528 -197zM1008 1855h4q6 -38 6 -67q0 -110 -63 -173t-169 -63t-169.5 62t-63.5 166q0 31 8 75h2q4 -75 63.5 -117t159.5 -42
q101 0 161 42.5t61 116.5zM381 719q0 -306 112 -473.5t302 -167.5q195 0 303 168t108 475t-111.5 472t-301.5 165q-196 0 -304 -167t-108 -472z" />
    <glyph glyph-name="obreve" unicode="&#x14f;" horiz-adv-x="1236" 
d="M59 528q0 252 152 404q154 151 416 151t411 -149q152 -152 152 -404q0 -251 -152 -403t-413 -152q-266 0 -416 150t-150 403zM846 1477h4q6 -35 6 -68q0 -110 -62 -172.5t-171 -62.5t-171.5 61.5t-62.5 167.5q0 39 6 74h4q5 -74 64.5 -116t159.5 -42t159 42t64 116z
M623 971q-132 0 -209.5 -117t-77.5 -326q0 -211 77 -325.5t214 -114.5q135 0 211 117.5t75 331.5q-1 211 -80 322.5t-210 111.5z" />
    <glyph glyph-name="OE" unicode="&#x152;" horiz-adv-x="2357" 
d="M1538 770h260l187 197v-496l-187 197h-260v-566h459l266 340h4v-442h-1141l54 72q-136 -103 -353 -103q-321 0 -532 199t-211 551q0 350 213 551q210 198 539 198q35 0 63 -4q168 -15 295 -110l-39 80h1100v-447h-4l-266 344h-447v-561zM836 1358q-198 0 -313 -170.5
t-115 -470.5q0 -303 117.5 -471t312.5 -168q155 0 260 112t143 302q4 98 4 108v246q0 6 -4 108q-37 187 -145 295.5t-260 108.5z" />
    <glyph glyph-name="oe" unicode="&#x153;" horiz-adv-x="2029" 
d="M1942 471h-719q12 -169 99.5 -264.5t223.5 -95.5q174 0 326 174l57 -49q-181 -261 -463 -261q-247 0 -391 166q-147 -166 -422 -166q-263 0 -413 150q-152 152 -152 403q0 252 152 404q154 151 415 151q273 0 422 -165q138 163 404 163q275 0 389 -172q115 -174 72 -438z
M938 516q0 219 -80 337t-209 118q-132 0 -208 -116t-76 -325q-1 -211 75 -326.5t211 -115.5t211 111.5t76 316.5zM1489 952q-109 0 -183.5 -99t-84.5 -278h471q5 46 6.5 96.5t-13 101t-37 90t-64 64.5t-95.5 25z" />
    <glyph glyph-name="Racute" unicode="&#x154;" horiz-adv-x="1495" 
d="M1038 590l273 -424l155 -166h-399l-381 643h-192v-459l139 -184h-565l131 184v1078l-142 172h652q288 0 436.5 -100t148.5 -287q0 -176 -123.5 -280.5t-345.5 -121.5zM555 1516l102 344h316zM664 1331h-170v-586h170q149 0 236.5 78t88.5 224q0 284 -325 284z" />
    <glyph glyph-name="racute" unicode="&#x155;" horiz-adv-x="1001" 
d="M567 0h-512l115 160v731l-127 166h956l-127 -326l-286 215h-56q-57 0 -77.5 -25t-20.5 -92v-671zM473 1511h315l-417 -344z" />
    <glyph glyph-name="uni0156" unicode="&#x156;" horiz-adv-x="1433" 
d="M1026 590l221 -424l156 -166h-397l-332 643h-193v-485l140 -158h-566l129 158v1118l-139 158h651q287 0 435.5 -100t148.5 -287q0 -175 -124 -280t-343 -122zM690 -362q-55 0 -91 38t-36 95q0 63 42 101t108 38q67 0 107 -42.5t40 -111.5q0 -105 -86 -211
q-81 -106 -188 -127q35 30 71 103q33 65 33 117zM651 1331h-170v-586h170q147 0 235 78t89 224q1 141 -83 212.5t-241 71.5z" />
    <glyph glyph-name="uni0157" unicode="&#x157;" horiz-adv-x="1013" 
d="M578 0h-510l114 160v731l-127 166h955l-127 -326l-287 215h-64q-51 0 -70.5 -25.5t-19.5 -91.5v-671zM295 -362q-55 0 -91 38t-36 95q0 63 41.5 101t107.5 38q67 0 107.5 -42.5t40.5 -111.5q0 -105 -86 -211q-81 -106 -191 -127q39 29 74 101q33 67 33 119z" />
    <glyph glyph-name="Rcaron" unicode="&#x158;" horiz-adv-x="1497" 
d="M1040 590l271 -424l155 -166h-397l-381 643h-192v-459l139 -184h-565l129 184v1078l-142 172h654q287 0 435 -100t148 -287q0 -175 -124 -280t-343 -122zM324 1925l288 -139l295 139l23 -22l-314 -367h-4l-313 367zM666 1331h-170v-586h170q146 0 234 78t89 224
q0 284 -323 284z" />
    <glyph glyph-name="rcaron" unicode="&#x159;" horiz-adv-x="1009" 
d="M571 0h-510l115 160v731l-127 166h955l-127 -326l-287 215h-55q-56 0 -77.5 -25.5t-21.5 -91.5v-671zM516 1405l293 141l22 -22l-313 -369h-2l-313 369l22 22z" />
    <glyph glyph-name="uni0162" unicode="&#x162;" horiz-adv-x="1343" 
d="M1323 987h-2l-268 344h-230v-1161l140 -170h-560l125 170v1161h-231l-268 -344h-2v447h1296v-447zM655 -362q-57 0 -92 36.5t-35 96.5q0 63 41 101t107 38q67 0 107 -42.5t40 -111.5q0 -105 -86 -211q-81 -106 -188 -127q37 32 72 103q34 67 34 117z" />
    <glyph glyph-name="uni0163" unicode="&#x163;" horiz-adv-x="710" 
d="M666 170l34 -43q-125 -152 -301 -152q-112 0 -180 72t-69 201l-3 706h-114v39l373 369v-305h219v-103h-213v-675q0 -79 20 -118.5t72 -45.5q86 0 162 55zM346 -362q-57 0 -92 36.5t-35 96.5q0 63 41 101t107 38q69 0 108 -41t39 -113q0 -105 -86 -211q-81 -106 -188 -127
q35 30 71 103q35 68 35 117z" />
    <glyph glyph-name="Tbar" unicode="&#x166;" horiz-adv-x="1384" 
d="M424 0l125 184v473h-232v103h232v571h-232l-268 -344h-2v447h1296v-447l-270 344h-229v-571h227v-103h-227v-473l139 -184h-559z" />
    <glyph glyph-name="tbar" unicode="&#x167;" horiz-adv-x="770" 
d="M457 659h170v-102h-170v-278q0 -79 22 -125q17 -28 52 -37.5t83.5 3.5t96.5 50l34 -43q-125 -152 -301 -152q-114 0 -181.5 72t-67.5 201v309h-117v102h117l-2 295h-115v39l373 369v-305h219v-103h-213v-295z" />
    <glyph glyph-name="Utilde" unicode="&#x168;" horiz-adv-x="1523" 
d="M1118 1434h357l-129 -174v-650q-3 -341 -127 -489q-123 -150 -420 -150q-332 0 -471 160q-140 166 -140 526v605l-135 172h570l-140 -172v-627q0 -303 82 -428t277 -125q215 0 307 135.5t94 421.5v621zM1063 1778h4q13 -86 -33 -158q-47 -74 -127 -74q-53 0 -129 43
q-85 43 -125 43q-87 0 -108 -88h-4q-12 80 28 156q43 76 127 76q49 0 129 -45q77 -41 125 -41q86 0 113 88z" />
    <glyph glyph-name="utilde" unicode="&#x169;" horiz-adv-x="1267" 
d="M848 297v600l-115 160h375v-899l117 -158h-377v174q-144 -199 -352 -199q-158 0 -244.5 107.5t-87.5 325.5v489l-113 160h481l-106 -160v-444q0 -161 42.5 -230t125.5 -69q135 0 254 143zM879 1401h4q15 -81 -33 -156q-47 -74 -127 -74q-53 0 -129 43q-84 41 -125 41
q-88 0 -109 -86h-4q-12 80 29 154q43 76 127 76q53 0 129 -43q77 -41 125 -41q86 0 113 86z" />
    <glyph glyph-name="Umacron" unicode="&#x16a;" horiz-adv-x="1531" 
d="M1122 1434h357l-129 -174v-650q-3 -340 -125 -489q-123 -150 -420 -150q-331 0 -473 160q-139 165 -139 526v605l-136 172h570l-140 -172v-627q0 -303 82 -428t279 -125q145 0 233.5 63t126.5 183t39 311v621zM1231 1534h-805v102h805v-102z" />
    <glyph glyph-name="umacron" unicode="&#x16b;" horiz-adv-x="1280" 
d="M850 297v600l-113 160h375v-899l117 -158h-379v174q-144 -199 -350 -199q-158 0 -245 108t-87 325v489l-113 160h480l-105 -160l-2 -444q0 -160 43 -229.5t125 -69.5q141 0 254 143zM1034 1180h-805v102h805v-102z" />
    <glyph glyph-name="Ubreve" unicode="&#x16c;" horiz-adv-x="1521" 
d="M1116 1434h357l-130 -174v-650q-3 -341 -124 -489q-123 -150 -420 -150q-331 0 -473 160q-140 166 -140 526v605l-135 172h570l-140 -172v-627q0 -303 82 -428t279 -125q145 0 233.5 63t126.5 183t39 311v621zM1044 1874h5q27 -131 -39 -227q-65 -95 -207 -95
q-135 0 -195 88.5t-39 233.5h4q6 -80 68 -124t168 -44t168.5 44.5t66.5 123.5z" />
    <glyph glyph-name="ubreve" unicode="&#x16d;" horiz-adv-x="1269" 
d="M846 297v600l-113 160h375v-899l117 -158h-379v174q-144 -199 -350 -199q-158 0 -245 108t-87 325v489l-113 160h479l-104 -160l-2 -444q0 -160 43 -229.5t125 -69.5q141 0 254 143zM633 1292q105 0 167.5 44t63.5 122h4q27 -130 -39 -223q-65 -92 -202 -92
q-131 0 -190 87t-38 228h4q4 -78 65.5 -122t164.5 -44z" />
    <glyph glyph-name="Uring" unicode="&#x16e;" horiz-adv-x="1515" 
d="M1112 1434h356l-129 -174v-650q0 -340 -125 -489q-123 -150 -419 -150q-331 0 -473 160q-140 166 -140 526v605l-135 172h569l-139 -172v-627q0 -303 82 -428t279 -125q215 0 307 135.5t92 421.5v621zM825 1933q94 0 150.5 -54t56.5 -144q0 -91 -56.5 -146t-150.5 -55
q-92 0 -148 55t-56 146q0 90 55.5 144t148.5 54zM825 1855q-52 0 -88.5 -32.5t-36.5 -87.5t37 -89t90 -34t88 33t35 88t-36 88.5t-89 33.5z" />
    <glyph glyph-name="uring" unicode="&#x16f;" 
d="M842 299v598l-115 160h377v-897l117 -158h-379v172q-144 -200 -353 -197q-329 0 -329 433v487l-113 160h479l-104 -160l-2 -444q0 -160 43 -229.5t125 -69.5q139 0 254 145zM623 1524q94 0 150 -54t56 -145t-56 -146t-150 -55q-92 0 -148.5 55t-56.5 146q0 90 56 144.5
t149 54.5zM623 1446q-52 0 -88.5 -33t-36.5 -88t37 -89t90 -34t88 33t35 88t-36 89t-89 34z" />
    <glyph glyph-name="Uhungarumlaut" unicode="&#x170;" horiz-adv-x="1527" 
d="M1116 1434h357l-130 -174v-650q-3 -341 -124 -489q-123 -150 -420 -150q-331 0 -473 160q-140 166 -140 526v605l-135 172h570l-140 -172v-627q0 -303 82 -428t279 -125q145 0 233.5 63t126.5 183t39 311v621zM557 1511l98 365h328zM901 1511l135 365h344z" />
    <glyph glyph-name="uhungarumlaut" unicode="&#x171;" horiz-adv-x="1275" 
d="M846 297v600l-113 160h375v-899l117 -158h-379v174q-144 -199 -350 -199q-158 0 -245 108t-87 325v489l-113 160h479l-104 -160l-2 -444q0 -160 43 -229.5t125 -69.5q141 0 254 143zM348 1161l101 363h325zM694 1161l135 363h345z" />
    <glyph glyph-name="Uogonek" unicode="&#x172;" horiz-adv-x="1521" 
d="M1133 -219q-29 -105 -104 -164t-179 -59q-103 0 -167.5 56t-64.5 146q0 128 123 211q-298 15 -426 176q-127 165 -127 510v605l-135 172h570l-140 -172v-627q0 -277 77.5 -410.5t262.5 -140.5q6 -2 27 -2q95 0 166.5 30.5t114 80t68.5 124t35 150.5t9 172v621l-125 174
h357l-129 -174v-650q0 -329 -116.5 -482t-383.5 -159q-39 -51 -39 -127q0 -78 40 -121t109 -43q109 0 177 103z" />
    <glyph glyph-name="uogonek" unicode="&#x173;" horiz-adv-x="1304" 
d="M1204 -174q-23 -85 -84 -133.5t-147 -48.5q-84 0 -137.5 47t-53.5 119q0 118 140 190h-86v174q-144 -199 -351 -199q-330 0 -333 433l2 489l-115 160h481l-104 -160l-2 -444q0 -160 43 -229.5t125 -69.5q141 0 254 143v600l-113 160h373v-899l118 -158h-225
q-51 -45 -51 -123q0 -63 33 -98t90 -35q91 0 143 82z" />
    <glyph glyph-name="Zacute" unicode="&#x179;" horiz-adv-x="1267" 
d="M141 0l-96 203l868 1128h-479l-158 -327l-186 430h1038l101 -177l-889 -1155h520l215 340l135 -442h-1069zM670 1858h315l-418 -345z" />
    <glyph glyph-name="zacute" unicode="&#x17a;" horiz-adv-x="1048" 
d="M80 0l-41 98l635 856h-258l-205 -254l-139 357h882l62 -76l-651 -879h299l206 289l129 -391h-919zM549 1516h315l-418 -345z" />
    <glyph glyph-name="Zcaron" unicode="&#x17d;" horiz-adv-x="1271" 
d="M147 0l-96 203l869 1128h-480l-159 -327l-185 430h1039l100 -177l-889 -1155h520l215 340l136 -442h-1070zM672 1772l293 139l22 -23l-313 -366h-2l-314 366l25 23z" />
    <glyph glyph-name="zcaron" unicode="&#x17e;" horiz-adv-x="1056" 
d="M84 0l-41 98l635 856h-258l-205 -254l-139 357h882l62 -76l-651 -879h299l209 289l127 -391h-920zM530 1415l293 139l23 -22l-314 -367h-2l-313 367l25 22z" />
    <glyph glyph-name="Dbar" unicode="&#x189;" horiz-adv-x="1525" 
d="M264 791v485l-139 158h555q772 0 772 -715q0 -359 -196 -539t-576 -180h-545l129 158v528h-196v105h196zM686 1331h-127v-540h232v-105h-232v-586h127q225 0 343 166t118 461q0 290 -116 447t-345 157z" />
    <glyph glyph-name="Acaron" unicode="&#x1cd;" horiz-adv-x="1488" 
d="M1462 0h-512l94 158l-114 360h-506l-115 -305l152 -213h-434l178 233l405 1065l-80 136h400l416 -1254zM750 1792l307 147l24 -24l-327 -383h-4l-326 383l25 24zM897 621l-205 596h-6l-223 -596h434z" />
    <glyph glyph-name="acaron" unicode="&#x1ce;" horiz-adv-x="1136" 
d="M57 266q0 138 97 224t299 145q122 38 182.5 81.5t60.5 108.5q0 37 -21 67.5t-52 31.5h-189l-231 -224l-140 357h930l-22 -101v-782l129 -174h-393v182q-62 -95 -160 -148.5t-203 -53.5q-127 0 -207.5 77.5t-79.5 208.5zM555 1425l307 146l25 -25l-328 -383h-4l-326 383
l25 25zM709 279v372q-40 -58 -185 -135q-84 -42 -133 -82q-61 -50 -61 -129q0 -63 38 -99t109 -36q129 0 232 109z" />
    <glyph glyph-name="Icaron" unicode="&#x1cf;" horiz-adv-x="737" 
d="M643 1434l-125 -166v-1098l139 -170h-559l125 164l-2 1104l-133 166h555zM371 1804l307 148l22 -25l-325 -383h-4l-328 383l27 25z" />
    <glyph glyph-name="icaron" unicode="&#x1d0;" horiz-adv-x="710" 
d="M121 1016l364 92v-950l127 -158h-508l121 158v708zM313 1438l308 145l24 -24l-328 -383h-4l-325 383l24 24z" />
    <glyph glyph-name="Ocaron" unicode="&#x1d1;" horiz-adv-x="1603" 
d="M807 1468q324 0 534 -198q211 -196 211 -551q0 -350 -213 -551q-211 -199 -534 -199q-325 0 -539 199q-213 201 -213 553q0 351 213 549t541 198zM805 1831l305 145l25 -22l-328 -385h-2l-328 385l27 22zM379 717q0 -310 119 -475q120 -164 307 -164q197 0 310.5 171
t113.5 472q0 308 -121 473q-120 164 -305 164q-197 0 -310.5 -170t-113.5 -471z" />
    <glyph glyph-name="ocaron" unicode="&#x1d2;" horiz-adv-x="1230" 
d="M53 528q0 252 152 404q154 151 416 151q264 0 413 -149q152 -152 152 -404q0 -251 -152 -403t-416 -152q-265 0 -415 150t-150 403zM616 1432l308 145l22 -25l-325 -381h-5l-327 381l26 25zM618 971q-134 0 -211 -117t-77 -326q0 -211 78 -327q76 -113 213 -113
q133 0 210 115q79 121 76 334q-1 210 -80.5 322t-208.5 112z" />
    <glyph glyph-name="Ucaron" unicode="&#x1d3;" horiz-adv-x="1517" 
d="M1114 1434h356l-129 -174v-650q-3 -341 -124 -489q-123 -150 -420 -150q-331 0 -473 160q-140 166 -140 526v605l-135 172h569l-139 -172v-627q0 -303 82 -428t279 -125q205 0 301.5 132t97.5 425v621zM758 1808l307 148l22 -25l-325 -383h-4l-326 383l25 25z" />
    <glyph glyph-name="ucaron" unicode="&#x1d4;" 
d="M842 297v600l-113 160h373v-899l117 -158h-377v174q-144 -199 -350 -199q-331 0 -334 433l2 489l-113 160h481l-108 -160v-444q0 -161 42.5 -231t125.5 -70q136 0 254 145zM633 1438l305 145l25 -24l-328 -383h-2l-328 383l27 24z" />
    <glyph glyph-name="Gacute" unicode="&#x1f4;" horiz-adv-x="1529" 
d="M918 729h569l-135 -184v-545l-185 47q-201 -63 -385 -63q-342 0 -534 198q-195 201 -195 553q0 336 193 520q192 186 520 201q14 2 63 2q213 0 420 -63v-400h-2l-260 330q-84 35 -176 35q-188 0 -313 -158q-122 -159 -119 -457q0 -314 126.5 -483.5t358.5 -169.5
q96 0 191 27v426zM750 1872h315l-418 -344z" />
    <glyph glyph-name="gacute" unicode="&#x1f5;" horiz-adv-x="1327" 
d="M1028 930l250 196v-278h-197q49 -82 49 -201q0 -195 -137 -311q-136 -115 -364 -115q-181 0 -316 72q-12 -51 21.5 -82.5t91.5 -54.5q36 -12 80 -17q102 -9 156 -10q16 -1 147 -8q42 -2 133 -23q76 -17 125 -47q49 -32 82.5 -89t34.5 -130q3 -130 -80 -219
q-80 -86 -196 -124t-279 -44h-37h-43q-213 3 -352 80q-136 74 -136 199q0 155 191 241q-98 43 -119 154q-21 134 107 221q-150 117 -150 319q0 195 141 312q140 116 375 116q274 0 422 -157zM559 1167l113 308h329zM365 662q0 -135 68 -212t185 -77q115 0 177.5 73t62.5 203
q0 131 -67 212t-181 81t-179.5 -78t-65.5 -202zM965 -262q0 66 -72 106q-26 14 -78 27q-58 13 -172 23q-189 9 -283 32q-108 -71 -102 -166q3 -71 66 -122q107 -89 278 -89q115 0 225 37q63 19 100.5 59t37.5 93z" />
    <glyph glyph-name="Ngrave" unicode="&#x1f8;" horiz-adv-x="1474" 
d="M449 0h-357l125 164v1061l-162 209h381l760 -1149v983l-127 166h356l-127 -166v-1268h-245l-734 1110v-940zM449 1860h317l102 -347z" />
    <glyph glyph-name="ngrave" unicode="&#x1f9;" horiz-adv-x="1255" 
d="M782 1071q327 -3 330 -430v-483l111 -158h-480l107 158v450q0 289 -174 289q-110 0 -248 -129v-610l115 -158h-488l113 160l-2 700l-107 160l369 86v-184q155 149 354 149zM236 1485h327l117 -311z" />
    <glyph glyph-name="uni021A" unicode="&#x21a;" horiz-adv-x="1343" 
d="M1323 987h-2l-268 344h-230v-1161l140 -170h-560l125 170v1161h-231l-268 -344h-2v447h1296v-447zM655 -362q-57 0 -92 36.5t-35 96.5q0 63 41 101t107 38q67 0 107 -42.5t40 -111.5q0 -105 -86 -211q-81 -106 -188 -127q37 32 72 103q34 67 34 117z" />
    <glyph glyph-name="uni021B" unicode="&#x21b;" horiz-adv-x="710" 
d="M666 170l34 -43q-125 -152 -301 -152q-112 0 -180 72t-69 201l-3 706h-114v39l373 369v-305h219v-103h-213v-675q0 -79 22 -125q17 -28 52 -37.5t83.5 3.5t96.5 50zM346 -362q-57 0 -92 36.5t-35 96.5q0 63 41 101t107 38q69 0 108 -41t39 -113q0 -105 -86 -211
q-81 -106 -188 -127q35 30 71 103q35 68 35 117z" />
    <glyph glyph-name="circumflex" unicode="&#x2c6;" horiz-adv-x="770" 
d="M397 1481h4l314 -367l-25 -24l-293 141l-288 -141l-25 24z" />
    <glyph glyph-name="caron" unicode="&#x2c7;" horiz-adv-x="765" 
d="M395 1341l295 140l23 -23l-314 -368h-4l-311 368l22 23z" />
    <glyph glyph-name="overscore" unicode="&#x2c9;" horiz-adv-x="886" 
d="M123 1434v102h641v-102h-641z" />
    <glyph glyph-name="breve" unicode="&#x2d8;" horiz-adv-x="739" 
d="M373 1378q103 0 163.5 42.5t61.5 117.5h4q9 -50 6 -74q0 -105 -64 -169t-173 -64q-107 0 -167 61t-65 166q0 40 6 80h5q4 -75 63.5 -117.5t159.5 -42.5z" />
    <glyph glyph-name="dotaccent" unicode="&#x2d9;" horiz-adv-x="436" 
d="M199 1417q67 0 106 -37.5t39 -99.5q0 -63 -38.5 -99t-106.5 -36q-66 0 -105 36.5t-39 98.5q0 61 40.5 99t103.5 38z" />
    <glyph glyph-name="ring" unicode="&#x2da;" horiz-adv-x="591" 
d="M328 1524q94 0 150.5 -54t56.5 -145t-56.5 -146t-150.5 -55q-92 0 -148.5 55t-56.5 146q0 90 56 144.5t149 54.5zM328 1446q-52 0 -88.5 -33t-36.5 -88t37 -89t90 -34t88 33t35 88t-36 89t-89 34z" />
    <glyph glyph-name="ogonek" unicode="&#x2db;" horiz-adv-x="641" 
d="M586 -174q-23 -85 -84.5 -133.5t-147.5 -48.5q-84 0 -136 46t-52 120q0 88 73.5 151.5t196.5 83.5v-4q-117 -47 -117 -164q0 -63 33 -98t90 -35q92 0 144 82z" />
    <glyph glyph-name="tilde" unicode="&#x2dc;" horiz-adv-x="720" 
d="M627 1393h4q15 -80 -31 -156t-127 -76q-44 0 -131 43q-76 43 -125 43q-87 0 -108 -88h-5q-6 98 34.5 165t119.5 67q49 0 131 -43q73 -43 125 -43q89 0 113 88z" />
    <glyph glyph-name="acuteaccentdbl" unicode="&#x2dd;" horiz-adv-x="948" 
d="M190 1434h332l-418 -363zM571 1434h332l-418 -363z" />
    <glyph glyph-name="uni1680" unicode="&#x1680;" horiz-adv-x="1398" 
d="M123 1331v103h1153v-103h-1153z" />
    <glyph glyph-name="Wgrave" unicode="&#x1e80;" horiz-adv-x="2285" 
d="M791 203l34 59l258 723l-86 275l-129 174h533l-92 -172l313 -990l35 -69l315 1003l-123 228h396l-134 -181l-65 -161l-354 -1092h-293l-264 825l-297 -825h-283l-385 1255l-123 179h518l-92 -172zM760 1860h317l103 -347z" />
    <glyph glyph-name="wgrave" unicode="&#x1e81;" horiz-adv-x="1873" 
d="M1847 1057l-180 -252l-317 -805h-263l-194 565l-221 -565h-262l-361 1057h449l-107 -197l234 -694l217 551l-117 340h465l-109 -226l224 -663l251 637l-131 252h422zM575 1513h316l104 -346z" />
    <glyph glyph-name="Wacute" unicode="&#x1e82;" horiz-adv-x="2285" 
d="M791 203l34 59l258 723l-88 275l-127 174h533l-94 -172l315 -990l33 -69l317 1003l-123 228h396l-134 -181l-65 -161l-354 -1092h-293l-264 825l-297 -825h-283l-387 1255l-121 179h518l-92 -172zM1083 1516l103 344h315z" />
    <glyph glyph-name="wacute" unicode="&#x1e83;" horiz-adv-x="1871" 
d="M1841 1057l-180 -252l-318 -805h-262l-194 565l-221 -565h-260l-363 1057h449l-107 -197l233 -694l218 551l-117 340h467l-109 -226l221 -663l252 637l-131 252h422zM874 1176l103 344h315z" />
    <glyph glyph-name="Hyphen" unicode="&#x2010;" horiz-adv-x="866" 
d="M123 600v102h620v-102h-620z" />
    <glyph glyph-name="Nonbreakinghyphen" unicode="&#x2011;" horiz-adv-x="989" 
d="M123 600v102h743v-102h-743z" />
    <glyph glyph-name="figuredash" unicode="&#x2012;" horiz-adv-x="1398" 
d="M123 600v102h1153v-102h-1153z" />
    <glyph glyph-name="endash" unicode="&#x2013;" horiz-adv-x="1644" 
d="M123 600v102h1411v-102h-1411z" />
    <glyph glyph-name="emdash" unicode="&#x2014;" horiz-adv-x="2363" 
d="M123 600v102h2126v-102h-2126z" />
    <glyph glyph-name="horizontalbar" unicode="&#x2015;" horiz-adv-x="1808" 
d="M123 600v102h1563v-102h-1563z" />
    <glyph glyph-name="quoteleft" unicode="&#x2018;" horiz-adv-x="436" 
d="M246 1122q0 -52 35 -127q38 -75 77 -108q-112 24 -200 135q-90 116 -90 225q0 74 42.5 118t114.5 44q69 0 112.5 -40.5t43.5 -106.5q0 -63 -37 -101.5t-98 -38.5z" />
    <glyph glyph-name="quoteright" unicode="&#x2019;" horiz-adv-x="438" 
d="M209 1233q-60 0 -97.5 38t-37.5 101q0 66 44 107t113 41q72 0 115 -44t43 -118q0 -109 -90 -225q-89 -112 -203 -136q43 34 78 109t35 127z" />
    <glyph glyph-name="quotesingletop" unicode="&#x201b;" horiz-adv-x="436" 
d="M246 1122q0 -52 35 -127q38 -75 77 -108q-112 24 -200 135q-90 116 -90 225q0 74 42.5 118t114.5 44q69 0 112.5 -40.5t43.5 -106.5q0 -63 -37 -101.5t-98 -38.5z" />
    <glyph glyph-name="quotedblleft" unicode="&#x201c;" horiz-adv-x="880" 
d="M274 1176q61 0 98.5 -39.5t37.5 -102.5q0 -66 -43.5 -106.5t-112.5 -40.5q-72 0 -115 44.5t-43 119.5q0 110 90 223q88 114 203 135q-41 -32 -80 -109q-35 -72 -35 -124zM655 1176q61 0 98.5 -39.5t37.5 -102.5q0 -66 -43.5 -106.5t-112.5 -40.5q-72 0 -115 44.5
t-43 119.5q0 110 90 223q88 114 203 135q-41 -32 -80 -109q-35 -72 -35 -124z" />
    <glyph glyph-name="quotedblright" unicode="&#x201d;" horiz-adv-x="876" 
d="M233 1122q-60 0 -97.5 38.5t-37.5 101.5q0 65 44 106t112 41q73 0 115.5 -44t42.5 -118q0 -109 -90 -225q-88 -111 -201 -135q43 35 78 108q34 72 34 127zM614 1122q-60 0 -97.5 38.5t-37.5 101.5q0 65 44 106t112 41q73 0 115.5 -44t42.5 -118q0 -108 -91 -225
q-88 -111 -200 -135q44 35 78 108q34 72 34 127z" />
    <glyph glyph-name="quotedblbase" unicode="&#x201e;" horiz-adv-x="886" 
d="M233 68q-60 0 -97.5 38t-37.5 101q0 66 44.5 106.5t113.5 40.5q72 0 115 -44t43 -117q0 -112 -92 -224q-87 -112 -201 -137q43 34 78 109q34 72 34 127zM623 68q-60 0 -98 38t-38 101q0 66 44.5 106.5t113.5 40.5q72 0 115 -44t43 -117q0 -112 -92 -224
q-87 -112 -201 -137q43 34 78 109t35 127z" />
    <glyph glyph-name="quotedbltop" unicode="&#x201f;" horiz-adv-x="874" 
d="M231 1122q-60 0 -97.5 38.5t-37.5 101.5q0 66 44.5 106.5t113.5 40.5q72 0 114 -44t42 -118q0 -111 -91 -225q-89 -112 -200 -135q43 35 78 108q34 72 34 127zM612 1122q-60 0 -97.5 38.5t-37.5 101.5q0 66 44.5 106.5t113.5 40.5q72 0 114 -44t42 -118q0 -111 -91 -225
q-89 -112 -200 -135q44 35 78 108q34 72 34 127z" />
    <glyph glyph-name="dagger" unicode="&#x2020;" horiz-adv-x="907" 
d="M508 1024l362 41v-184l-362 41l41 -1147h-184l41 1147l-361 -41v184l361 -41l-41 322h184z" />
    <glyph glyph-name="daggerdbl" unicode="&#x2021;" horiz-adv-x="923" 
d="M881 535v-187l-344 41l22 -614h-184l22 614l-344 -41v187l348 -41l15 428l-363 -41v184l363 -41l-41 322h184l-41 -322l363 41v-184l-363 41l17 -428z" />
    <glyph glyph-name="bullet" unicode="&#x2022;" horiz-adv-x="765" 
d="M96 651q0 133 80 213q82 82 213 82t213 -82t82 -213t-81 -212t-214 -81q-131 0 -212 81t-81 212z" />
    <glyph glyph-name="ellipsis" unicode="&#x2026;" horiz-adv-x="1380" 
d="M156 12q-41 41 -41 107q0 63 41 104q44 41 112 41q70 0 111 -41q43 -40 43 -104q0 -67 -43 -107q-41 -41 -111 -41q-68 0 -112 41zM903 -29h-2q-72 0 -114 40t-42 108q0 66 42.5 105.5t111.5 39.5q72 0 115 -39.5t43 -105.5t-42.5 -107t-111.5 -41z" />
    <glyph glyph-name="prime" unicode="&#x2032;" horiz-adv-x="462" 
d="M133 1462h285l-162 -473h-164z" />
    <glyph glyph-name="primedbl" unicode="&#x2033;" horiz-adv-x="835" 
d="M147 1462h285l-162 -473h-164zM475 1462h285l-162 -473h-164z" />
    <glyph glyph-name="primereversed" unicode="&#x2035;" horiz-adv-x="456" 
d="M342 1462l41 -473h-164l-162 473h285z" />
    <glyph glyph-name="primereverseddbl" unicode="&#x2036;" horiz-adv-x="856" 
d="M371 1462l41 -473h-164l-162 473h285zM719 1462l41 -473h-164l-162 473h285z" />
    <glyph glyph-name="guilsinglleft" unicode="&#x2039;" horiz-adv-x="589" 
d="M29 659v5l450 448l27 -27l-170 -423l170 -422l-27 -29z" />
    <glyph glyph-name="guilsinglright" unicode="&#x203a;" horiz-adv-x="587" 
d="M256 662l-170 423l27 27l450 -448v-5l-450 -448l-27 29z" />
    <glyph glyph-name="No" unicode="&#x2116;" horiz-adv-x="2516" 
d="M500 0h-359l125 184v1041l-160 209h381l820 -1149v983l-125 166h356l-129 -166v-1268h-252l-788 1098v-914zM1741 334v139h612v-139h-612zM1659 1067q0 170 104 283q108 114 285 114q175 0 283 -114q106 -112 106 -285q0 -174 -106 -289q-105 -114 -281 -114
q-177 0 -285 114q-106 115 -106 291zM2050 1393q-82 0 -129 -89t-47 -243q0 -155 45 -241.5t127 -86.5t128.5 89.5t45.5 246.5q0 152 -45 238t-125 86z" />
    <glyph glyph-name="leftarrow" unicode="&#x2190;" horiz-adv-x="1740" 
d="M78 725l491 502l27 -27l-244 -436l1368 74v-250l-1364 74l240 -414l-27 -29l-491 502v4z" />
    <glyph glyph-name="upwards" unicode="&#x2191;" horiz-adv-x="1087" 
d="M551 1544l502 -491l-27 -27l-436 244l72 -1368h-250l75 1364l-413 -240l-29 27l502 491h4z" />
    <glyph glyph-name="rightarrow" unicode="&#x2192;" horiz-adv-x="1736" 
d="M20 850l1369 -74l-244 422l26 29l492 -502v-4l-492 -502l-26 27l239 428l-1364 -74v250z" />
    <glyph glyph-name="downwards" unicode="&#x2193;" horiz-adv-x="1089" 
d="M674 1487l-74 -1368l424 243l27 -26l-502 -492h-4l-502 492l29 26l426 -239l-74 1364h250z" />
    <glyph glyph-name="northwest" unicode="&#x2196;" horiz-adv-x="1343" 
d="M70 1292l702 8v-38l-481 -138l1020 -913l-178 -176l-912 1016l-123 -463l-39 -2l9 704z" />
    <glyph glyph-name="northeast" unicode="&#x2197;" horiz-adv-x="1355" 
d="M37 221l1020 914l-471 127l-2 38l704 -8l2 -2l6 -704l-36 2l-134 471l-913 -1016z" />
    <glyph glyph-name="southeast" unicode="&#x2198;" horiz-adv-x="1345" 
d="M1278 66l-703 -9v39l482 135l-1020 916l176 176l911 -1018l123 463l39 2l-6 -702z" />
    <glyph glyph-name="southwest" unicode="&#x2199;" horiz-adv-x="1355" 
d="M1321 1145l-1020 -914l471 -127l2 -38l-702 8l-2 2l-11 702h41l131 -473l914 1018z" />
    <glyph glyph-name="leftbracket" unicode="&#x3008;" horiz-adv-x="622" 
d="M27 659v5l491 550l27 -26l-211 -526l211 -525l-27 -28z" />
    <glyph glyph-name="rightbracket" unicode="&#x3009;" horiz-adv-x="628" 
d="M299 662l-211 526l27 26l491 -550v-5l-491 -550l-27 28z" />
    <glyph glyph-name="leftbracketdbl" unicode="&#x300a;" horiz-adv-x="1075" 
d="M53 659v5l492 550l26 -26l-211 -526l211 -525l-26 -28zM463 659v5l491 550l27 -26l-211 -526l211 -525l-27 -28z" />
    <glyph glyph-name="rightbracketdbl" unicode="&#x300b;" horiz-adv-x="1079" 
d="M313 662l-211 526l27 26l492 -550v-5l-492 -550l-27 28zM723 662l-211 526l27 26l491 -550v-5l-491 -550l-27 28z" />
    <glyph glyph-name="logo" unicode="&#xe000;" horiz-adv-x="2945" 
d="M1473 1298q218 0 432 -34q226 -36 446 -127q224 -89 354 -234q111 -126 111 -266q0 -144 -111 -264q-126 -144 -356 -238q-389 -158 -876 -158q-225 0 -433 33q-221 35 -446 127q-226 92 -354 236q-111 129 -111 264q0 204 238 377q204 148 503 215q298 69 603 69z
M1602 639q18 0 29 -11.5t11 -29.5q0 -24 -13 -40.5t-36 -16.5q-41 0 -41 43q0 24 13.5 39.5t36.5 15.5zM451 608h-261q10 -94 79 -181.5t177 -150.5q200 -114 406 -163q-165 79 -277 206q-115 133 -124 289zM686 608h-176q10 -102 66 -192t145 -154q166 -119 373 -178l6 -2
q-176 77 -289 217t-125 309zM852 1163q-217 -58 -403 -166q-109 -62 -179 -148.5t-80 -180.5h261q9 155 124 288q114 129 277 207zM1100 1192l-6 -2q-207 -59 -373 -178q-89 -63 -145 -152t-66 -192h176q12 171 127 311q119 140 287 213zM1069 481q103 0 135 107
q11 42 13 61q7 40 14 129h-76q0 -23 -7.5 -72t-27.5 -102t-47 -53q-39 0 -39 39q0 30 13 106l16 82h-78q-29 -192 -29 -207q0 -43 32 -66.5t81 -23.5zM1364 489h70q20 109 20 142q0 63 -63 63q-33 0 -70 -37l6 31h-67l-31 -199h67q0 15 2 35.5t7.5 48t19 46t31.5 18.5
q26 0 26 -27q0 -4 -18 -121zM1628 516l-4 -27h66l47 306h-68q0 -1 -9 -58t-9 -78q-35 35 -68 35q-46 0 -75 -35t-29 -86q0 -38 21.5 -65t55.5 -27q45 0 72 35zM1745 553l-25 -47q48 -25 84 -25q88 0 88 70q0 35 -41 53q-36 16 -45 29q8 14 23 14q26 0 47 -18l20 45
q-33 20 -69 20q-34 0 -60 -18t-26 -47q0 -33 43 -54q43 -18 43 -28l-6 -12q-15 -5 -17 -5q-18 0 -59 23zM1911 522q0 -25 20 -35.5t40 0t20 35.5q0 24 -20 33.5t-40 -0.5t-20 -33zM1845 82l6 2q211 60 375 178q92 64 148 153.5t63 192.5h-178q-9 -178 -125 -315
q-114 -138 -289 -211zM2093 113q216 54 406 163q108 64 177 150.5t81 181.5h-263q-9 -162 -124 -289q-115 -130 -277 -206zM2259 668h178q-7 103 -63 192.5t-148 151.5q-164 118 -375 178l-6 2q170 -72 289 -213q116 -137 125 -311zM2494 668h263q-12 96 -80.5 181.5
t-177.5 147.5q-191 111 -406 166q160 -75 277 -207q115 -127 124 -288z" />
    <glyph glyph-name="longs_t" unicode="&#xfb05;" horiz-adv-x="1527" 
d="M940 225v729h-494v-796l146 -158h-516l110 158v796h-100v103h100v84q0 203 81 308t257 112q10 2 43 2q115 0 269 -37v-336l-250 262h-17q-70 0 -96.5 -43t-26.5 -139v-213h476l272 305v-305h219v-103h-213v-675q0 -84 24.5 -125t88.5 -41t141 57l35 -43
q-125 -152 -295 -152q-108 0 -181 67.5t-73 182.5z" />
    <glyph glyph-name="_1" horiz-adv-x="0" 
 />
    <glyph glyph-name="CR" horiz-adv-x="681" 
 />
    <glyph glyph-name="Ccircumflex" horiz-adv-x="1316" 
d="M1245 1393v-398h-2l-260 330q-90 37 -184 37q-200 0 -312.5 -166t-111.5 -469q1 -317 114.5 -483t323.5 -166q79 0 170 31l260 325h2v-401q-224 -51 -438 -51q-129 0 -240.5 26t-207.5 83t-163.5 142.5t-106 210t-38.5 279.5q0 365 211 549q210 186 545 186
q219 0 438 -65zM776 1937h4l348 -407l-24 -25l-328 156l-319 -156l-27 25z" />
    <glyph glyph-name="Cdotaccent" horiz-adv-x="1312" 
d="M1245 1393v-398h-2l-260 330q-93 37 -184 37q-200 0 -313.5 -167.5t-112.5 -467.5q1 -315 115.5 -482t320.5 -167q79 0 174 31l258 325h4v-401q-224 -51 -438 -51q-129 0 -240.5 26t-207.5 83t-163.5 142.5t-106 210t-38.5 279.5q0 364 209 549q210 186 547 186
q219 0 438 -65zM647 1673q0 63 39 101t105 38t104.5 -38t38.5 -101t-38.5 -99t-104.5 -36t-105 36.5t-39 98.5z" />
    <glyph glyph-name="Ecircumflex" horiz-adv-x="1290" 
d="M932 471l-187 197h-258v-566h457l268 340h2v-442h-1148l129 184v1078l-140 172h1139v-447h-2l-268 344h-437v-561h258l187 197v-496zM643 1946h4l348 -408l-26 -25l-326 156l-319 -156l-27 25z" />
    <glyph glyph-name="Edieresis" horiz-adv-x="1290" 
d="M934 471l-186 197h-259v-566h457l271 340v-442h-1149l129 184v1078l-140 172h1139v-447l-270 344h-437v-561h259l186 197v-496zM457 1823q63 0 101 -35.5t38 -95.5t-38 -96.5t-101 -36.5q-62 0 -100 36.5t-38 96.5t38 95.5t100 35.5zM829 1823q62 0 100 -35.5t38 -95.5
t-38 -96.5t-100 -36.5q-63 0 -101 36.5t-38 96.5t38 95.5t101 35.5z" />
    <glyph glyph-name="Edotaccent" horiz-adv-x="1288" 
d="M938 471l-186 197h-256v-566h454l271 340v-442h-1149l129 184v1078l-140 172h1139v-447l-270 344h-434v-561h256l186 197v-496zM494 1659q0 63 38.5 101t104.5 38t105.5 -38t39.5 -101q0 -61 -39.5 -98t-105.5 -37t-104.5 36.5t-38.5 98.5z" />
    <glyph glyph-name="Euro" horiz-adv-x="1556" 
d="M999 78q79 0 177 31l258 325h2v-401q-230 -51 -484 -51q-275 11 -455.5 143t-234.5 383h-174v102h158q-9 128 2 236h-160v102h178q59 238 240.5 369t445.5 139q10 2 49 2q222 0 435 -65l-2 -398l-258 330q-98 37 -187 37q-159 0 -264 -106.5t-143 -307.5h489v-102h-502
q-9 -117 0 -236h502v-102h-487q37 -210 143 -320t272 -110z" />
    <glyph glyph-name="Gdotaccent" horiz-adv-x="1544" 
d="M922 729h569l-135 -184v-545l-187 47q-195 -61 -374 -61q-350 0 -543 196q-195 198 -195 547t205 539t557 190q214 0 434 -63v-400h-2l-260 330q-87 35 -176 35q-188 0 -313 -158q-122 -159 -119 -457q0 -314 124.5 -483.5t360.5 -169.5q92 0 191 27v426zM666 1649
q0 63 38.5 101t104.5 38t104.5 -38t38.5 -101q0 -62 -38.5 -99t-104.5 -37t-104.5 37t-38.5 99z" />
    <glyph glyph-name="Hcircumflex" horiz-adv-x="1636" 
d="M492 1262v-471h641l-3 471l-139 172h570l-136 -172v-1078l142 -184h-566l132 184v504h-641v-504l139 -184h-561l129 184l-2 1078l-140 172h570zM813 1937h4l348 -407l-26 -25l-326 156l-319 -156l-29 25z" />
    <glyph glyph-name="Icircumflex" horiz-adv-x="749" 
d="M643 1434l-125 -172v-1078l139 -184h-559l127 184l-2 1078l-135 172h555zM373 1939h4l346 -407l-25 -27l-325 156l-320 -156l-28 27z" />
    <glyph glyph-name="Idieresis" horiz-adv-x="727" 
d="M641 1434l-125 -172v-1078l139 -184h-559l127 184l-2 1078l-137 172h557zM180 1823q63 0 101 -35.5t38 -95.5t-38 -96.5t-101 -36.5q-62 0 -99.5 36.5t-37.5 96.5t37.5 95.5t99.5 35.5zM553 1823q63 0 101 -35.5t38 -95.5t-38 -96.5t-101 -36.5q-62 0 -99.5 36.5
t-37.5 96.5t37.5 95.5t99.5 35.5z" />
    <glyph glyph-name="Idot" horiz-adv-x="645" 
d="M592 1434l-123 -172v-1078l137 -184h-557l125 184l-2 1078l-135 172h555zM170 1686q0 63 38.5 100t104.5 37t105 -37t39 -100t-39 -99.5t-105 -36.5t-104.5 37t-38.5 99z" />
    <glyph glyph-name="Jcircumflex" horiz-adv-x="794" 
d="M715 1434l-135 -172v-727q0 -473 -111 -646q-110 -174 -432 -174h-17v68q159 3 211 123q54 123 54 467v889l-140 172h570zM442 1942h4l349 -408l-27 -27l-326 156l-319 -156l-27 27z" />
    <glyph glyph-name="Ocircumflex" horiz-adv-x="1603" 
d="M797 1468q324 0 528 -198q207 -198 207 -551q0 -352 -207 -553q-206 -197 -528 -197q-324 0 -533 197q-207 201 -207 553q0 353 207 551t533 198zM801 1939l348 -407l-27 -27l-325 156l-320 -156l-26 27l346 407h4zM381 719q0 -306 112 -473.5t302 -167.5q195 0 303 168
t108 475t-111.5 472t-301.5 165q-196 0 -304 -167t-108 -472z" />
    <glyph glyph-name="Odieresis" horiz-adv-x="1605" 
d="M266 1270q204 198 531 198q324 0 528 -198q207 -198 207 -551q0 -352 -207 -553q-206 -197 -528 -197t-531 197q-207 201 -207 553q0 353 207 551zM606 1823q63 0 101 -35.5t38 -95.5t-38 -96.5t-101 -36.5q-62 0 -99.5 36.5t-37.5 96.5t37.5 95.5t99.5 35.5zM979 1823
q63 0 101 -35.5t38 -95.5t-38 -96.5t-101 -36.5q-62 0 -99.5 36.5t-37.5 96.5t37.5 95.5t99.5 35.5zM381 719q0 -306 113 -473.5t303 -167.5q195 0 303 168.5t108 474.5q0 308 -111 472.5t-304 164.5t-302.5 -169t-109.5 -470z" />
    <glyph glyph-name="Ohungarumlaut" horiz-adv-x="1607" 
d="M795 -31q-324 0 -533 197q-207 201 -207 553q0 353 207 551t533 198q324 0 528 -198q207 -198 207 -551q0 -352 -207 -553q-206 -197 -528 -197zM639 1896h328l-426 -364zM1020 1896h344l-479 -364zM379 719q0 -306 113 -473.5t303 -167.5q195 0 303 168.5t108 474.5
q0 307 -112 472t-303 165q-193 0 -302.5 -169t-109.5 -470z" />
    <glyph glyph-name="Ucircumflex" horiz-adv-x="1536" 
d="M1118 1434h357l-129 -174v-650q0 -337 -127 -491q-128 -153 -424 -150q-329 3 -467 162q-140 166 -140 526v605l-135 172h570l-140 -172v-627q0 -303 82 -428t277 -125q216 -1 308.5 135t92.5 422v621zM823 1939h4l349 -407l-27 -27l-326 156l-319 -156l-27 27z" />
    <glyph glyph-name="Udieresis" horiz-adv-x="1536" 
d="M1120 1434h357l-129 -174v-650q-3 -343 -127 -491q-128 -153 -424 -150q-329 3 -467 162q-140 166 -140 526v605l-135 172h570l-140 -172v-627q0 -303 82 -428t277 -125q109 -1 186 33.5t124 106t68.5 173.5t22.5 244v621zM535 1575q-37 37 -37 96t37 94q37 37 100 37
t100 -37q38 -35 38 -94t-38 -96q-37 -35 -100 -35t-100 35zM1008 1802q62 0 99.5 -35.5t37.5 -95.5t-37.5 -95.5t-99.5 -35.5q-63 0 -101.5 35.5t-38.5 95.5t38.5 95.5t101.5 35.5z" />
    <glyph glyph-name="Wcircumflex" horiz-adv-x="2299" 
d="M791 203l32 59l260 723l-88 275l-127 174h531l-92 -172l315 -990l33 -69l317 1003l-125 228h396l-132 -181l-65 -161l-356 -1092h-291l-264 825l-299 -825h-283l-385 1255l-121 179h516l-90 -172zM1137 1888h4l303 -354l-23 -23l-284 136l-279 -136l-24 23z" />
    <glyph glyph-name="Wdieresis" horiz-adv-x="2299" 
d="M791 203l34 59l258 723l-86 275l-129 174h533l-92 -172l313 -990l35 -69l315 1003l-123 228h396l-134 -181l-65 -161l-354 -1092h-293l-264 825l-297 -825h-283l-385 1255l-123 179h518l-92 -172zM842 1597q-37 37 -37 96.5t37 94.5q37 37 100 37t100 -37
q38 -35 38 -94.5t-38 -96.5q-37 -37 -100 -37t-100 37zM1313 1825q63 0 101 -35.5t38 -95.5t-38 -96.5t-101 -36.5q-62 0 -99.5 36.5t-37.5 96.5t37.5 95.5t99.5 35.5z" />
    <glyph glyph-name="Ycircumflex" horiz-adv-x="1417" 
d="M582 1434l-119 -172l321 -545l308 526l-129 191h430l-187 -191l-362 -641v-418l151 -184h-571l125 184l-2 357l-520 893h555zM709 1950h4l348 -408l-27 -24l-325 155l-320 -155l-27 24z" />
    <glyph glyph-name="Ydieresis" horiz-adv-x="1413" 
d="M584 1434l-119 -172l321 -545l308 526l-129 191h430l-187 -191l-362 -641v-418l151 -184h-571l125 184l-2 357l-520 893h555zM418 1595q-37 37 -37 96.5t37 94.5q37 37 100 37t100 -37q38 -35 38 -94.5t-38 -96.5q-37 -37 -100 -37t-100 37zM889 1823q63 0 101 -35.5
t38 -95.5t-38 -96.5t-101 -36.5q-62 0 -99.5 36.5t-37.5 96.5t37.5 95.5t99.5 35.5z" />
    <glyph glyph-name="Zdotaccent" horiz-adv-x="1292" 
d="M145 0l-96 203l869 1128h-480l-157 -327l-187 430h1039l100 -177l-889 -1155h520l215 340l135 -442h-1069zM516 1661q0 63 38.5 100t104.5 37q67 0 106.5 -37t39.5 -100t-39 -99t-107 -36q-66 0 -104.5 36.5t-38.5 98.5z" />
    <glyph glyph-name="acircumflex" horiz-adv-x="1148" 
d="M57 268q0 130 105 214t321 151q217 64 217 188q0 46 -27 81.5t-67 35.5h-188l-213 -238l-139 357h929l-22 -101v-796l117 -160h-379v182q-63 -92 -162.5 -147t-204.5 -55q-127 0 -207 78.5t-80 209.5zM582 1520l303 -357l-21 -22l-284 137l-281 -137l-25 22l306 357h2z
M711 279v372q-42 -67 -191 -143q-90 -48 -137 -86q-64 -52 -64 -131q0 -64 41 -97.5t109 -33.5q12 0 14 2q123 9 228 117z" />
    <glyph glyph-name="adieresis" horiz-adv-x="1157" 
d="M68 268q0 131 105 215.5t319 149.5q219 65 219 186q0 51 -27.5 85t-69.5 34h-184l-217 -238l-139 357h930l-23 -101v-796l117 -160h-379v182q-60 -91 -160 -146.5t-205 -55.5q-126 0 -206 78t-80 210zM283 1186q-37 37 -37 96t37 94q37 37 100 37t100 -37q38 -35 38 -94
t-38 -96q-37 -37 -100 -37t-100 37zM756 1413q62 0 99.5 -35.5t37.5 -95.5t-37.5 -96.5t-99.5 -36.5q-63 0 -101.5 36.5t-38.5 96.5t38.5 95.5t101.5 35.5zM721 279v372q-46 -68 -193 -143q-6 -3 -20.5 -10.5t-18.5 -10t-15.5 -8.5t-15.5 -8.5t-12.5 -8t-13.5 -9t-12 -9
t-13.5 -11t-13.5 -11.5q-63 -51 -63 -131q0 -61 41 -96t106 -35q4 0 11 1l6 1q122 9 227 117z" />
    <glyph glyph-name="asciicircum" horiz-adv-x="770" 
d="M385 1454h4l326 -383l-23 -22l-307 145l-301 -145l-25 22z" />
    <glyph glyph-name="ccircumflex" horiz-adv-x="1095" 
d="M981 1042v-358l-272 272q-10 2 -47 2q-56 0 -91 -12q-112 -35 -174 -145q-61 -113 -67 -252q-2 -6 -2 -31q0 -188 88.5 -302t226.5 -114q175 0 340 183l59 -49q-194 -261 -479 -261q-12 0 -14 2q-229 9 -365 166q-133 160 -133 394q0 544 611 544q10 -2 49 -2
q110 -8 270 -37zM614 1577l367 -430l-27 -27l-344 164l-338 -164l-28 27l366 430h4z" />
    <glyph glyph-name="cdotaccent" horiz-adv-x="1089" 
d="M977 1042v-358l-272 272q-10 2 -41 2q-161 0 -252 -131q-90 -131 -90 -305q3 -178 86 -299q86 -121 231 -121q175 0 340 183l59 -49q-188 -259 -469 -259q-233 0 -379 152q-143 152 -143 397q-1 268 156.5 412.5t437.5 144.5q146 0 336 -41zM754 1321q0 -63 -39 -100
t-105 -37t-104.5 37.5t-38.5 99.5t38.5 99.5t104.5 37.5t105 -37.5t39 -99.5z" />
    <glyph glyph-name="dieresis" horiz-adv-x="854" 
d="M147 1186q-37 37 -37 96t37 94q37 37 100.5 37t100.5 -37q38 -35 38 -94t-38 -96q-37 -37 -100.5 -37t-100.5 37zM618 1413q63 0 101.5 -35.5t38.5 -95.5t-38.5 -96.5t-101.5 -36.5q-62 0 -99.5 36.5t-37.5 96.5t37.5 95.5t99.5 35.5z" />
    <glyph glyph-name="ebreve" horiz-adv-x="1124" 
d="M1063 471h-719q12 -168 99.5 -264t224.5 -96q173 0 325 174l58 -49q-187 -261 -465 -261q-237 0 -381 150q-142 151 -142 401q-3 253 144 406q143 149 395 149q112 -1 200 -32.5t144 -87t90 -132t38 -167t-11 -191.5zM602 1307q100 0 160.5 43t64.5 118h2q9 -34 9 -73
q-2 -105 -66.5 -169.5t-173.5 -64.5q-107 0 -166.5 61.5t-64.5 166.5q0 39 6 79h4q5 -75 64 -118t161 -43zM608 952q-110 -2 -184.5 -100.5t-81.5 -276.5h471q10 134 -27 242q-19 63 -65.5 99t-112.5 36z" />
    <glyph glyph-name="ecircumflex" horiz-adv-x="1124" 
d="M1055 471h-719q12 -169 99.5 -264.5t223.5 -95.5q174 0 326 174l57 -49q-182 -261 -462 -261q-237 0 -381 150q-141 150 -144 401q-3 253 144 406q143 149 395 149q112 -1 200 -32.5t144 -87t90 -132t38 -167t-11 -191.5zM598 1563l348 -408l-24 -25l-328 156l-320 -156
l-26 25l346 408h4zM602 952q-110 -2 -184 -100t-84 -277h471q10 134 -27 242q-19 63 -64.5 99t-111.5 36z" />
    <glyph glyph-name="edieresis" horiz-adv-x="1126" 
d="M1063 471h-719q12 -168 99.5 -264t224.5 -96q173 0 325 174l58 -49q-187 -261 -465 -261q-237 0 -381 150q-142 151 -142 401q-3 253 144 406q143 149 395 149q112 -1 200 -32.5t144 -87t90 -132t38 -167t-11 -191.5zM295 1208q-37 37 -37 96.5t37 94.5q37 37 100.5 37
t100.5 -37q38 -35 38 -94.5t-38 -96.5q-37 -37 -100.5 -37t-100.5 37zM768 1436q62 0 99.5 -35.5t37.5 -95.5t-38 -97t-99 -37q-63 0 -101 37t-38 97t38 95.5t101 35.5zM608 952q-110 -2 -184.5 -100.5t-81.5 -276.5h471q10 134 -27 242q-19 63 -65.5 99t-112.5 36z" />
    <glyph glyph-name="edotaccent" horiz-adv-x="1118" 
d="M1061 471h-719q12 -169 100 -264.5t226 -95.5q171 0 323 174l60 -49q-187 -261 -465 -261q-237 0 -381 150q-141 150 -144 401q-3 253 144 406q143 149 395 149q114 -1 202.5 -32.5t143.5 -87.5t88.5 -132.5t37 -167t-10.5 -190.5zM733 1307q0 -63 -38.5 -99.5
t-104.5 -36.5t-105 37t-39 99t39 99.5t105 37.5t104.5 -37.5t38.5 -99.5zM608 952q-110 -2 -184 -100t-84 -277h471q9 130 -25 242q-19 63 -65.5 99t-112.5 36z" />
    <glyph glyph-name="eight_subs" horiz-adv-x="657" 
d="M129 281q0 70 57 114.5t160 44.5q95 0 150 -36t55 -103q0 -85 -94 -131q104 -52 104 -143q0 -80 -67 -129.5t-179 -49.5q-99 0 -152.5 40t-53.5 114q2 43 28.5 81.5t69.5 55.5q-78 54 -78 142zM207 2q0 -49 32.5 -80t82.5 -31q42 0 72 21.5t30 60.5q0 35 -21 56
q-19 22 -77 49q-50 23 -68 35q-51 -45 -51 -111zM354 401q-43 0 -68.5 -21t-25.5 -56q1 -39 33 -64.5t100 -52.5q58 43 58 104q0 43 -27 66.5t-70 23.5z" />
    <glyph glyph-name="eight_sups" horiz-adv-x="657" 
d="M129 1444q0 70 57.5 115t159.5 45q94 0 149.5 -36t55.5 -104q0 -85 -94 -131q104 -52 104 -143q0 -80 -67 -129t-179 -49q-100 0 -153 39.5t-53 113.5q2 43 28.5 82t69.5 56q-78 54 -78 141zM207 1165q0 -49 32.5 -79.5t82.5 -30.5q42 0 72 21.5t30 60.5q0 34 -23 57
q-25 25 -77 49l-66 33q-51 -45 -51 -111zM354 1565q-43 0 -68.5 -21.5t-25.5 -56.5q1 -39 33 -64.5t100 -52.5q58 43 58 105q0 43 -27 66.5t-70 23.5z" />
    <glyph glyph-name="fi" horiz-adv-x="1433" 
d="M858 0l135 158v708l-63 88h-486v-796l144 -158h-514l108 158v796h-102l2 103h100v84q0 218 94 320t287 102q120 0 271 -37v-336l-246 262h-21q-69 0 -96 -43.5t-27 -138.5v-213h809l-2 -899l129 -158h-522zM1100 1591l188 -172l-176 -200l-184 163z" />
    <glyph glyph-name="five_subs" horiz-adv-x="632" 
d="M535 446l10 -8q-27 -166 -197 -166q-85 0 -164 33l-12 -123q68 39 176 39q98 0 151.5 -46t53.5 -128q0 -93 -73.5 -146t-207.5 -53q-82 0 -155 21v180l149 -164q57 -2 98.5 39.5t41.5 102.5q0 62 -47 97.5t-126 35.5q-39 0 -106 -13l33 283q82 -29 190 -29q117 0 185 45z
" />
    <glyph glyph-name="five_sups" horiz-adv-x="632" 
d="M535 1616l10 -8q-27 -166 -197 -166q-85 0 -164 33l-12 -123q68 39 176 39q97 0 151 -46t54 -126q0 -94 -73.5 -147.5t-207.5 -53.5q-85 0 -155 20v181l149 -164q58 -2 99 39t41 102q0 62 -47 97.5t-126 35.5q-45 0 -106 -12l33 282q79 -28 190 -28q117 0 185 45z" />
    <glyph glyph-name="fl" horiz-adv-x="1423" 
d="M860 0l123 158l-2 1073l-393 221h-21q-67 0 -95 -44t-28 -138v-213h332l-2 -103h-330v-796l146 -158h-516l108 158v796h-100v103h100v84q0 216 92.5 319.5t286.5 102.5q119 0 273 -37l75 -99l334 109v-1378l115 -158h-498z" />
    <glyph glyph-name="four_subs" horiz-adv-x="591" 
d="M281 37l141 158v-158h10l88 110v-151h-98v-66l49 -73h-254l55 67v72h-221v24q126 117 180 211.5t54 202.5h137q0 -272 -303 -397h162z" />
    <glyph glyph-name="four_sups" horiz-adv-x="591" 
d="M281 1188l141 158v-158h10l88 110v-151h-98v-66l49 -73h-254l55 67v72h-221v24q126 117 180 211.5t54 202.5h137q0 -272 -303 -397h162z" />
    <glyph glyph-name="franc" horiz-adv-x="1390" 
d="M887 709h-285v-230h258v-102h-258v-193l143 -184h-565l127 184v193h-190v102h190v783l-139 172h1149v-447h-2l-268 344h-445v-520h285l186 197v-496z" />
    <glyph glyph-name="gcircumflex" horiz-adv-x="1345" 
d="M1034 930l250 196v-278h-197q50 -83 50 -201q0 -207 -146 -317q-145 -109 -360 -109q-174 0 -312 72q0 -43 15 -64q22 -54 96 -73t244 -27l104 -6q69 -5 101 -10q66 -9 100 -21q110 -38 151 -88q60 -71 60 -176q0 -109 -57.5 -190.5t-155.5 -120.5q-187 -74 -393 -74
q-168 0 -330 55q-86 27 -137 85.5t-51 135.5q0 78 53 143t139 105q-123 64 -123 183q0 23 6 38q15 93 105 152q-150 120 -150 322q0 207 150 315q149 110 366 110q271 0 422 -157zM625 1581h4l366 -430l-26 -27l-344 164l-338 -164l-29 27zM369 662q0 -127 69 -208t185 -81
q115 0 177 76t62 202q0 127 -65.5 209t-180.5 82q-114 0 -180.5 -79t-66.5 -201zM969 -272q0 40 -30.5 73.5t-76.5 53.5q-40 18 -112 30q-111 19 -240 27l-41 4q-69 3 -102 10q-91 -60 -103 -133q-3 -18 0 -37q6 -97 107 -149q103 -53 219 -56q6 -2 24 -2q5 0 22.5 1t22.5 1
q53 2 134 21q70 15 123 57.5t53 98.5z" />
    <glyph glyph-name="gdotaccent" horiz-adv-x="1345" 
d="M1032 930l250 196v-278h-197q50 -83 50 -201q0 -194 -138 -311q-136 -115 -364 -115q-179 0 -314 72l-2 -17q0 -1 5 -26q11 -59 79.5 -84t212.5 -33h17q8 -2 35 -2l92 -6l90 -8q85 -8 168 -41q43 -12 68 -31.5t55 -54.5q49 -57 49 -164q0 -128 -82 -213
q-148 -158 -490 -168l-16 -2h-12h-21q-12 2 -53 2q-200 10 -318.5 81t-129.5 179q-3 6 -3 21q0 70 51 134.5t142 106.5q-99 56 -117 154q-6 33 0 67q12 86 105 152q-150 120 -150 319q0 194 142 312q140 116 374 116q274 0 422 -157zM463 1337q0 63 38.5 101.5t104.5 38.5
q67 0 106.5 -38.5t39.5 -101.5t-39 -99t-107 -36q-66 0 -104.5 36.5t-38.5 98.5zM367 662q0 -134 69.5 -211.5t188.5 -77.5q112 0 173.5 73.5t61.5 204.5q0 137 -67 214t-179 77q-114 0 -180.5 -74t-66.5 -206zM967 -264q0 95 -121 129q-91 26 -256 37l-60 4q-101 6 -165 20
q-84 -57 -99 -121l-2 -8q-2 -14 -2 -37q3 -78 70 -129q109 -82 297 -82q3 0 13 1t13 1q127 6 219 56q93 47 93 129z" />
    <glyph glyph-name="hcircumflex" horiz-adv-x="1280" 
d="M799 1071q329 -3 329 -430v-483l113 -158h-479l104 158l2 438q0 301 -174 301q-113 0 -248 -129v-610l115 -158h-485l110 158l-2 1132l-104 160l366 86v-612q156 147 353 147zM827 1597h4l349 -407l-27 -27l-326 156l-319 -156l-29 27z" />
    <glyph glyph-name="hungarumlaut" horiz-adv-x="1007" 
d="M221 1434h326l-426 -363zM602 1434h344l-479 -363z" />
    <glyph glyph-name="icircumflex" horiz-adv-x="681" 
d="M125 1016l364 92v-950l127 -158h-507l120 158v708zM365 1575h4l346 -408l-25 -24l-325 155l-322 -155l-27 24z" />
    <glyph glyph-name="idieresis" horiz-adv-x="661" 
d="M129 1016l365 92v-950l127 -158h-508l120 158v708zM139 1430q63 0 101.5 -36t38.5 -96t-38.5 -96.5t-101.5 -36.5q-62 0 -99.5 36.5t-37.5 96.5t37.5 96t99.5 36zM512 1430q62 0 99.5 -36t37.5 -96t-37.5 -96.5t-99.5 -36.5q-63 0 -101 36.5t-38 96.5t38 96t101 36z" />
    <glyph glyph-name="jcircumflex" horiz-adv-x="786" 
d="M274 866l-104 138l379 104v-950q0 -384 -92 -535q-91 -150 -369 -153v61q118 12 152 125q36 109 36 377zM399 1524h4l302 -355l-21 -22l-285 135l-278 -135l-25 22z" />
    <glyph glyph-name="lira" horiz-adv-x="1331" 
d="M422 238h565l219 307v-545h-1079v80q226 170 256 377q6 43 0 84h-283v102h269l-62 197h-207v102h172q-24 88 -24 164q0 354 520 354q243 0 426 -71v-445l-334 414q-317 0 -317 -289q0 -21 2 -27q0 -38 10 -100h358v-102h-338q6 -32 35 -197h303v-102h-305
q-21 -166 -186 -303z" />
    <glyph glyph-name="mu" horiz-adv-x="1353" 
d="M231 893l-118 162h381v-602q0 -161 42.5 -230t125.5 -69q126 0 245 143v600l-114 158h374v-897l117 -158h-377v174q-132 -185 -303 -194q-6 -3 -20 -3q-43 0 -90 13v-344l131 -158h-502l108 158v1247z" />
    <glyph glyph-name="nine_subs" horiz-adv-x="675" 
d="M416 111q-60 -48 -137 -48q-79 0 -124.5 50t-45.5 135q0 190 225 190q120 0 184 -75.5t64 -212.5q0 -147 -71 -225.5t-206 -78.5q-72 0 -178 25v176l160 -158q20 0 26 2q94 18 103 220zM418 147q0 242 -72 248q-88 -15 -88 -151q0 -113 70 -119q35 0 90 22z" />
    <glyph glyph-name="nine_sups" horiz-adv-x="677" 
d="M416 1272q-60 -45 -137 -45q-79 0 -124.5 49.5t-45.5 132.5q0 190 225 190q122 0 185 -75t63 -213q0 -147 -71 -225t-206 -78q-61 0 -178 24v176l160 -157q6 0 26 4q100 18 103 217zM418 1309q0 241 -70 247q-90 -9 -90 -151q0 -119 78 -119q21 0 82 23z" />
    <glyph glyph-name="ntilde" horiz-adv-x="1282" 
d="M784 1071q330 -3 330 -430v-483l113 -158h-482l107 158l2 450q0 303 -188 303q-116 0 -234 -112v-641l113 -158h-486l111 160l-2 700l-105 160l369 86v-184q155 149 352 149zM889 1409h4q15 -82 -31 -158q-46 -73 -127 -73q-44 0 -131 43q-76 43 -125 43q-87 0 -108 -88
h-4q-9 84 30 155q43 76 125 76q47 0 129 -43q73 -43 125 -43q89 0 113 88z" />
    <glyph glyph-name="ocircumflex" horiz-adv-x="1253" 
d="M57 528q0 252 152 404q154 151 416 151t411 -149q152 -152 152 -404q0 -251 -152 -403t-413 -152q-266 0 -416 150t-150 403zM629 1546l346 -407l-25 -25l-325 154l-320 -154l-29 25l349 407h4zM621 971q-132 0 -209.5 -117t-77.5 -326q0 -211 77 -325.5t214 -114.5
q135 0 211 117.5t75 331.5q-1 211 -80 322.5t-210 111.5z" />
    <glyph glyph-name="odieresis" horiz-adv-x="1259" 
d="M63 528q0 253 154 404t414 151q264 0 413 -149q152 -152 152 -404q0 -251 -152 -403t-413 -152q-266 0 -416 150q-152 152 -152 403zM436 1413q63 0 101 -35.5t38 -95.5t-38 -96.5t-101 -36.5q-62 0 -99.5 36.5t-37.5 96.5t37.5 95.5t99.5 35.5zM809 1413q63 0 101 -35.5
t38 -95.5t-38 -96.5t-101 -36.5q-62 0 -99.5 36.5t-37.5 96.5t37.5 95.5t99.5 35.5zM629 971q-132 0 -209.5 -117t-77.5 -326q0 -212 76.5 -326t212.5 -114q135 0 212.5 117.5t76.5 331.5q-1 209 -81.5 321.5t-209.5 112.5z" />
    <glyph glyph-name="ohungarumlaut" horiz-adv-x="1259" 
d="M57 528q0 253 154 404t414 151q264 0 413 -149q152 -152 152 -404q0 -251 -152 -403t-413 -152q-266 0 -416 150q-152 152 -152 403zM455 1526h325l-426 -363zM836 1526h344l-480 -363zM623 971q-132 0 -210.5 -117.5t-78.5 -325.5q0 -211 77 -325.5t214 -114.5
q135 0 211 117.5t75 331.5q-1 210 -80 322t-208 112z" />
    <glyph glyph-name="one_subs" horiz-adv-x="409" 
d="M76 397l221 45v-512l51 -73h-248l47 67v412z" />
    <glyph glyph-name="one_sups" horiz-adv-x="409" 
d="M76 1561l221 45v-512l51 -74h-248l47 67v412z" />
    <glyph glyph-name="onesuperior" horiz-adv-x="458" 
d="M74 1405l256 57v-641l63 -90h-291l62 84v508z" />
    <glyph glyph-name="paragraph" horiz-adv-x="1204" 
d="M604 1434h531v-72h-187v-1362h-71v1362h-201v-1362h-72v453q-245 3 -393 139q-150 138 -150 362q0 215 146 346q149 131 397 134z" />
    <glyph glyph-name="middot" horiz-adv-x="616" 
d="M98 729q0 98 59 157.5t156 59.5q98 0 157.5 -59.5t59.5 -157.5q0 -97 -59.5 -156t-157.5 -59q-97 0 -156 59t-59 156z" />
    <glyph glyph-name="plusminus" horiz-adv-x="899" 
d="M37 102h825v-102h-825v102zM500 641h362v-102h-362v-320h-103v320h-360v102h360v322h103v-322z" />
    <glyph glyph-name="quotesinglbase" horiz-adv-x="438" 
d="M209 68q-60 0 -97.5 38t-37.5 101q0 66 44 106.5t113 40.5q72 0 115 -44t43 -117q0 -111 -90 -224q-87 -113 -203 -137q43 34 78 109t35 127z" />
    <glyph glyph-name="seven_subs" horiz-adv-x="612" 
d="M201 309l-95 -100v225h455l-33 -115q-89 -79 -139.5 -200.5t-50.5 -261.5h-168q0 152 83.5 277t227.5 175h-280z" />
    <glyph glyph-name="seven_sups" horiz-adv-x="612" 
d="M201 1462l-95 -100v225h455l-33 -114q-89 -79 -139.5 -201t-50.5 -262h-168q0 152 83.5 277t227.5 175h-280z" />
    <glyph glyph-name="six_subs" horiz-adv-x="677" 
d="M270 176q60 45 138 45q79 0 124.5 -49.5t45.5 -132.5q0 -93 -59 -142.5t-167 -48.5q-120 0 -183 75.5t-63 213.5q0 147 70 224t205 77q76 0 178 -24v-174l-160 155q-20 0 -26 -2q-94 -18 -103 -217zM268 139q0 -242 72 -248q41 4 64.5 45t23.5 107q0 110 -70 119
q-46 -3 -90 -23z" />
    <glyph glyph-name="six_sups" horiz-adv-x="675" 
d="M270 1337q60 45 138 45q79 0 124.5 -49.5t45.5 -132.5q0 -190 -226 -190q-120 0 -183 75t-63 213q0 147 70 224t205 77q76 0 178 -24v-174l-160 155q-20 0 -26 -2q-94 -18 -103 -217zM268 1300q0 -241 72 -247q41 4 64.5 44.5t23.5 104.5q0 112 -70 121q-41 -3 -90 -23z
" />
    <glyph glyph-name="three_subs" horiz-adv-x="653" 
d="M532 287q0 -62 -46.5 -102t-137.5 -44q101 0 152 -37.5t51 -105.5q0 -152 -268 -152q-67 0 -154 17v186l141 -168h9q108 0 108 115q0 126 -166 135v21q174 24 174 141q0 106 -110 106h-15l-141 -168v187q107 22 170 22q114 0 173.5 -41t59.5 -112z" />
    <glyph glyph-name="three_sups" horiz-adv-x="653" 
d="M532 1452q0 -62 -46.5 -101.5t-137.5 -43.5q100 0 151.5 -38t51.5 -106q0 -151 -268 -151q-72 0 -154 16v186l141 -167h9q108 0 108 114q0 126 -166 135v21q174 24 174 141q0 107 -110 107h-15l-141 -168v186q112 23 170 23q115 0 174 -40.5t59 -113.5z" />
    <glyph glyph-name="threequarters" horiz-adv-x="849" 
d="M401 100l158 174v-174h10l99 121v-166h-109v-73l55 -80h-282l61 73v80h-246v27q140 129 199.5 233.5t59.5 221.5h153q0 -295 -336 -437h178zM47 729h752v-102h-752v102zM637 1298q0 -149 -205 -161q110 0 167.5 -42t57.5 -116q0 -166 -299 -166q-92 0 -168 18v203
l156 -184h10q119 0 119 127q0 137 -182 149v23q190 24 190 156q0 116 -121 116h-16l-156 -184v203q95 26 185 26q128 0 195 -44.5t67 -123.5z" />
    <glyph glyph-name="threesuperior" horiz-adv-x="757" 
d="M635 1266q0 -164 -225 -179q120 0 182.5 -49.5t62.5 -130.5q0 -95 -87 -142.5t-244 -47.5q-124 0 -203 24v189l155 -166h23q72 0 116 41t44 110q0 147 -207 162v25q215 27 215 170q0 67 -43.5 103t-114.5 36h-33l-155 -164v187q104 26 219 26q138 0 216.5 -48.5
t78.5 -145.5z" />
    <glyph glyph-name="two_subs" horiz-adv-x="651" 
d="M442 -16l93 100v-225h-443v30q134 111 212.5 227t78.5 199q0 86 -107 86h-14l-145 -165v184q90 22 178 22q250 0 250 -139q0 -81 -79.5 -169.5t-211.5 -149.5h188z" />
    <glyph glyph-name="two_sups" horiz-adv-x="651" 
d="M442 1145l93 100v-225h-443v31q140 118 213 227q78 119 78 201q0 84 -107 84h-14l-145 -166v184q94 23 178 23q250 0 250 -138q0 -83 -79 -171t-212 -150h188z" />
    <glyph glyph-name="twosuperior" horiz-adv-x="768" 
d="M528 856l117 127v-252h-547v39q175 146 275 287q102 144 102 239q0 113 -156 113h-30l-160 -164v187q91 30 219 30q309 0 309 -176q0 -111 -112 -229q-114 -120 -283 -201h266z" />
    <glyph glyph-name="ucircumflex" horiz-adv-x="1284" 
d="M844 297v600l-113 160h373v-899l117 -158h-377v174q-144 -199 -352 -199q-158 0 -244.5 107.5t-87.5 325.5l2 489l-115 160h481l-106 -160v-444q0 -161 42.5 -230t125.5 -69q141 0 254 143zM637 1550h4l348 -407l-26 -27l-326 156l-320 -156l-28 27z" />
    <glyph glyph-name="udieresis" horiz-adv-x="1290" 
d="M852 297v600l-115 160h375v-899l117 -158h-377v174q-144 -199 -352 -199q-158 0 -244.5 107.5t-87.5 325.5v489l-113 160h482l-107 -160v-444q0 -161 42.5 -230t125.5 -69q135 0 254 143zM453 1413q63 0 101 -35.5t38 -95.5t-38 -96.5t-101 -36.5q-62 0 -100 36.5
t-38 96.5t38 95.5t100 35.5zM825 1413q62 0 100 -35.5t38 -95.5t-38 -96.5t-100 -36.5q-63 0 -101 36.5t-38 96.5t38 95.5t101 35.5z" />
    <glyph glyph-name="underscore" horiz-adv-x="1398" 
d="M123 -102v102h1153v-102h-1153z" />
    <glyph glyph-name="wcircumflex" horiz-adv-x="1894" 
d="M1845 1057l-180 -252l-317 -805h-263l-194 565l-221 -565h-262l-361 1057h449l-107 -197l234 -694l217 551l-117 340h465l-109 -226l224 -663l251 637l-131 252h422zM924 1579h4l348 -408l-27 -24l-325 156l-320 -156l-29 24z" />
    <glyph glyph-name="wdieresis" horiz-adv-x="1898" 
d="M1851 1057l-180 -252l-317 -805h-262l-195 565l-221 -565h-260l-363 1057h449l-107 -197l234 -694l217 551l-117 340h465l-109 -226l224 -663l252 637l-131 252h421zM641 1186q-37 37 -37 96t37 94q37 37 100.5 37t100.5 -37q38 -35 38 -94t-38 -96q-37 -35 -100.5 -35
t-100.5 35zM1112 1413q63 0 101 -35.5t38 -95.5t-38 -95.5t-101 -35.5q-62 0 -99.5 35.5t-37.5 95.5t37.5 95.5t99.5 35.5z" />
    <glyph glyph-name="ycircumflex" horiz-adv-x="1267" 
d="M600 -512h-340l109 168l170 319l-506 1082h502l-121 -197l278 -598l289 543l-141 252h411l-153 -252l-609 -1145zM639 1575h4l348 -408l-26 -24l-326 153l-320 -153l-26 24z" />
    <glyph glyph-name="ydieresis" horiz-adv-x="1267" 
d="M600 -512h-340l111 168l168 319l-506 1082h502l-119 -197l276 -598l289 543l-141 252h411l-153 -252l-609 -1145zM463 1413q63 0 101 -35.5t38 -95.5t-38 -96.5t-101 -36.5q-62 0 -99.5 36.5t-37.5 96.5t37.5 95.5t99.5 35.5zM836 1413q63 0 101 -35.5t38 -95.5
t-38 -96.5t-101 -36.5q-62 0 -100 36.5t-38 96.5t38 95.5t100 35.5z" />
    <glyph glyph-name="zdotaccent" horiz-adv-x="1050" 
d="M82 0l-41 98l635 856h-258l-207 -254l-137 357h882l62 -76l-651 -879h299l206 289l129 -391h-919zM399 1290q0 63 39 101.5t105 38.5t104.5 -38.5t38.5 -101.5t-38.5 -99t-104.5 -36t-105 36.5t-39 98.5z" />
    <glyph glyph-name="zero_subs" horiz-adv-x="768" 
d="M666 145q0 -140 -74.5 -219.5t-204.5 -79.5q-131 0 -206 80t-75 219q0 137 75.5 216t205.5 79t204.5 -79t74.5 -216zM387 -111q50 0 81.5 69t31.5 189q0 118 -31 185q-31 66 -82.5 65.5t-83.5 -67.5q-31 -67 -31 -185q0 -117 31.5 -186.5t83.5 -69.5z" />
    <glyph glyph-name="zero_sups" horiz-adv-x="768" 
d="M666 1309q0 -140 -74.5 -219.5t-204.5 -79.5q-131 0 -206 80t-75 219q0 137 75.5 216t205.5 79t204.5 -79t74.5 -216zM272 1309q0 -120 31.5 -188t83.5 -68q50 0 81.5 69t31.5 189q0 117 -30.5 183.5t-82.5 66.5t-83.5 -67.5t-31.5 -184.5z" />
    </font>
</defs>
</svg>
