<?xml version="1.0" standalone="no"?>
<!DOCTYPE svg PUBLIC "-//W3C//DTD SVG 1.1//EN" "http://www.w3.org/Graphics/SVG/1.1/DTD/svg11.dtd" >
<svg xmlns="http://www.w3.org/2000/svg" xmlns:xlink="http://www.w3.org/1999/xlink" version="1.1">
<metadata>
Created by FontForge 20170731 at Thu Dec  9 15:30:46 2021
 By Aleksey,,,
Copyright (c) 2018 by TDC. All rights reserved. |DCNT
</metadata>
<defs>
<font id="USBlaak-Regular" horiz-adv-x="1169" >
  <font-face 
    font-family="US Blaak"
    font-weight="400"
    font-stretch="normal"
    units-per-em="2048"
    panose-1="0 0 0 0 0 0 0 0 0 0"
    ascent="1505"
    descent="-543"
    x-height="1057"
    cap-height="1434"
    bbox="-18 -573 2812 1960"
    underline-thickness="102"
    underline-position="-358"
    unicode-range="U+000D-FB05"
  />
<missing-glyph horiz-adv-x="1024" 
 />
    <glyph glyph-name="f_f" unicode="ff" horiz-adv-x="1503" 
d="M365 954v-807l145 -147h-432l102 147v807h-102v103h102v84q0 217 72.5 312t241.5 95q112 0 251 -39v-286l-198 223h-25q-157 0 -157 -209v-180h524v84q0 216 71 311.5t236 95.5q114 0 258 -39v-286l-199 223h-24q-158 0 -158 -209v-180h238v-103h-238v-807l105 -147h-412
l123 147v807h-524z" />
    <glyph glyph-name="f_i" unicode="fi" horiz-adv-x="1284" 
d="M780 0l144 147v742l-47 65h-519v-807l144 -147h-430l102 147v807h-102v103h102v84q0 216 72 311.5t239 95.5q115 0 254 -39v-286l-198 223h-25q-158 0 -158 -209v-180h750v-910l127 -147h-455zM987 1591l172 -147l-160 -176l-168 139z" />
    <glyph glyph-name="f_l" unicode="fl" horiz-adv-x="1259" 
d="M782 0l123 147v1063l-362 234l-27 2q-88 0 -123 -51.5t-35 -157.5v-180h394v-103h-394v-807l146 -147h-432l102 147v807h-100v103h100v84q0 216 71 311.5t236 95.5q114 0 258 -39l101 -98l250 125v-1389l106 -147h-414z" />
    <glyph glyph-name="f_f_i" unicode="ffi" horiz-adv-x="1982" 
d="M1036 1237v-180h750v-910l127 -147h-453l142 147v742l-48 65h-518v-807l146 -147h-432l102 147v807h-483v-807l143 -147h-430l102 147v807h-102v103h102v84q0 216 72.5 311.5t239.5 95.5q115 0 254 -39v-286l-199 223h-31q-151 0 -151 -209v-180h483v84q0 216 72 311.5
t239 95.5q115 0 254 -39v-286l-196 223h-27q-158 0 -158 -209zM1509 1407l156 184l172 -147l-160 -176z" />
    <glyph glyph-name="f_f_l" unicode="ffl" horiz-adv-x="1992" 
d="M1075 1237v-180h393v-103h-393v-807l144 -147h-431l103 147v807h-520v-807l143 -147h-430l102 147v807h-102v103h102v84q0 216 71.5 311.5t236.5 95.5q114 0 258 -39v-286l-199 223q-101 0 -141.5 -49t-40.5 -160v-180h520v84q0 216 71 311.5t236 95.5q114 0 258 -39
l100 -98l250 125v-1389l107 -147h-416l123 147v1063l-363 236q-102 0 -142 -49.5t-40 -159.5z" />
    <glyph glyph-name="f_t" unicode="ft" horiz-adv-x="1396" 
d="M887 219v735h-525v-807l146 -147h-432l102 147v807h-100v103h100v84q0 216 72 311.5t239 95.5q115 0 254 -39v-286l-196 223h-27q-158 0 -158 -209v-180h512l187 305v-305h223v-103h-213v-725q0 -147 88 -147q84 0 166 76l35 -43q-121 -142 -273 -142q-91 0 -145.5 63.5
t-54.5 182.5z" />
    <glyph glyph-name=".notdef" horiz-adv-x="1024" 
 />
    <glyph glyph-name=".null" horiz-adv-x="0" 
 />
    <glyph glyph-name="nonmarkingreturn" horiz-adv-x="682" 
 />
    <glyph glyph-name="NULL" horiz-adv-x="0" 
 />
    <glyph glyph-name="NULL" horiz-adv-x="0" 
 />
    <glyph glyph-name="CR.001" unicode="&#xd;" horiz-adv-x="512" 
 />
    <glyph glyph-name="space" unicode=" " horiz-adv-x="358" 
 />
    <glyph glyph-name="exclam" unicode="!" horiz-adv-x="360" 
d="M100 0q-31 31 -31 82t31 82q32 31 86 31t86 -31t32 -82t-32 -82t-86 -31t-86 31zM53 1434h269l-125 -1045h-21z" />
    <glyph glyph-name="quotedbl" unicode="&#x22;" horiz-adv-x="649" 
d="M207 1495q51 0 78.5 -33t25.5 -90q1 -41 -49 -129t-57 -106q-5 13 -58 104q-46 79 -49 129q-2 58 27 91.5t82 33.5zM453 1495q51 0 78.5 -33t25.5 -90q1 -41 -49 -129t-57 -106q-5 13 -58 104q-46 79 -49 129q-2 58 27 91.5t82 33.5z" />
    <glyph glyph-name="numbersign" unicode="#" horiz-adv-x="1406" 
d="M723 0l94 444h-338l-94 -444h-102l94 444h-322l21 105h323l72 336h-324l23 104h322l96 445h102l-94 -445h336l96 445h102l-94 -445h322l-23 -104h-321l-72 -336h322l-21 -105h-323l-95 -444h-102zM502 549h338l71 336h-338z" />
    <glyph glyph-name="dollar" unicode="$" horiz-adv-x="1228" 
d="M1151 358q0 -173 -129 -269.5t-352 -108.5v-211h-103v208q-31 0 -75 7q-240 21 -404 135v370h4l213 -350q119 -41 262 -47v553q-1 1 -7 2t-7 2l-129 43q-40 14 -117 53q-75 43 -108 76q-41 43 -69 105.5t-28 132.5q0 177 129 272q138 99 336 119v188h103v-182h20
q234 0 420 -76v-432h-2l-227 383q-102 31 -211 31v-574q93 -30 133 -45q52 -15 125 -55q75 -37 116 -78q46 -45 76.5 -111t30.5 -141zM670 612v-516q135 13 213 73.5t78 168.5q0 106 -70.5 166t-220.5 108zM567 819v535q-122 -19 -191 -84t-69 -174q0 -107 64 -169t196 -108
z" />
    <glyph glyph-name="percent" unicode="%" horiz-adv-x="1691" 
d="M434 1460q163 0 255.5 -96t92.5 -254q0 -162 -93 -262t-255 -100t-254 99t-92 261q0 160 92 256t254 96zM383 0h-127l1051 1434h127zM1262 692q159 0 252.5 -99t93.5 -255q0 -158 -93.5 -258t-250.5 -100q-162 0 -256 102q-95 106 -95 260q0 156 93.5 253t255.5 97z
M1444 342q0 142 -47 218.5t-133 76.5q-87 0 -136 -79t-49 -224t47 -222t134 -77t135.5 80t48.5 227zM254 1100q0 -301 180 -301q184 0 184 307q0 301 -180 301q-184 0 -184 -307z" />
    <glyph glyph-name="ampersand" unicode="&#x26;" horiz-adv-x="1509" 
d="M590 719q40 -72 135 -184q89 -105 207 -205l6 14l211 342l-105 156h408l-217 -205l-225 -361q150 -135 258 -135q86 0 172 99h4q0 -125 -76 -195t-176 -70q-137 0 -305 125q-129 -123 -338 -123q-190 0 -322 105q-129 108 -129 295q0 234 226 352q-109 195 -109 328
q0 195 111 300t313 105q154 0 270 -82q117 -80 117 -227q0 -256 -436 -434zM385 629q-100 -106 -100 -250q0 -133 78.5 -219t220.5 -86q128 0 223 86q-235 186 -422 469zM518 799q134 60 211 147t88 182q2 6 2 29q0 80 -52 129t-146 49q-107 0 -164.5 -64t-57.5 -175
q0 -160 119 -297z" />
    <glyph glyph-name="quotesingle" unicode="'" horiz-adv-x="354" 
d="M285 1372q-3 -37 -19 -74q-8 -16 -42 -75t-44 -86q-12 26 -41.5 76.5t-47.5 89.5t-17 67q-4 57 25.5 91t80.5 34t79 -33t26 -90z" />
    <glyph glyph-name="parenleft" unicode="(" horiz-adv-x="749" 
d="M725 -223q-279 40 -469 295q-188 256 -188 596q0 335 188 585q186 247 473 285q-163 -37 -280 -172q-218 -255 -218 -704q0 -212 52 -392q53 -187 169.5 -321.5t272.5 -171.5z" />
    <glyph glyph-name="parenright" unicode=")" horiz-adv-x="747" 
d="M27 -223q164 41 276 176q217 256 217 709q0 213 -51 389q-53 182 -168 315q-113 134 -278 172q287 -38 473 -285q188 -250 188 -585q0 -342 -190 -596q-187 -254 -467 -295z" />
    <glyph glyph-name="asterisk" unicode="*" horiz-adv-x="940" 
d="M582 1495l-86 -377l313 199l74 -193l-379 -51l307 -203l-168 -149l-168 338l-170 -338l-168 147l307 205l-378 51l106 193l281 -199l-86 377h215z" />
    <glyph glyph-name="plus" unicode="+" horiz-adv-x="1001" 
d="M977 600h-424v-422h-102v422h-422v102h422v424h102v-424h424v-102z" />
    <glyph glyph-name="comma" unicode="," horiz-adv-x="356" 
d="M176 -29q-44 0 -73 31t-29 78q0 51 32.5 83t86.5 32q55 0 86.5 -34t31.5 -91q0 -90 -69 -174q-68 -89 -152 -107q33 30 59.5 85.5t26.5 96.5z" />
    <glyph glyph-name="period" unicode="." horiz-adv-x="391" 
d="M127 0q-31 31 -31 82t31 82q32 31 86 31t86 -31t32 -82t-32 -82t-86 -31t-86 31z" />
    <glyph glyph-name="slash" unicode="/" horiz-adv-x="997" 
d="M156 -225h-127l815 1761h129z" />
    <glyph glyph-name="zero" unicode="0" horiz-adv-x="1386" 
d="M698 1454q277 0 435.5 -186.5t158.5 -542.5q0 -369 -164 -557q-162 -186 -428 -186q-600 0 -600 716q0 374 158 565t440 191zM705 80q387 0 387 633q0 324 -101 484.5t-291 160.5q-192 0 -295.5 -161t-103.5 -478q0 -316 105 -477.5t299 -161.5z" />
    <glyph glyph-name="one" unicode="1" horiz-adv-x="503" 
d="M98 1350l242 112v-1323l129 -139h-414l121 127l-2 1112z" />
    <glyph glyph-name="two" unicode="2" horiz-adv-x="1120" 
d="M819 139l211 252v-391h-962v80q345 284 540 553t195 457q0 131 -89.5 203.5t-226.5 72.5q-81 0 -141 -14l-176 -267v320q225 57 383 57q77 0 142 -12t111 -32t81.5 -49t57.5 -59.5t36 -66.5t19.5 -68t5.5 -65q0 -106 -57.5 -232.5t-151.5 -240.5q-94 -115 -195 -213
q-191 -188 -346 -285h563z" />
    <glyph glyph-name="three" unicode="3" horiz-adv-x="1118" 
d="M1010 1090q0 -311 -422 -355q435 -21 438 -340q1 -112 -48.5 -196t-141.5 -129q-171 -86 -410 -86q-177 0 -334 39v370l219 -311q76 -8 123 -8q160 0 275 80q114 82 114 243q0 154 -121 223.5t-389 69.5v90q502 6 502 295q-1 147 -111.5 220t-293.5 73q-86 0 -142 -12
l-176 -262v317l6 2q181 45 367 45q86 0 161.5 -10.5t147.5 -37t123 -67.5t82 -105.5t31 -147.5z" />
    <glyph glyph-name="four" unicode="4" horiz-adv-x="1050" 
d="M637 451l166 401v-401h69l117 272v-375h-186v-221l106 -127h-372l102 115v233h-608v60q272 196 377 442q106 244 106 584h209q0 -338 -131 -603q-128 -265 -391 -380h436z" />
    <glyph glyph-name="five" unicode="5" horiz-adv-x="1095" 
d="M952 1473l29 -23q-30 -147 -140 -221t-270 -74q-157 0 -290 68l-48 -410q125 82 326 82q220 0 341.5 -113.5t121.5 -306.5q0 -216 -150 -354q-146 -137 -417 -137q-184 0 -361 63v346l195 -287q61 -12 125 -12q166 0 282 90q115 89 115 260t-113 244q-110 76 -286 76
q-154 0 -291 -41l82 709q183 -89 350 -89q204 0 399 130z" />
    <glyph glyph-name="six" unicode="6" horiz-adv-x="1273" 
d="M309 723q55 96 171 152.5t251 56.5q188 0 320 -117q133 -118 133 -346q0 -227 -139.5 -357t-399.5 -130q-265 0 -407 177t-142 490q0 395 181.5 605t529.5 210q163 0 342 -45v-317l-207 274q-27 6 -57 6q-226 0 -396 -182q-165 -180 -180 -477zM307 631q0 -119 12 -202
t43 -167q66 -176 281 -176q164 0 260 104.5t96 284.5q0 171 -85 257.5t-226 86.5q-120 0 -231 -57q-113 -55 -150 -131z" />
    <glyph glyph-name="seven" unicode="7" horiz-adv-x="1134" 
d="M248 1305l-168 -220v359h1024l-86 -197q-140 -103 -231 -205.5t-164 -244.5q-144 -287 -144 -797h-200q0 98 2 139q3 62 18 170q15 114 39 201q27 98 79.5 213.5t117.5 206.5q76 103 187 201.5t241 173.5h-715z" />
    <glyph glyph-name="eight" unicode="8" horiz-adv-x="1286" 
d="M147 1079q0 159 136 271q134 110 366 110q242 0 367 -94q129 -92 129 -223q0 -118 -95.5 -216t-256.5 -139q149 -42 266 -124q68 -48 104.5 -121t32.5 -158q-9 -170 -170 -289q-158 -116 -414 -116q-253 0 -383 112q-131 113 -131 275q0 124 80 232t217 161
q-248 114 -248 319zM293 383q0 -129 87.5 -213t242.5 -84q139 0 243 64q107 64 107 188q0 125 -121 203q-60 38 -115 61q-26 12 -83 36.5t-102 45t-71 35.5q-88 -56 -138 -147.5t-50 -188.5zM684 1362q-139 0 -222 -63.5t-83 -159.5q0 -98 83.5 -183.5t233.5 -126.5
q117 48 187 142q73 94 73 188q0 91 -70.5 147t-201.5 56z" />
    <glyph glyph-name="nine" unicode="9" horiz-adv-x="1273" 
d="M971 723q-56 -95 -173 -152t-249 -57q-190 0 -322 117q-131 116 -131 346q0 227 139.5 357t399.5 130q265 0 407 -177t142 -490q0 -395 -182 -605t-529 -210q-163 0 -342 45v317l207 -274q31 -7 57 -7q225 0 393 183q168 180 183 477zM973 815q0 119 -12 202t-43 167
q-66 176 -281 176q-164 0 -260 -104.5t-96 -284.5q0 -171 85 -257.5t226 -86.5q118 0 231 55q113 58 150 133z" />
    <glyph glyph-name="colon" unicode=":" horiz-adv-x="313" 
d="M76 45q-31 31 -31 82t31 82q32 31 86 31t86 -31t32 -82t-32 -82t-86 -31t-86 31zM76 762q-31 31 -31 82t31 82q32 31 86 31t86 -31t32 -82t-32 -82t-86 -31t-86 31z" />
    <glyph glyph-name="semicolon" unicode=";" horiz-adv-x="327" 
d="M158 12q-44 0 -73.5 31t-29.5 78q0 51 32.5 83t86.5 32q55 0 87 -34t32 -91q0 -89 -70 -174q-68 -89 -151 -107q33 30 59.5 85.5t26.5 96.5zM86 762q-31 31 -31 82t31 82q32 31 86 31t86 -31t32 -82t-32 -82t-86 -31t-86 31z" />
    <glyph glyph-name="less" unicode="&#x3c;" horiz-adv-x="927" 
d="M27 659v5l798 387l35 -82l-629 -307l629 -308l-35 -82z" />
    <glyph glyph-name="equal" unicode="=" horiz-adv-x="862" 
d="M80 764v102h702v-102h-702zM80 436v103h702v-103h-702z" />
    <glyph glyph-name="greater" unicode="&#x3e;" horiz-adv-x="935" 
d="M709 662l-629 307l35 82l798 -387v-5l-798 -387l-35 82z" />
    <glyph glyph-name="question" unicode="?" horiz-adv-x="862" 
d="M342 0q-31 31 -31 82t31 82q32 31 86 31t86 -31t32 -82t-32 -82t-86 -31t-86 31zM430 449h-14q-83 65 -80 186q1 68 39.5 136t91.5 116q54 49 91.5 120t37.5 146q0 207 -252 207q-58 0 -123 -10l-184 -267v320q219 57 375 57q232 0 321 -80q88 -76 88 -215
q0 -100 -41 -184.5t-108 -144.5q-14 -13 -51.5 -45.5t-54 -48t-46 -46t-43 -53.5t-28.5 -55t-19 -66.5t0 -72.5z" />
    <glyph glyph-name="at" unicode="@" horiz-adv-x="2021" 
d="M1122 1462q360 0 590 -217q232 -215 232 -549q0 -287 -168 -485q-169 -199 -412 -199q-135 0 -214 62.5t-77 167.5q-32 -102 -123.5 -166t-201.5 -64q-128 0 -206.5 89.5t-78.5 232.5q0 297 166 514q168 219 393 219q136 0 211 -78l250 55l-197 -743q-8 -24 -8 -57
q0 -127 149 -127q130 0 228 104q94 99 140 231.5t46 266.5q0 267 -209 455q-207 186 -516 186q-178 4 -350 -73t-297.5 -205.5t-200.5 -302.5t-71 -355q0 -336 223 -543q226 -209 577 -209q249 0 486 146l53 -88q-245 -160 -551 -160q-395 0 -643 242q-248 239 -248 622
q-3 137 33 270t102.5 247t163 210.5t210 163.5t247.5 103.5t272 33.5zM801 160q97 0 178 112q86 118 115 230l106 399q-56 39 -119 39q-104 0 -198 -104q-96 -107 -148 -246q-51 -134 -51 -256q0 -174 117 -174z" />
    <glyph glyph-name="A" unicode="A" horiz-adv-x="1474" 
d="M1438 0h-389l73 147l-118 371h-580l-139 -371l110 -147h-360l151 184l443 1164l-58 86h326l422 -1250zM971 621l-242 686h-8l-258 -686h508z" />
    <glyph glyph-name="B" unicode="B" horiz-adv-x="1280" 
d="M1210 426q0 -201 -157.5 -313.5t-438.5 -112.5h-540l106 147v1160l-106 127h540q531 0 531 -340q0 -228 -248 -322q313 -64 313 -346zM641 688h-254v-586h242q354 0 354 287q0 149 -90 224t-252 75zM629 1331h-242v-540h207q153 0 239.5 76.5t86.5 207.5
q0 123 -76.5 189.5t-214.5 66.5z" />
    <glyph glyph-name="C" unicode="C" horiz-adv-x="1316" 
d="M1251 1384v-354h-2l-164 273q-145 59 -284 59q-230 0 -367 -168q-136 -171 -133 -475q1 -305 137.5 -473t376.5 -168q127 0 270 49l162 270h4v-356q-209 -57 -424 -57q-123 0 -228.5 21.5t-204.5 74.5t-168.5 135.5t-111 212t-40.5 295.5q0 158 41 283.5t110.5 208.5
t166.5 138t203.5 79t227.5 24q209 0 428 -72z" />
    <glyph glyph-name="D" unicode="D" horiz-adv-x="1380" 
d="M1315 719q0 -356 -209 -537.5t-596 -181.5h-434l106 147v1160l-106 127h434q388 0 596.5 -181t208.5 -534zM561 1331h-172v-1231h172q260 0 395 176q136 180 136 451q2 127 -29.5 235t-95.5 190.5t-168 130t-238 48.5z" />
    <glyph glyph-name="E" unicode="E" horiz-adv-x="1275" 
d="M893 504l-145 164h-363v-566h627l186 295h2v-397h-1126l106 147v1160l-106 127h1106v-404h-2l-187 301h-606v-561h363l145 164v-430z" />
    <glyph glyph-name="F" unicode="F" horiz-adv-x="1196" 
d="M791 627h-406v-480l113 -147h-424l104 147v1160l-104 127h1106v-404h-2l-187 301h-606v-602h406l145 164v-430z" />
    <glyph glyph-name="G" unicode="G" horiz-adv-x="1511" 
d="M1038 729h414l-104 -143v-586l-162 47q-189 -59 -406 -59l-65 6q-281 30 -461 219q-178 190 -178 522q0 139 34.5 254t94 195.5t144 138.5t180.5 88.5t206 40.5q58 4 131 4q195 -6 387 -70v-356h-2l-164 273q-129 57 -270 57q-218 0 -366 -154q-149 -152 -146 -461
q0 -308 155.5 -477.5t448.5 -169.5q103 0 234 25v463z" />
    <glyph glyph-name="H" unicode="H" horiz-adv-x="1540" 
d="M391 1307v-516h762v516l-109 127h416l-102 -127v-1160l108 -147h-422l109 147v541h-762v-541l107 -147h-418l106 147v1160l-108 127h416z" />
    <glyph glyph-name="I" unicode="I" horiz-adv-x="491" 
d="M436 1434l-84 -127v-1160l105 -147h-412l102 147l-2 1160l-100 127h391z" />
    <glyph glyph-name="J" unicode="J" horiz-adv-x="612" 
d="M584 1434l-103 -127v-772q0 -206 -11 -332.5t-40 -227.5q-43 -146 -136 -200t-282 -60v68q158 0 211 121t53 469v934l-106 127h414z" />
    <glyph glyph-name="K" unicode="K" horiz-adv-x="1431" 
d="M387 608v-461l107 -147h-412l100 147l-2 1160l-98 127h412l-107 -127v-555l600 563l-92 119h369l-508 -480l458 -770l181 -184h-285l-494 825z" />
    <glyph glyph-name="L" unicode="L" horiz-adv-x="1138" 
d="M506 1434l-123 -127v-1205h555l188 295v-397h-1048l100 147v1160l-100 127h428z" />
    <glyph glyph-name="M" unicode="M" horiz-adv-x="1771" 
d="M1696 0h-412l98 147v961l-499 -1108h-70l-524 1198l2 -1051l104 -147h-309l100 147v1160l-77 127h301l495 -1135l510 1135h232l-60 -127v-1160z" />
    <glyph glyph-name="N" unicode="N" horiz-adv-x="1519" 
d="M391 0h-309l100 147v1172l-98 115h283l876 -1276v1161l-100 115h307l-104 -115v-1319h-228l-833 1198v-1051z" />
    <glyph glyph-name="O" unicode="O" horiz-adv-x="1589" 
d="M799 1475q141 0 269.5 -48.5t227.5 -140.5q105 -93 164.5 -240t59.5 -327t-59.5 -327.5t-164.5 -241.5q-100 -91 -228 -139t-269 -48q-301 0 -512 199t-211 557q0 242 104 416q101 172 260.5 256t358.5 84zM301 717q0 -315 134 -477t364 -162q235 0 364 167.5t129 475.5
q0 315 -134 476t-365 161q-234 0 -363 -166.5t-129 -474.5z" />
    <glyph glyph-name="P" unicode="P" horiz-adv-x="1210" 
d="M598 496h-211v-349l107 -147h-420l106 147v1160l-106 127h524q282 0 435 -118t153 -335q0 -226 -156.5 -355.5t-431.5 -129.5zM610 1331h-223v-733h203q181 0 276 98t95 277q0 171 -91.5 264.5t-259.5 93.5z" />
    <glyph glyph-name="Q" unicode="Q" horiz-adv-x="1652" 
d="M1051 -299q141 0 260.5 60t251.5 204l28 -22q-181 -424 -573 -424q-131 0 -385 78q-245 77 -371 77q-74 0 -145 -18l-13 10l322 391q-166 95 -259 264.5t-93 397.5q0 354 213 555t512 201q141 0 269.5 -48.5t227.5 -140.5q105 -93 164.5 -240t59.5 -327t-59.5 -327.5
t-164.5 -241.5q-100 -91 -228 -139t-269 -48q-170 0 -310 64l-141 -189q164 -15 326 -69q245 -68 377 -68zM301 717q0 -315 134 -477t364 -162q235 0 364 166.5t129 474.5q0 324 -139 481q-140 158 -360 158q-234 0 -363 -166.5t-129 -474.5z" />
    <glyph glyph-name="R" unicode="R" horiz-adv-x="1400" 
d="M887 580l346 -467l119 -113h-281l-446 643h-234v-496l107 -147h-422l108 147v1160l-108 127h530q572 0 572 -383q0 -178 -119 -285t-320 -121zM618 1331h-227v-586h227q148 0 241 78.5t93 225.5q0 140 -87.5 211t-246.5 71z" />
    <glyph glyph-name="S" unicode="S" horiz-adv-x="1226" 
d="M1153 358q0 -104 -49 -183.5t-135 -121.5q-168 -76 -369 -76q-36 0 -51 3q-270 9 -459 139v370h4l213 -350q133 -47 295 -47q157 0 258 58q104 60 101 188q5 61 -31.5 112.5t-91.5 88.5q-31 24 -84 43l-88 34l-101 33l-131 41q-49 18 -121 53q-100 49 -151 123t-58 191
q0 137 86 229q156 170 500 170q236 0 422 -76v-432h-2l-227 383q-109 31 -215 31q-147 0 -254 -64q-105 -64 -105 -200q0 -103 65 -168t191 -109q67 -23 129 -41q29 -8 119 -39q54 -17 117 -51q72 -34 114 -76q47 -45 78 -112t31 -144z" />
    <glyph glyph-name="T" unicode="T" horiz-adv-x="1280" 
d="M1247 1030h-2l-186 301h-311v-1184l106 -147h-412l101 147v1184h-314l-186 -301h-2v404h1206v-404z" />
    <glyph glyph-name="U" unicode="U" horiz-adv-x="1452" 
d="M1077 1434h307l-104 -127v-721q0 -324 -119 -473.5t-395 -149.5q-320 0 -459 160q-135 159 -135 510v674l-102 127h413l-106 -127v-672q0 -307 88 -432t293 -125q245 0 336 155q84 142 84 381v693z" />
    <glyph glyph-name="V" unicode="V" horiz-adv-x="1515" 
d="M1487 1434l-137 -148l-490 -1286h-256l-461 1296l-100 138h383l-80 -127l422 -1186h27l452 1186l-100 127h340z" />
    <glyph glyph-name="W" unicode="W" horiz-adv-x="2236" 
d="M725 117h23l327 919l-86 271l-121 127h420l-84 -127l381 -1190h21l354 1190l-80 127h297l-113 -136l-387 -1298h-270l-281 874l-311 -874h-256l-389 1298l-111 136h398l-82 -127z" />
    <glyph glyph-name="X" unicode="X" horiz-adv-x="1478" 
d="M242 184l383 543l-500 707h438l-90 -136l326 -458l315 458l-110 136h421l-176 -136l-387 -542l561 -756h-430l64 147l-361 488l-344 -488l107 -147h-402z" />
    <glyph glyph-name="Y" unicode="Y" horiz-adv-x="1361" 
d="M461 1434l-109 -127l379 -590l369 590l-103 127h340l-123 -127l-423 -705v-455l124 -147h-432l103 147l-2 418l-553 869h430z" />
    <glyph glyph-name="Z" unicode="Z" horiz-adv-x="1226" 
d="M158 0l-97 203l902 1128h-543l-105 -291l-184 394h936l100 -177l-921 -1155h596l178 295l121 -397h-983z" />
    <glyph glyph-name="bracketleft" unicode="[" horiz-adv-x="563" 
d="M281 1382v-1443l262 -123l-426 -41l-2 1761l428 -41z" />
    <glyph glyph-name="backslash" unicode="\" horiz-adv-x="997" 
d="M844 -225l-815 1761h127l815 -1761h-127z" />
    <glyph glyph-name="bracketright" unicode="]" horiz-adv-x="540" 
d="M451 1536l-2 -1761l-426 41l262 123v1443l-262 113z" />
    <glyph glyph-name="uni005F" unicode="_" horiz-adv-x="1398" 
d="M123 -102v102h1153v-102h-1153z" />
    <glyph glyph-name="a" unicode="a" horiz-adv-x="1122" 
d="M84 270q0 61 24 116t58 91q35 35 94 68q68 36 102 49l115 41l74 24q70 26 82 33q58 34 89.5 68t31.5 84q0 44 -25 74t-63 30h-304l-135 -239l-135 348h881l-23 -101v-806l109 -150h-295v215q-57 -99 -157 -162t-210 -69q-144 0 -228.5 74.5t-84.5 211.5zM766 311v373
q-60 -78 -242 -164l-94 -47q-20 -11 -72 -47q-75 -56 -75 -145q0 -69 45.5 -105.5t117.5 -36.5q3 0 13.5 1t13.5 1q156 15 293 170z" />
    <glyph glyph-name="b" unicode="b" horiz-adv-x="1136" 
d="M174 1307l-106 153l290 76v-621q165 160 351 160q170 0 284 -135q115 -133 115 -362q-3 -249 -145 -422q-140 -174 -345 -174q-147 0 -284 98l-160 -98v1325zM569 131q147 0 240.5 105t93.5 292q0 178 -84 291q-83 111 -207 111q-127 0 -254 -121v-623q107 -55 211 -55z
" />
    <glyph glyph-name="c" unicode="c" horiz-adv-x="1077" 
d="M971 1042v-331l-230 254q-38 6 -75 6q-186 0 -289 -140q-98 -137 -98 -333q0 -194 95.5 -306t246.5 -112q96 0 172 31q74 29 176 137l55 -55q-177 -216 -489 -216q-211 12 -338 183q-125 171 -125 397q0 256 164 385q166 132 438 129q102 0 297 -29z" />
    <glyph glyph-name="d" unicode="d" horiz-adv-x="1167" 
d="M797 942v365l-117 153l301 76v-1364l127 -172h-311v213q-53 -116 -145 -176t-210 -60q-193 0 -301 150q-104 149 -104 377q0 258 129 414q133 157 321 157q177 0 310 -133zM526 135q146 0 271 174v510q-111 111 -236 111q-139 0 -229 -113.5t-90 -306.5q0 -179 78 -277
t206 -98z" />
    <glyph glyph-name="e" unicode="e" horiz-adv-x="1112" 
d="M1042 471h-761q10 -187 106 -289t252 -102q179 0 328 168l55 -55q-176 -218 -434 -218q-232 0 -375 152q-139 154 -139 403q-3 252 137 398q141 147 383 147q111 -1 197 -33.5t139 -89t85.5 -132.5t36 -164.5t-9.5 -184.5zM600 956q-131 0 -219 -97t-100 -284h565
q4 69 -5 131.5t-34 121t-78 93.5t-129 35z" />
    <glyph glyph-name="f" unicode="f" horiz-adv-x="735" 
d="M723 1509v-286l-197 221l-26 2q-11 0 -47 -4q-43 -13 -70 -43q-41 -53 -41 -162v-180h240v-103h-240v-807l104 -147h-391l103 147v807h-101v103h101v84q0 182 55 289q63 118 252 118q119 0 258 -39z" />
    <glyph glyph-name="g" unicode="g" horiz-adv-x="1357" 
d="M1047 915l249 197v-252h-213q66 -91 66 -229q0 -209 -145 -318q-141 -106 -365 -106q-200 0 -336 86q0 -24 6 -45q3 -17 15 -37q29 -43 88 -66q70 -23 116 -28l160 -11q23 -1 119 -8q7 0 108 -14q62 -8 105 -29q71 -30 116.5 -90t39.5 -149q0 -107 -53 -187.5
t-146 -122.5q-168 -79 -379 -79q-175 0 -332 57q-87 30 -137.5 89.5t-50.5 137.5q0 92 65 163t170 110q-149 64 -149 186q0 92 90 158q-145 121 -145 319q0 209 149 316q149 110 367 110q270 0 422 -158zM313 645q0 -146 89 -231.5t237 -85.5q141 0 222 82t81 223
q0 146 -85 233.5t-228 87.5t-229.5 -84t-86.5 -225zM1006 -260q0 96 -134 145q-120 39 -266 52l-88 6q-82 6 -123 12q-128 -58 -149 -150q-4 -32 -4 -41q0 -87 71 -143q66 -53 144 -71.5t178 -18.5q78 3 158 25q79 19 145 67q68 47 68 117z" />
    <glyph glyph-name="h" unicode="h" horiz-adv-x="1157" 
d="M719 1071q138 0 224.5 -95t86.5 -278v-551l105 -147h-390l99 147v482q0 282 -195 282q-74 0 -136.5 -35.5t-147.5 -115.5v-613l106 -147h-393l102 147l-2 1162l-96 153l283 74v-621q70 70 167 113t187 43z" />
    <glyph glyph-name="i" unicode="i" horiz-adv-x="466" 
d="M51 1024l281 84v-961l127 -147h-432l120 147v742zM223 1268l-168 139l156 184l172 -147z" />
    <glyph glyph-name="j" unicode="j" horiz-adv-x="489" 
d="M195 25l-2 864l-97 115l283 104v-1010q0 -131 -2 -174q-4 -182 -35 -256q-36 -115 -109 -151q-89 -47 -227 -47v61q117 5 162 143q12 34 18 99q9 92 9 252zM252 1591l172 -147l-160 -176l-168 139z" />
    <glyph glyph-name="k" unicode="k" horiz-adv-x="1196" 
d="M367 582l446 362l-76 111h371l-410 -338l320 -543l168 -174h-275l-356 600l-188 -151v-302l104 -147h-393l102 147v1162l-98 151l285 76v-954z" />
    <glyph glyph-name="l" unicode="l" horiz-adv-x="462" 
d="M47 1460l285 76v-1389l106 -147h-393l102 147l-2 1160z" />
    <glyph glyph-name="m" unicode="m" horiz-adv-x="1890" 
d="M1044 840q17 -73 17 -142v-551l104 -147h-389l98 147v482q0 144 -62.5 224.5t-166.5 80.5q-132 0 -270 -123v-664l104 -147h-391l102 147l-2 732l-98 153l285 74v-191q69 67 175 111.5t198 44.5q179 0 264 -149q69 63 182 106t205 43q138 0 225.5 -95.5t87.5 -277.5v-551
l105 -147h-390l99 147v482q0 144 -65 224.5t-173 80.5q-119 0 -244 -94z" />
    <glyph glyph-name="n" unicode="n" horiz-adv-x="1191" 
d="M719 1071q138 0 225.5 -95.5t87.5 -277.5v-551l103 -147h-390l101 147v482q0 145 -59.5 226t-159.5 81q-126 0 -260 -125v-664l104 -147h-393l104 147l-2 732l-98 153l285 74v-191q73 70 168 113t184 43z" />
    <glyph glyph-name="o" unicode="o" horiz-adv-x="1241" 
d="M78 524q0 257 146.5 404t404.5 147q257 0 401 -145t144 -402q0 -259 -143.5 -406t-403.5 -147t-404.5 146.5t-144.5 402.5zM623 971q-156 0 -248 -117t-92 -328q0 -212 93 -329t251 -117q157 0 249 119t91 336q-1 110 -28 194.5t-74 136.5t-108 78.5t-134 26.5z" />
    <glyph glyph-name="p" unicode="p" horiz-adv-x="1159" 
d="M193 879l-101 155l285 74v-193q67 73 163.5 116.5t190.5 43.5q167 0 283 -125q119 -125 116 -362q0 -270 -143 -438q-140 -168 -346 -168q-133 0 -264 79v-399l129 -174h-434l121 174v1217zM596 131q158 0 244 123q86 127 86 311q0 172 -72.5 274.5t-191.5 102.5
q-136 0 -285 -131v-627q121 -53 219 -53z" />
    <glyph glyph-name="q" unicode="q" horiz-adv-x="1148" 
d="M969 1106v-1444l118 -174h-425l122 176v539q-64 -113 -158 -170.5t-198 -57.5q-165 0 -281 134q-112 133 -112 364q3 248 143 422q143 174 346 174q148 0 285 -98zM573 920q-148 0 -240.5 -106.5t-92.5 -301.5q0 -175 74 -276t190 -101q83 0 159 48.5t121 125.5v555
q-109 56 -211 56z" />
    <glyph glyph-name="r" unicode="r" horiz-adv-x="940" 
d="M506 0h-418l107 147v732l-127 178h862l-115 -297l-250 211h-82q-61 0 -82.5 -25t-21.5 -92v-707z" />
    <glyph glyph-name="s" unicode="s" horiz-adv-x="1028" 
d="M942 1001v-331l-227 270q-71 27 -156 27q-45 1 -89.5 -7.5t-86.5 -26.5t-69 -52.5t-29 -79.5q0 -63 57 -113q20 -18 68 -39q37 -17 165 -59q87 -29 127 -45q46 -15 107 -49q116 -61 137 -183q13 -103 -25.5 -175t-121.5 -105q-148 -60 -330 -60q-86 0 -192.5 29.5
t-188.5 73.5v327l229 -299q77 -26 164 -26q93 0 172 28.5t107 81.5q10 27 10 45q3 91 -119 152q-62 32 -94 43l-94 33q-46 14 -109 37q-39 16 -94 41q-79 39 -118 92t-46 137q0 132 119 217q119 88 334 88q211 0 393 -72z" />
    <glyph glyph-name="t" unicode="t" horiz-adv-x="643" 
d="M600 158l35 -43q-121 -142 -273 -142q-91 0 -146 63t-56 183v735h-115v43l291 365v-305h223v-103h-213v-725q-2 -69 16.5 -104t77.5 -41q74 0 160 74z" />
    <glyph glyph-name="u" unicode="u" horiz-adv-x="1189" 
d="M836 313v596l-105 148h289v-910l110 -147h-294v213q-145 -238 -353 -238q-138 0 -225.5 96t-87.5 277v561l-104 148h389l-99 -148v-489q0 -283 189 -283q81 0 157.5 48.5t133.5 127.5z" />
    <glyph glyph-name="v" unicode="v" 
d="M592 115l319 764l-131 178h357l-115 -178l-367 -879h-217l-389 1057h381l-117 -178z" />
    <glyph glyph-name="w" unicode="w" horiz-adv-x="1845" 
d="M1800 1057l-168 -178l-346 -879h-219l-195 565l-221 -565h-223l-358 1057h360l-104 -178l258 -764l237 602l-116 340h385l-109 -226l240 -716l301 764l-119 178h397z" />
    <glyph glyph-name="x" unicode="x" horiz-adv-x="1247" 
d="M809 1057h383l-178 -178l-283 -330l424 -549h-418l94 147l-231 304l-262 -304l104 -147h-385l228 238l254 294l-408 525h449l-97 -178l191 -246l209 246z" />
    <glyph glyph-name="y" unicode="y" horiz-adv-x="1236" 
d="M575 -512h-342l109 164l182 346l-479 1059h406l-121 -178l303 -674l356 674l-129 178h361l-115 -178l-641 -1219z" />
    <glyph glyph-name="z" unicode="z" horiz-adv-x="1028" 
d="M115 0l-41 98l643 856h-332l-152 -245l-135 348h805l62 -76l-660 -879h369l157 265l121 -367h-837z" />
    <glyph glyph-name="braceleft" unicode="{" horiz-adv-x="641" 
d="M193 651q176 -30 176 -276q0 -51 -13 -178q-12 -114 -12 -156q0 -106 59.5 -159.5t208.5 -57.5v-62q-268 0 -362 76q-96 78 -96 219q0 60 18 189q21 132 21 190q0 182 -130 209v12q130 35 130 211q0 58 -21 187q-20 123 -20 188q0 141 96 219q98 76 364 76v-61
q-138 -4 -194 -56t-56 -159q0 -12 11 -144q10 -120 10 -166q0 -271 -190 -301z" />
    <glyph glyph-name="bar" unicode="|" horiz-adv-x="260" 
d="M225 -512h-102v2150h102v-2150z" />
    <glyph glyph-name="braceright" unicode="}" horiz-adv-x="636" 
d="M455 651q-191 27 -191 301q0 70 8 166q11 132 11 144q0 107 -55 159t-193 56v61q268 0 362 -76q97 -79 97 -219q0 -59 -21 -188q-18 -129 -18 -187q0 -176 129 -211v-12q-129 -27 -129 -209q0 -58 18 -190q21 -129 21 -189q0 -140 -97 -219q-94 -76 -362 -76v62
q147 4 207.5 58t60.5 159q0 50 -14 156q-13 127 -13 178q0 246 179 276z" />
    <glyph glyph-name="asciitilde" unicode="~" horiz-adv-x="825" 
d="M729 1016h4q2 -6 2 -33q0 -109 -50 -176.5t-132 -67.5q-61 0 -162 52q-99 51 -151 51q-102 0 -129 -105h-5q-2 8 -2 39q0 104 51.5 171t131.5 67q60 0 159 -51q101 -52 154 -52q99 0 129 105z" />
    <glyph glyph-name="exclamdown" unicode="&#xa1;" horiz-adv-x="362" 
d="M51 -510l125 1045h21l122 -1045h-268zM100 760q-32 31 -32 82t32 82t85.5 31t84.5 -31q32 -31 32 -82t-32 -82q-31 -31 -84.5 -31t-85.5 31z" />
    <glyph glyph-name="cent" unicode="&#xa2;" horiz-adv-x="1083" 
d="M965 1042v-331l-193 213l-209 -840h4q46 -4 62 -4q86 0 159 31q74 30 175 137l55 -55q-179 -218 -432 -218q-37 0 -47 2l-54 -208h-127l58 231q-161 52 -253.5 190.5t-92.5 344.5q0 96 21.5 176.5t60 137t88.5 99t111.5 68.5t124 39t130.5 16q10 2 51 2h25l57 234h129
l-61 -242q96 -12 158 -23zM446 125l211 846q-159 0 -272 -119q-113 -116 -113 -328q0 -289 174 -399z" />
    <glyph glyph-name="sterling" unicode="&#xa3;" horiz-adv-x="1230" 
d="M850 750v-103h-320q7 -54 7 -90q0 -223 -193 -410h574l212 342v-489h-1013v80q264 196 264 442q0 47 -19 125h-290v103h258q-92 213 -92 362q0 79 26 140.5t69.5 100t104 63t123.5 34.5t135 10q126 0 242 -26q110 -22 172 -54v-432l-293 410q-177 0 -268.5 -71.5
t-91.5 -233.5q0 -111 55 -303h338z" />
    <glyph glyph-name="currency" unicode="&#xa4;" horiz-adv-x="1513" 
d="M1360 1380l67 -67l-258 -256q113 -137 113 -342q0 -204 -111 -342l256 -256l-67 -68l-256 256q-136 -112 -344 -112q-206 0 -342 112l-258 -256l-68 68l258 256q-110 134 -110 342t110 342l-258 256l68 67l258 -256q135 111 342 111q206 0 344 -111zM465 408
q114 -117 295 -117t295 117q112 115 112 307t-112 307q-114 117 -295 117t-295 -117q-113 -116 -113 -307t113 -307z" />
    <glyph glyph-name="yen" unicode="&#xa5;" horiz-adv-x="1417" 
d="M1366 1434l-123 -127l-420 -699h310v-102h-314v-119h314v-102h-314v-138l125 -147h-432l102 147v138h-321v102h319v119h-319v102h291l-525 826h430l-108 -127l379 -590l368 590l-102 127h340z" />
    <glyph glyph-name="brokenbar" unicode="&#xa6;" horiz-adv-x="260" 
d="M225 731h-102v907h102v-907zM225 -512h-102v909h102v-909z" />
    <glyph glyph-name="section" unicode="&#xa7;" horiz-adv-x="1081" 
d="M602 1354q-44 2 -88.5 -6.5t-85.5 -26.5t-67.5 -52.5t-28.5 -80.5q0 -57 47 -101q44 -41 96 -63q69 -25 148 -49q50 -15 120 -41q35 -12 103 -47q120 -60 143 -168q6 -27 6 -62q0 -105 -66 -197.5t-175 -142.5q200 -92 200 -256q0 -149 -125 -225q-125 -78 -309 -78
q-212 0 -385 84q-22 9 -41 23v328l230 -299q70 -27 182 -27q115 0 188.5 41t73.5 127q0 70 -59 125q-24 24 -70 45q-52 29 -168 74q-50 18 -121 47q-47 21 -98 51q-111 63 -135 170q-6 27 -6 59q0 98 62.5 176.5t178.5 120.5q-209 92 -209 250q0 136 122 221.5t333 85.5
t391 -71v-332l-227 270q-70 27 -160 27zM809 604q0 110 -129 174q-89 44 -215 82q-77 -43 -125.5 -112t-48.5 -144q0 -91 94 -147q53 -27 90 -41q52 -19 115 -39l37 -12q92 36 137 102.5t45 136.5z" />
    <glyph glyph-name="copyright" unicode="&#xa9;" horiz-adv-x="1611" 
d="M1073 1110v-279l-194 252h-11q-133 0 -189 -91.5t-56 -268.5q0 -172 67 -277.5t189 -105.5h12l182 242v-263q-119 -55 -244 -55q-199 0 -313 135q-115 136 -115 346q0 215 117 314q115 100 295 100q123 0 260 -49zM98 713q0 321 195 516q197 194 516 194q322 0 516 -194
q197 -194 197 -516q0 -319 -197 -516q-195 -195 -516 -195q-318 0 -516 195q-195 198 -195 516zM203 725q0 -274 172 -446q173 -173 448 -173q283 0 439 175q159 175 159 432q0 279 -182 446q-180 168 -432 168q-241 0 -424 -160q-180 -158 -180 -442z" />
    <glyph glyph-name="ordfeminine" unicode="&#xaa;" horiz-adv-x="825" 
d="M98 887q0 104 80 155q39 27 68.5 41.5t91.5 36.5q174 61 174 160q0 66 -88 66h-105l-102 -158l-94 246h555l-14 -68v-518l84 -117h-228v150q-82 -166 -237 -166q-82 0 -133.5 44t-51.5 128zM520 946v232q-12 -51 -112 -111q-44 -26 -70 -45q-28 -19 -48 -49t-20 -60
q0 -73 78 -73q41 0 89.5 31t82.5 75z" />
    <glyph glyph-name="guillemotleft" unicode="&#xab;" horiz-adv-x="1044" 
d="M57 659v5l451 448l27 -27l-170 -423l170 -422l-27 -29zM467 659v5l451 448l26 -27l-170 -423l170 -422l-26 -29z" />
    <glyph glyph-name="logicalnot" unicode="&#xac;" horiz-adv-x="1050" 
d="M928 313h-103v314h-805v102h908v-416z" />
    <glyph glyph-name="uni00AD" unicode="&#xad;" horiz-adv-x="0" 
d="M123 600v102h743v-102h-743z" />
    <glyph glyph-name="registered" unicode="&#xae;" horiz-adv-x="1611" 
d="M98 713q0 321 195 516q197 194 516 194q322 0 516 -194q197 -194 197 -516q0 -319 -197 -516q-195 -195 -516 -195q-318 0 -516 195q-195 198 -195 516zM1112 432l127 -145h-285l-168 385h-79v-240l112 -145h-405l98 145l-2 569l-113 146h398q341 0 344 -234
q0 -100 -62 -166t-184 -73l123 -25zM809 106q268 0 438 170t170 437q0 266 -170 436q-169 172 -438 172q-267 0 -436 -172q-170 -170 -170 -436q0 -267 170 -437t436 -170zM707 1085v-352h51q183 0 186 180q0 172 -186 172h-51z" />
    <glyph glyph-name="uni00AF" unicode="&#xaf;" horiz-adv-x="989" 
d="M123 1331v103h743v-103h-743z" />
    <glyph glyph-name="degree" unicode="&#xb0;" horiz-adv-x="575" 
d="M150 1196q-54 57 -54 143q0 88 54 142q55 55 143 55t141 -53q55 -52 55 -144q0 -91 -55 -143q-53 -53 -141 -53q-87 0 -143 53zM293 1245q57 -5 80.5 45t0 99.5t-80.5 44.5q-41 0 -67.5 -27t-26.5 -68t27.5 -67.5t66.5 -26.5z" />
    <glyph glyph-name="pluminus" unicode="&#xb1;" horiz-adv-x="899" 
d="M37 102h825v-102h-825v102zM500 641h362v-102h-362v-320h-103v320h-360v102h360v322h103v-322z" />
    <glyph glyph-name="acute" unicode="&#xb4;" horiz-adv-x="454" 
d="M170 1434h266l-348 -332z" />
    <glyph glyph-name="uni00B5" unicode="&#xb5;" horiz-adv-x="1214" 
d="M207 899l-115 156h301v-635q0 -283 189 -283q81 0 157 48.5t133 127.5v596l-104 146h289v-908l110 -147h-295v213q-145 -238 -352 -238q-66 0 -127 25v-365l107 -147h-394l101 147v1264z" />
    <glyph glyph-name="dotmiddle" unicode="&#xb7;" horiz-adv-x="616" 
d="M98 729q0 98 59 157.5t156 59.5q98 0 157.5 -59.5t59.5 -157.5q0 -97 -59.5 -156t-157.5 -59q-97 0 -156 59t-59 156z" />
    <glyph glyph-name="cedilla" unicode="&#xb8;" horiz-adv-x="665" 
d="M602 -254q0 -82 -71 -135t-181 -53q-114 0 -194 59q-79 58 -82 145q34 -116 170 -116q63 0 102 29.5t39 78.5q0 51 -38 81t-101 30q-43 0 -70 -15l100 181h60l-12 -111q35 6 65 6q92 0 152.5 -51t60.5 -129z" />
    <glyph glyph-name="ordmasculine" unicode="&#xba;" horiz-adv-x="872" 
d="M442 1468q160 0 252 -108q94 -107 94 -266q0 -157 -92 -269q-91 -110 -252 -110q-163 0 -256 112q-94 113 -94 271q0 153 92 262q94 108 256 108zM625 1098q0 147 -47.5 231t-133.5 84t-135 -87t-49 -236t47.5 -234.5t132.5 -85.5q86 0 135.5 89t49.5 239z" />
    <glyph glyph-name="guillemotright" unicode="&#xbb;" horiz-adv-x="1040" 
d="M272 662l-170 423l27 27l451 -448v-5l-451 -448l-27 29zM682 662l-170 423l27 27l450 -448v-5l-450 -448l-27 29z" />
    <glyph glyph-name="onequarter" unicode="&#xbc;" horiz-adv-x="772" 
d="M385 139l125 150v-150h10l88 111v-152h-98v-65l49 -74h-237l55 68v71h-213v25q125 116 179 211t54 203h113q0 -140 -64.5 -237t-214.5 -161h154zM35 729h702v-102h-702v102zM258 1360l205 45v-512l51 -74h-231l47 68v411z" />
    <glyph glyph-name="onehalf" unicode="&#xbd;" horiz-adv-x="782" 
d="M506 49l92 101v-209h-426v30q131 109 207 224.5t76 201.5t-107 86h-14l-137 -166v185q90 22 176 22q235 0 235 -137q0 -86 -76.5 -178.5t-205.5 -159.5h180zM39 729h704v-102h-704v102zM262 1360l205 45v-512l51 -74h-231l47 68v411z" />
    <glyph glyph-name="questiondown" unicode="&#xbf;" horiz-adv-x="866" 
d="M344 758q-31 31 -31 82t31 82q32 31 86 31t86 -31t32 -82t-32 -82t-86 -31t-86 31zM418 473h14q-18 -154 121 -280q102 -87 134 -121q136 -142 136 -316q0 -139 -88 -215q-89 -80 -321 -80q-152 0 -375 58v319l184 -266q65 -10 123 -10q252 0 252 207q0 75 -37.5 146
t-91.5 118q-53 50 -91.5 118t-39.5 136q-3 121 80 186z" />
    <glyph glyph-name="Agrave" unicode="&#xc0;" horiz-adv-x="1449" 
d="M1427 0h-389l74 147l-119 371h-579l-140 -371l111 -147h-360l151 184l442 1164l-57 86h326l422 -1250zM457 1843h268l82 -332zM961 621l-242 686h-8l-258 -686h508z" />
    <glyph glyph-name="Aacute" unicode="&#xc1;" horiz-adv-x="1449" 
d="M1425 0h-389l74 147l-119 371h-579l-140 -371l111 -147h-360l151 184l442 1164l-57 86h326l422 -1250zM641 1511l82 332h266zM958 621l-241 686h-8l-258 -686h507z" />
    <glyph glyph-name="Acircumflex" unicode="&#xc2;" horiz-adv-x="1456" 
d="M1432 0h-390l74 147l-119 371h-579l-139 -371l110 -147h-360l151 184l443 1164l-58 86h326l422 -1250zM735 1821h2l238 -279l-19 -16l-221 104l-219 -104l-18 16zM965 621l-242 686h-8l-258 -686h508z" />
    <glyph glyph-name="Atilde" unicode="&#xc3;" horiz-adv-x="1454" 
d="M1430 0h-390l74 147l-119 371h-579l-140 -371l111 -147h-360l151 184l443 1164l-58 86h326l422 -1250zM950 1778h4q15 -71 -26 -136t-113 -65q-40 0 -113 37q-70 37 -108 37q-76 0 -94 -76h-4q3 201 131 201q44 0 114 -37q61 -37 109 -37q79 0 100 76zM963 621l-242 686
h-8l-258 -686h508z" />
    <glyph glyph-name="Adieresis" unicode="&#xc4;" horiz-adv-x="1456" 
d="M1432 0h-390l74 147l-119 371h-579l-139 -371l110 -147h-360l151 184l443 1164l-58 86h326l422 -1250zM446 1679q0 49 33 80t84 31q54 0 86.5 -30.5t32.5 -80.5q0 -51 -32.5 -82.5t-86.5 -31.5q-51 0 -84 31.5t-33 82.5zM778 1679q0 50 32.5 80.5t86.5 30.5q51 0 84 -31
t33 -80q0 -51 -33 -82.5t-84 -31.5q-54 0 -86.5 31.5t-32.5 82.5zM965 621l-242 686h-8l-258 -686h508z" />
    <glyph glyph-name="AE" unicode="&#xc6;" horiz-adv-x="2082" 
d="M1976 1030h-2l-186 301h-606v-561h362l144 164v-430l-144 164h-362v-566h626l187 295h2v-397h-1127l105 109v409h-500l-186 -381l102 -137h-348l117 137l628 1194l-67 103h1255v-404zM530 621h445v682l-72 28z" />
    <glyph glyph-name="Ccedilla" unicode="&#xc7;" horiz-adv-x="1280" 
d="M985 -246q0 -87 -69.5 -141.5t-180.5 -54.5q-117 0 -195 58t-83 146q34 -116 172 -116q63 0 101 29.5t38 78.5q0 52 -38.5 81.5t-96.5 29.5q-44 0 -74 -15l80 144q-263 40 -426 209q-160 174 -160 508q0 197 61 345.5t169 235.5q210 164 518 164q211 0 430 -72v-354h-2
l-164 273q-148 59 -285 59q-232 0 -366.5 -169t-134.5 -474t137 -473t377 -168q124 0 272 49l160 270h6v-356q-212 -57 -426 -57h-45q-6 2 -23 2l-22 2l-8 -68q24 4 59 4q95 0 157 -44.5t62 -125.5z" />
    <glyph glyph-name="Egrave" unicode="&#xc8;" horiz-adv-x="1224" 
d="M872 504l-145 164h-362v-566h626l187 295h2v-397h-1127l107 147v1160l-107 127h1106v-404h-2l-186 301h-606v-561h362l145 164v-430zM338 1843h268l82 -332z" />
    <glyph glyph-name="Eacute" unicode="&#xc9;" horiz-adv-x="1222" 
d="M877 504l-146 164h-362v-566h626l187 295h2v-397h-1127l107 147v1160l-107 127h1106v-404h-2l-186 301h-606v-561h362l146 164v-430zM569 1511l82 332h267z" />
    <glyph glyph-name="Igrave" unicode="&#xcc;" horiz-adv-x="507" 
d="M455 1434l-84 -127v-1160l104 -147h-412l103 147l-2 1160l-101 127h392zM18 1843h269l82 -332z" />
    <glyph glyph-name="Iacute" unicode="&#xcd;" horiz-adv-x="495" 
d="M430 1434l-84 -127v-1160l105 -147h-412l102 147l-2 1160l-100 127h391zM133 1511l82 332h266z" />
    <glyph glyph-name="Eth" unicode="&#xd0;" horiz-adv-x="1431" 
d="M229 791v540l-106 103h434q388 0 596.5 -181t208.5 -534q0 -356 -209 -537.5t-596 -181.5h-434l106 100v586h-159v105h159zM606 1331h-170v-540h197v-105h-197v-586h170q263 0 398 176q135 179 135 449q0 265 -133 436q-132 170 -400 170z" />
    <glyph glyph-name="Ntilde" unicode="&#xd1;" horiz-adv-x="1482" 
d="M373 0h-310l101 147v1172l-98 115h282l877 -1276v1161l-101 115h308l-105 -115v-1319h-227l-834 1198v-1051zM965 1794h4q15 -69 -27 -135q-41 -66 -113 -66q-39 0 -112 37q-70 37 -109 37q-76 0 -94 -76h-4q3 201 131 201q45 0 115 -37q61 -37 108 -37q80 0 101 76z" />
    <glyph glyph-name="Ograve" unicode="&#xd2;" horiz-adv-x="1550" 
d="M780 1475q143 0 269.5 -45.5t230.5 -143.5t160 -237q61 -146 61 -330q0 -180 -59 -327.5t-164 -241.5q-151 -135 -361 -173.5t-407 33.5q-201 70 -327.5 255.5t-125.5 453.5q0 240 105 416q101 172 260 256t358 84zM772 1843l82 -332l-350 332h268zM283 717
q0 -315 133.5 -477t363.5 -162q235 0 364.5 167.5t129.5 475.5q0 314 -134.5 475.5t-365.5 161.5q-234 0 -362.5 -166.5t-128.5 -474.5z" />
    <glyph glyph-name="Oacute" unicode="&#xd3;" horiz-adv-x="1554" 
d="M778 1475q142 0 270.5 -48.5t227.5 -140.5q105 -92 164 -239.5t59 -327.5t-59 -327.5t-164 -241.5q-100 -91 -228.5 -139t-269.5 -48q-301 0 -512 199t-211 557q0 240 105 416q101 172 260 256t358 84zM776 1843h266l-348 -332zM281 717q0 -315 133.5 -477t363.5 -162
q235 0 364.5 167.5t129.5 475.5q0 314 -134.5 475.5t-365.5 161.5q-234 0 -362.5 -166.5t-128.5 -474.5z" />
    <glyph glyph-name="Otilde" unicode="&#xd5;" horiz-adv-x="1554" 
d="M782 1475q142 0 270.5 -48.5t227.5 -140.5q105 -92 164 -239.5t59 -327.5t-59 -327.5t-164 -241.5q-100 -91 -228.5 -139t-269.5 -48q-301 0 -512 199t-211 557q0 240 105 416q101 172 260 256t358 84zM999 1794h5q15 -69 -27 -135q-41 -66 -113 -66q-39 0 -112 37
q-70 37 -109 37q-76 0 -94 -76h-4q3 201 131 201q45 0 115 -37q61 -37 108 -37q79 0 100 76zM285 717q0 -315 133.5 -477t363.5 -162q235 0 364.5 167.5t129.5 475.5q0 314 -134.5 475.5t-365.5 161.5q-234 0 -362.5 -166.5t-128.5 -474.5z" />
    <glyph glyph-name="multiply" unicode="&#xd7;" horiz-adv-x="862" 
d="M782 922l-270 -271l270 -270l-73 -72l-271 271l-270 -271l-72 72l271 270l-271 271l72 73l270 -270l271 270z" />
    <glyph glyph-name="Oslash" unicode="&#xd8;" horiz-adv-x="1576" 
d="M541 4l-76 -164h-127l96 211q-170 90 -266 262t-96 406q0 242 104 416q101 172 260.5 256t358.5 84q143 0 276 -50l51 111h127l-75 -162q162 -95 252 -261.5t90 -393.5q0 -180 -59.5 -327.5t-164.5 -241.5q-100 -91 -228 -139t-269 -48q-129 0 -254 41zM788 1358
q-234 0 -362.5 -166.5t-128.5 -474.5q0 -380 197 -539l522 1131q-101 49 -228 49zM1288 721q0 356 -176 520l-520 -1124q85 -39 203 -39q235 0 364 167.5t129 475.5z" />
    <glyph glyph-name="Ugrave" unicode="&#xd9;" horiz-adv-x="1417" 
d="M1061 1434h307l-104 -127v-721q0 -324 -119 -473.5t-395 -149.5q-320 0 -459 160q-135 159 -135 510v674l-103 127h414l-107 -127v-672q0 -305 89 -432q88 -125 292 -125q245 0 336 155q84 142 84 381v693zM475 1843h268l82 -332z" />
    <glyph glyph-name="Uacute" unicode="&#xda;" horiz-adv-x="1417" 
d="M1061 1434h307l-104 -127v-721q0 -324 -119 -473.5t-395 -149.5q-320 0 -459 160q-135 159 -135 510v674l-103 127h414l-107 -127v-672q0 -305 89 -432q88 -125 292 -125q245 0 336 155q84 142 84 381v693zM662 1511l81 332h267z" />
    <glyph glyph-name="Yacute" unicode="&#xdd;" horiz-adv-x="1341" 
d="M451 1434l-109 -127l379 -590l369 590l-103 127h340l-123 -127l-424 -705v-455l125 -147h-432l102 147l-2 418l-553 869h431zM637 1511l82 332h266z" />
    <glyph glyph-name="Thorn" unicode="&#xde;" horiz-adv-x="1040" 
d="M76 0l102 147l-2 1057l-98 154l284 76v-207h58q298 0 446 -107t148 -332q0 -232 -152.5 -353.5t-441.5 -121.5h-58v-166l107 -147h-393zM362 1145v-750q213 0 329 98.5t116 290.5q0 361 -445 361z" />
    <glyph glyph-name="germandbls" unicode="&#xdf;" horiz-adv-x="1320" 
d="M1255 305q0 -163 -86.5 -241t-236.5 -78q-151 0 -303 63l133 297l47 -237q63 -29 113 -29q72 0 115.5 46t43.5 134q0 141 -137 264q-4 3 -35.5 32.5t-39 36.5t-35.5 35t-37 41t-30.5 40.5t-29.5 47.5t-19.5 47.5t-15.5 55.5t-4 58q0 72 29.5 127t71.5 85q100 71 100 175
q0 80 -50.5 126t-141.5 46q-179 0 -242 -93q-62 -92 -62 -292v-1092h-337l133 174v778h-111v103h113q2 102 12.5 171t38.5 138q85 217 405 217q193 0 328 -72q135 -71 135 -178q0 -56 -43.5 -105.5t-107.5 -82.5q-65 -33 -108.5 -75.5t-43.5 -86.5q0 -43 40 -90t114 -107
q44 -33 78.5 -63t75.5 -77t67.5 -94.5t45 -111.5t17.5 -133z" />
    <glyph glyph-name="agrave" unicode="&#xe0;" horiz-adv-x="1071" 
d="M59 270q0 61 24 116t58 91q33 33 95 68q68 36 102 49l115 41l73 24q70 26 82 33q58 34 89.5 68t31.5 84q0 44 -25 74t-63 30h-303l-135 -239l-135 348h880l-22 -101v-806l108 -150h-295v215q-57 -99 -156.5 -162t-209.5 -69q-144 0 -229 74.5t-85 211.5zM524 1495
l82 -332l-350 332h268zM741 311v373q-60 -79 -241 -164l-94 -47q-20 -11 -72 -47q-76 -57 -76 -145q0 -69 45.5 -105.5t118.5 -36.5q3 0 13.5 1t13.5 1q155 15 292 170z" />
    <glyph glyph-name="aacute" unicode="&#xe1;" horiz-adv-x="1075" 
d="M57 270q0 61 24 116t58 91q35 35 94 68q66 35 103 49l115 41l73 24q70 26 82 33q58 34 89.5 68t31.5 84q0 44 -25 74t-63 30h-303l-135 -239l-135 348h880l-22 -101v-806l108 -150h-295v215q-57 -99 -156.5 -162t-209.5 -69q-144 0 -229 74.5t-85 211.5zM535 1464h266
l-348 -331zM739 311v373q-60 -79 -241 -164l-95 -47q-15 -8 -71 -47q-76 -57 -76 -145q0 -69 45.5 -105.5t118.5 -36.5q3 0 13 1t13 1q156 15 293 170z" />
    <glyph glyph-name="atilde" unicode="&#xe3;" horiz-adv-x="1079" 
d="M61 270q0 61 24 116t58 91q33 33 95 68q68 36 102 49l115 41l73 24q70 26 82 33q58 34 89.5 68t31.5 84q0 44 -25 74t-63 30h-303l-135 -239l-135 348h880l-22 -101v-806l108 -150h-295v215q-57 -99 -156.5 -162t-209.5 -69q-144 0 -229 74.5t-85 211.5zM760 1384h4
q15 -69 -27 -135q-41 -65 -112 -65q-40 0 -113 37q-68 36 -109 36q-76 0 -94 -75h-4q3 200 131 200q47 0 115 -36q61 -37 108 -37q80 0 101 75zM743 311v373q-60 -79 -241 -164l-94 -47q-20 -11 -72 -47q-76 -57 -76 -145q0 -69 45.5 -105.5t118.5 -36.5q3 0 13.5 1t13.5 1
q155 15 292 170z" />
    <glyph glyph-name="aring" unicode="&#xe5;" horiz-adv-x="1087" 
d="M84 270q0 61 24 116t58 91q35 35 94 68q68 36 102 49l115 41q80 27 107 39q29 11 82 39q88 49 88 131q0 44 -25 74t-63 30h-304l-135 -239l-135 348h881l-23 -101v-806l109 -150h-295v215q-57 -99 -157 -162t-210 -69q-144 0 -228.5 74.5t-84.5 211.5zM557 1524
q94 0 150.5 -54t56.5 -145t-56.5 -146t-150.5 -55q-92 0 -148.5 55t-56.5 146q0 90 56 144.5t149 54.5zM766 311v373q-60 -78 -242 -164l-94 -47q-20 -11 -72 -47q-75 -56 -75 -143q0 -67 44 -105.5t117 -38.5q172 0 322 172zM557 1446q-52 0 -88.5 -33t-36.5 -88t37 -89
t90 -34t88 33t35 88t-36 89t-89 34z" />
    <glyph glyph-name="ae" unicode="&#xe6;" horiz-adv-x="1830" 
d="M1741 471h-760q10 -187 105 -289t251 -102q178 0 330 168l55 -55q-176 -218 -434 -218q-154 0 -273 70.5t-184 202.5q-199 -264 -444 -264q-132 0 -215.5 76.5t-83.5 209.5q0 63 24.5 119.5t59.5 91.5t94 68q61 33 105 49l118 43q59 19 66 21l33 14q20 8 40.5 18t30.5 15
q99 57 99 141q0 83 -88 98h-301l-136 -239l-137 348h881l-21 -88q135 106 338 106q264 0 381 -176q118 -177 66 -428zM770 311v373q-54 -69 -240 -158l-94 -47q-15 -8 -71 -47q-78 -53 -78 -139q0 -69 50 -113.5t128 -44.5q81 0 161 49t144 127zM1292 956q-126 0 -213 -97.5
t-100 -283.5h565q15 152 -47 265q-61 116 -205 116z" />
    <glyph glyph-name="ccedilla" unicode="&#xe7;" horiz-adv-x="1040" 
d="M827 -250q0 -93 -77 -143q-76 -49 -181 -49q-101 0 -186 55q-84 53 -84 149q34 -116 170 -116q63 0 102 29.5t39 78.5q0 52 -39.5 82.5t-97.5 30.5q-33 0 -72 -17l74 134q-204 34 -313 186q-109 154 -109 369q0 265 162 399q163 135 428 135q118 0 309 -31v-331l-229 254
q-41 6 -78 6q-186 0 -287 -137q-98 -137 -98 -336q0 -198 98.5 -309t257.5 -111q175 0 334 170l56 -55q-179 -218 -451 -218l-6 -55q27 6 59 6q93 0 156 -46.5t63 -129.5z" />
    <glyph glyph-name="eacute" unicode="&#xe9;" horiz-adv-x="1060" 
d="M1018 471h-762q10 -187 106 -289t252 -102q179 0 328 168l55 -55q-176 -218 -434 -218q-232 0 -375 152q-139 154 -139 403q-3 252 137 398q141 147 383 147q93 0 168.5 -23t127.5 -64t89.5 -97t54 -123t20.5 -142.5t-11 -154.5zM565 1507h266l-348 -331zM575 956
q-131 0 -219 -97t-100 -284h565q4 69 -5 131.5t-34 121t-78 93.5t-129 35z" />
    <glyph glyph-name="eth" unicode="&#xf0;" horiz-adv-x="1140" 
d="M139 1434v65h56q139 0 243 -22q93 -19 215 -101l285 146l49 -88l-260 -131q161 -130 256 -330q94 -195 94 -408q0 -257 -141 -424q-138 -164 -393 -164q-224 0 -357 127q-131 128 -131 342q0 213 125 353q126 141 324 141q182 0 338 -117q-12 99 -88 224
q-75 123 -158 188l-260 -137l-55 86l245 119q-143 131 -387 131zM836 700q-20 44 -101 84q-74 39 -139 39q-103 0 -180 -65q-137 -123 -137 -334q0 -144 75 -244t203 -100q65 0 118.5 30t87 76.5t56 106t32 116t9.5 109.5q0 126 -24 182z" />
    <glyph glyph-name="ograve" unicode="&#xf2;" horiz-adv-x="1196" 
d="M57 524q0 257 146.5 404t404.5 147q257 0 401 -145t144 -402q0 -259 -143.5 -406t-403.5 -147t-404.5 146.5t-144.5 402.5zM541 1513l82 -331l-351 331h269zM602 971q-156 0 -248 -117t-92 -328q0 -212 93 -329t251 -117q157 0 249 119t91 336q-1 110 -28 194.5
t-74 136.5t-108 78.5t-134 26.5z" />
    <glyph glyph-name="oacute" unicode="&#xf3;" horiz-adv-x="1193" 
d="M53 524q0 257 146.5 404t404.5 147q257 0 401 -145t144 -402q0 -259 -143.5 -406t-403.5 -147t-404.5 146.5t-144.5 402.5zM633 1507h266l-348 -331zM598 971q-156 0 -248 -117t-92 -328q0 -212 93 -329t251 -117q157 0 249 119t91 336q-1 110 -28 194.5t-74 136.5
t-108 78.5t-134 26.5z" />
    <glyph glyph-name="otilde" unicode="&#xf5;" horiz-adv-x="1202" 
d="M59 524q0 257 146.5 404t404.5 147q257 0 401 -145t144 -402q0 -259 -143.5 -406t-403.5 -147t-404.5 146.5t-144.5 402.5zM823 1384h4q15 -70 -26 -135t-113 -65q-40 0 -113 37q-68 36 -108 36q-76 0 -94 -75h-4q3 200 131 200q46 0 114 -36q61 -37 109 -37q79 0 100 75
zM604 971q-156 0 -248 -117t-92 -328q0 -212 93 -329t251 -117q157 0 249 119t91 336q-1 110 -28 194.5t-74 136.5t-108 78.5t-134 26.5z" />
    <glyph glyph-name="divide" unicode="&#xf7;" horiz-adv-x="872" 
d="M25 702h825v-102h-825v102zM352 209q-31 31 -31 82t31 82q32 31 86 31t86 -31t32 -82t-32 -82t-86 -31t-86 31zM352 930q-31 31 -31 82t31 82q32 31 86 31t86 -31t32 -82t-32 -82t-86 -31t-86 31z" />
    <glyph glyph-name="oslash" unicode="&#xf8;" horiz-adv-x="1220" 
d="M616 -25q-100 0 -176 21l-71 -156h-127l90 195q-264 135 -264 489q0 257 146 404t404 147q95 0 185 -22l59 127h127l-78 -170q252 -132 252 -482q0 -259 -143.5 -406t-403.5 -147zM612 971q-156 0 -248 -117t-92 -328q0 -242 121 -360l359 776q-63 29 -140 29zM848 872
l-359 -770q64 -22 127 -22q156 0 247 117t91 331q0 232 -106 344z" />
    <glyph glyph-name="ugrave" unicode="&#xf9;" horiz-adv-x="1155" 
d="M821 313v596l-104 148h289v-910l110 -147h-295v213q-145 -238 -352 -238q-138 0 -225.5 96t-87.5 277v561l-105 148h389l-98 -148v-489q0 -283 188 -283q81 0 157.5 48.5t133.5 127.5zM260 1509h268l82 -331z" />
    <glyph glyph-name="uacute" unicode="&#xfa;" horiz-adv-x="1153" 
d="M815 313v596l-104 148h288v-910l111 -147h-295v213q-145 -238 -352 -238q-138 0 -225.5 96t-87.5 277v561l-105 148h389l-98 -148v-489q0 -283 188 -283q81 0 157.5 48.5t133.5 127.5zM512 1174l82 331h266z" />
    <glyph glyph-name="yacute" unicode="&#xfd;" horiz-adv-x="1220" 
d="M563 -512h-342l109 164l182 346l-479 1059h405l-121 -178l304 -674l356 674l-129 178h360l-114 -178l-641 -1219zM600 1174l82 331h266z" />
    <glyph glyph-name="thorn" unicode="&#xfe;" horiz-adv-x="1028" 
d="M469 -174h-393l102 147l-2 1334l-98 153l284 76v-330h58q298 0 446 -106.5t148 -331.5q0 -232 -152.5 -353.5t-441.5 -121.5h-58v-320zM362 1124v-749q213 0 329 98.5t116 290.5q0 360 -445 360z" />
    <glyph glyph-name="Amacron" unicode="&#x100;" horiz-adv-x="1458" 
d="M1432 0h-390l74 147l-119 371h-579l-139 -371l110 -147h-360l151 184l443 1164l-58 86h326l422 -1250zM1133 1540h-805v102h805v-102zM965 621l-242 686h-8l-258 -686h508z" />
    <glyph glyph-name="amacron" unicode="&#x101;" horiz-adv-x="1107" 
d="M68 270q0 63 24.5 119t59.5 92q35 35 94 68q68 36 102 49l115 41q124 44 158 59q58 28 84 60.5t32 85.5q0 68 -55 80h-313l-156 -215l-137 348h880l-22 -101v-782l129 -174h-315v215q-65 -110 -169 -170.5t-217 -60.5q-128 0 -211 76.5t-83 209.5zM113 1178v102h805v-102
h-805zM750 311v373q-54 -68 -232 -149q-67 -32 -93 -47t-65 -42q-73 -52 -73 -141q0 -67 42.5 -108t119.5 -41q82 0 163 41.5t138 113.5z" />
    <glyph glyph-name="Abreve" unicode="&#x102;" horiz-adv-x="1462" 
d="M1434 0h-390l74 147l-119 371h-579l-139 -371l110 -147h-360l151 184l443 1164l-58 86h326l422 -1250zM926 1788h4q6 -30 6 -62q0 -94 -54.5 -148t-148.5 -54q-93 0 -148 54.5t-55 147.5q0 30 7 62h4q4 -66 54 -101.5t138 -35.5t138.5 35.5t54.5 101.5zM967 621l-242 686
h-8l-258 -686h508z" />
    <glyph glyph-name="abreve" unicode="&#x103;" horiz-adv-x="1099" 
d="M63 270q0 63 24.5 119t59.5 92q33 33 95 68q68 36 102 49l115 41q118 42 157 59q58 28 84.5 60.5t32.5 85.5q0 68 -55 80h-316l-153 -215l-137 348h880l-22 -101v-782l129 -174h-316v215q-65 -110 -168.5 -170.5t-216.5 -60.5q-128 0 -211.5 76.5t-83.5 209.5zM772 1464
h2q6 -21 6 -63q0 -104 -58 -163.5t-161 -59.5q-100 0 -159.5 58.5t-59.5 158.5q0 35 6 69h2q5 -69 61 -109t150 -40t150 40t61 109zM745 311l-2 373q-26 -33 -69 -63q-55 -38 -160 -86q-90 -39 -160 -89q-71 -54 -71 -141q0 -68 42.5 -108.5t118.5 -40.5q80 0 162.5 42
t138.5 113z" />
    <glyph glyph-name="Aogonek" unicode="&#x104;" horiz-adv-x="1476" 
d="M1401 -141q-20 -74 -72 -115t-125 -41q-72 0 -117 39.5t-45 101.5q0 98 101 156h-105l74 147l-119 371h-579l-140 -371l111 -147h-360l151 184l442 1164l-57 86h326l422 -1250l118 -184h-217q-36 -36 -36 -98q0 -54 27.5 -84.5t76.5 -30.5q76 0 123 72zM961 621l-242 686
h-8l-258 -686h508z" />
    <glyph glyph-name="aogonek" unicode="&#x105;" 
d="M1094 -141q-20 -74 -72 -115t-125 -41q-72 0 -117 39.5t-45 101.5q0 98 101 156h-113v215q-65 -110 -168.5 -170.5t-216.5 -60.5q-128 0 -211.5 76.5t-83.5 209.5q0 63 24.5 119t59.5 92q35 35 94 68q66 35 103 49l114 41q1 0 16.5 5.5t33.5 11t22 6.5q4 2 38.5 14.5
t43.5 17.5q123 67 121 148q0 70 -56 82h-315l-154 -215l-137 348h881l-23 -101v-782l129 -174h-135q-37 -37 -37 -98q0 -54 28 -84.5t77 -30.5q76 0 123 72zM725 311l-2 373q-25 -32 -70 -63q-57 -39 -159 -86q-90 -39 -160 -89q-72 -55 -72 -141q0 -68 42 -108.5t120 -40.5
q83 0 164.5 43t136.5 112z" />
    <glyph glyph-name="Cacute" unicode="&#x106;" horiz-adv-x="1267" 
d="M1225 1384v-354h-2l-164 273q-145 59 -285 59q-229 0 -366 -168q-137 -172 -134 -475q1 -305 137.5 -473t376.5 -168q128 0 271 49l162 270h4v-356q-209 -57 -424 -57q-123 0 -229 21.5t-204.5 74.5t-168.5 135.5t-111.5 212t-40.5 295.5q0 158 41 283.5t110.5 208.5
t166.5 138t204 79t228 24q209 0 428 -72zM713 1536l82 332h266z" />
    <glyph glyph-name="cacute" unicode="&#x107;" horiz-adv-x="1026" 
d="M942 1042v-331l-229 254q-38 6 -76 6q-178 0 -283 -135q-103 -133 -106 -318q-3 -176 86 -309q88 -129 258 -129q96 0 172 31q74 29 176 137l55 -55q-179 -218 -424 -218q-35 0 -45 2q-221 18 -352 187q-132 170 -135 387q-3 246 168 385q168 137 434 137q101 0 301 -31z
M592 1507h266l-348 -331z" />
    <glyph glyph-name="Ccaron" unicode="&#x10c;" horiz-adv-x="1271" 
d="M1227 1384v-354h-2l-164 273q-145 59 -285 59q-229 0 -366 -168q-137 -172 -134 -475q1 -305 138 -473t377 -168q127 0 270 49l162 270h4v-356q-209 -57 -424 -57q-123 0 -229 21.5t-204.5 74.5t-168.5 135.5t-111.5 212t-40.5 295.5q0 158 41 283.5t110.5 208.5
t166.5 138t204 79t228 24q209 0 428 -72zM444 1884l256 -125l261 125l20 -20l-279 -326h-2l-278 326z" />
    <glyph glyph-name="ccaron" unicode="&#x10d;" horiz-adv-x="1030" 
d="M948 1042v-331l-231 260h-74q-177 0 -281 -125t-104 -326q0 -61 10 -120t35 -118t62.5 -103t97.5 -71.5t135 -27.5q96 0 172 31q74 29 176 137l55 -55q-179 -218 -426 -218q-238 0 -382 166q-144 167 -144 410q0 522 584 522q115 0 315 -31zM524 1401l260 123l21 -21
l-279 -325h-2l-278 325l22 21z" />
    <glyph glyph-name="Dcaron" unicode="&#x10e;" horiz-adv-x="1341" 
d="M1303 719q0 -356 -209 -537.5t-596 -181.5h-435l107 147v1160l-107 127h435q388 0 596.5 -181t208.5 -534zM293 1892l256 -123l260 123l20 -18l-276 -328h-4l-279 328zM549 1331h-172v-1231h172q260 0 395 176q135 179 135 451q2 127 -29.5 235t-95 190.5t-167.5 130
t-238 48.5z" />
    <glyph glyph-name="dcaron" unicode="&#x10f;" horiz-adv-x="1499" 
d="M809 942v365l-117 153l301 76v-1364l127 -172h-311v213q-53 -117 -144.5 -176.5t-209.5 -59.5q-193 0 -301 150q-105 150 -105 377q0 258 129 414q133 157 322 157q176 0 309 -133zM1325 1315q-47 0 -74.5 29t-27.5 79q0 51 32 83t86 32q56 0 87.5 -33.5t31.5 -93.5
q0 -90 -69 -174q-68 -86 -152 -104q33 30 59.5 85.5t26.5 96.5zM539 135q145 0 270 174v510q-111 111 -236 111q-139 0 -229 -113.5t-90 -306.5q0 -178 78.5 -276.5t206.5 -98.5z" />
    <glyph glyph-name="Dcroat" unicode="&#x110;" horiz-adv-x="1431" 
d="M229 791v540l-106 103h434q388 0 596.5 -181t208.5 -534q0 -356 -209 -537.5t-596 -181.5h-434l106 100v586h-159v105h159zM606 1331h-170v-540h197v-105h-197v-586h170q263 0 398 176q135 179 135 449q0 265 -133 436q-132 170 -400 170z" />
    <glyph glyph-name="dslash" unicode="&#x111;" horiz-adv-x="1232" 
d="M801 1133h-176v102h176v72l-117 153l301 76v-301h158v-102h-158v-961l127 -172h-311v213q-53 -116 -145 -176t-210 -60q-193 0 -301 150q-104 149 -104 377q0 258 129 414q133 157 322 157q176 0 309 -133v191zM565 930q-139 0 -229 -113.5t-90 -306.5q0 -179 78 -277
t206 -98q146 0 271 174v510q-111 111 -236 111z" />
    <glyph glyph-name="Emacron" unicode="&#x112;" horiz-adv-x="1236" 
d="M881 504l-146 164h-362v-566h626l187 295h2v-397h-1127l107 147v1160l-107 127h1106v-404h-2l-186 301h-606v-561h362l146 164v-430zM1028 1563h-805v102h805v-102z" />
    <glyph glyph-name="emacron" unicode="&#x113;" horiz-adv-x="1079" 
d="M1028 471h-762q10 -186 106.5 -288.5t252.5 -102.5q178 0 327 168l56 -55q-176 -218 -435 -218q-231 0 -374 152q-140 155 -140 403q-3 251 138 398t383 147q111 -1 197 -33.5t139 -89t85.5 -132.5t36 -164.5t-9.5 -184.5zM170 1184v102h805v-102h-805zM586 956
q-131 0 -219.5 -97t-100.5 -284h565q4 69 -5 131.5t-33.5 121t-77.5 93.5t-129 35z" />
    <glyph glyph-name="Ebreve" unicode="&#x114;" horiz-adv-x="1234" 
d="M877 504l-146 164h-362v-566h626l187 295h2v-397h-1127l107 147v1160l-107 127h1106v-404h-2l-186 301h-606v-561h362l146 164v-430zM842 1786h4q6 -30 6 -60q0 -99 -57 -156t-154 -57t-154 56.5t-57 154.5q0 32 6 62h4q5 -66 58 -103.5t143 -37.5q91 0 145.5 37.5
t55.5 103.5z" />
    <glyph glyph-name="Eogonek" unicode="&#x118;" horiz-adv-x="1234" 
d="M887 -141q-20 -74 -72 -115t-125 -41q-72 0 -117 39.5t-45 101.5q0 98 101 156h-568l107 147v1160l-107 127h1106v-404h-2l-186 301h-606v-561h362l146 164v-430l-146 164h-362v-566h626l187 295h2v-397h-492q-37 -37 -37 -98q0 -54 28 -84.5t77 -30.5q76 0 123 72z" />
    <glyph glyph-name="eogonek" unicode="&#x119;" horiz-adv-x="1083" 
d="M754 -162q-20 -72 -73 -113.5t-126 -41.5q-69 0 -115.5 40t-46.5 101q0 98 101 156q-204 21 -326 170q-119 149 -119 380q-3 252 137 398q141 147 383 147q93 0 168.5 -23t127.5 -64t89.5 -97t54 -123t20.5 -142.5t-11 -154.5h-762q10 -187 106 -289t252 -102
q179 0 328 168l55 -55q-176 -218 -434 -218q-37 -34 -37 -94q0 -54 27.5 -84t77.5 -30q73 0 123 71zM575 956q-131 0 -219 -97t-100 -284h565q4 69 -5 131.5t-34 121t-78 93.5t-129 35z" />
    <glyph glyph-name="Ecaron" unicode="&#x11a;" horiz-adv-x="1220" 
d="M872 504l-145 164h-362v-566h626l187 295h2v-397h-1127l107 147v1160l-107 127h1106v-404h-2l-186 301h-606v-561h362l145 164v-430zM358 1870l256 -123l263 123l18 -21l-277 -325h-4l-276 325z" />
    <glyph glyph-name="ecaron" unicode="&#x11b;" horiz-adv-x="1069" 
d="M1022 471h-762q10 -187 106 -289t252 -102q179 0 328 168l55 -55q-176 -218 -434 -218q-231 0 -374 152q-140 155 -140 403q-3 252 137 398q141 147 383 147q93 0 168.5 -23t127.5 -64t89.5 -97t54 -123t20.5 -142.5t-11 -154.5zM541 1423l262 123l20 -20l-278 -326h-4
l-277 326l21 20zM580 956q-131 0 -219.5 -97t-100.5 -284h565q4 69 -5 131.5t-33.5 121t-77.5 93.5t-129 35z" />
    <glyph glyph-name="uni0122" unicode="&#x122;" horiz-adv-x="1452" 
d="M1010 729h413l-104 -143v-586l-160 47q-189 -59 -366 -59q-343 0 -545 202q-201 204 -201 551q0 346 203 531q202 184 549 184q216 0 426 -70v-356h-2l-164 273q-129 57 -271 57q-218 0 -366 -154q-149 -152 -146 -461q0 -312 158 -479.5t447 -167.5q102 0 233 25v463z
M719 -313q-44 0 -73.5 30.5t-29.5 77.5q0 51 32.5 83t86.5 32q55 0 87 -34t32 -91q0 -89 -70 -174q-68 -89 -151 -107q33 30 59.5 86t26.5 97z" />
    <glyph glyph-name="uni0123" unicode="&#x123;" horiz-adv-x="1314" 
d="M1024 915l250 197v-252h-213q65 -89 65 -229q0 -209 -145 -318q-141 -106 -365 -106q-199 0 -335 86q-2 -6 -2 -23q-7 -50 26 -83.5t84 -51.5q31 -10 80 -16l86 -8q10 -1 96 -5q17 -1 53.5 -2t49.5 -2q127 -5 194 -28q106 -32 146 -82q57 -71 57 -176q0 -102 -48 -179.5
t-134 -119.5q-150 -78 -346 -88q-10 -2 -45 -2q-170 0 -332 55q-88 30 -139.5 89.5t-51.5 139.5q0 92 65.5 163t170.5 110q-66 26 -108 75.5t-42 110.5q0 92 90 158q-145 115 -145 317q0 207 150 318q149 110 366 110q270 0 422 -158zM621 1409q47 0 74.5 -30.5t27.5 -78.5
q0 -53 -33 -83.5t-88 -30.5q-54 0 -85.5 34.5t-31.5 90.5q0 87 66 174q67 88 154 106q-33 -30 -58.5 -85t-25.5 -97zM291 643q0 -147 88 -232t235 -85q142 0 224 83.5t82 225.5q0 143 -86 231t-228 88q-143 0 -229 -84.5t-86 -226.5zM983 -258q0 95 -115 137q-94 34 -241 49
q-4 0 -92 9q-109 6 -164 18q-127 -59 -148 -150q-4 -32 -4 -41q0 -80 66 -137q114 -96 303 -96q29 0 37 2q132 9 245 61t113 148z" />
    <glyph glyph-name="Hbar" unicode="&#x126;" horiz-adv-x="1511" 
d="M377 1307v-516h762v516l-109 127h416l-103 -127v-1160l109 -147h-422l109 147v541h-762v-541l106 -147h-417l106 147v1160l-109 127h416zM1159 1544h-805v103h805v-103z" />
    <glyph glyph-name="hbar" unicode="&#x127;" horiz-adv-x="1177" 
d="M381 760v-613l106 -147h-393l103 147l-2 1010h-119v103h119v49l-99 153l285 74v-276h151v-103h-151v-242q70 70 167 113t187 43q138 0 225 -95t87 -278v-551l104 -147h-389l98 147v482q0 282 -194 282q-74 0 -137.5 -36t-147.5 -115z" />
    <glyph glyph-name="Itilde" unicode="&#x128;" horiz-adv-x="512" 
d="M451 1434l-84 -127v-1160l104 -147h-412l103 147l-2 1160l-101 127h392zM487 1794h5q15 -69 -27 -135q-41 -66 -113 -66q-39 0 -112 37q-70 37 -109 37q-76 0 -94 -76h-4q3 201 131 201q45 0 115 -37q61 -37 108 -37q79 0 100 76z" />
    <glyph glyph-name="itilde" unicode="&#x129;" horiz-adv-x="509" 
d="M80 1024l280 84v-961l127 -147h-432l121 147v742zM483 1425h4q15 -70 -26 -135t-113 -65q-39 0 -112 37q-68 36 -109 36q-76 0 -94 -75h-4q3 200 131 200q44 0 114 -37q59 -36 109 -36q79 0 100 75z" />
    <glyph glyph-name="Imacron" unicode="&#x12a;" horiz-adv-x="827" 
d="M602 1434l-84 -127v-1160l105 -147h-412l102 147l-2 1160l-100 127h391zM819 1536h-805v102h805v-102z" />
    <glyph glyph-name="imacron" unicode="&#x12b;" horiz-adv-x="831" 
d="M223 1024l281 84v-961l127 -147h-432l120 147v742zM819 1178h-805v102h805v-102z" />
    <glyph glyph-name="Ibreve" unicode="&#x12c;" horiz-adv-x="624" 
d="M504 1434l-86 -115v-1196l106 -123h-411l100 111l-2 1208l-98 115h391zM500 1765h2q6 -34 6 -65q0 -82 -50.5 -132t-140.5 -50q-88 0 -135.5 48.5t-52.5 133.5q0 37 4 65h2q5 -62 52.5 -96.5t129.5 -34.5t132 35t51 96z" />
    <glyph glyph-name="ibreve" unicode="&#x12d;" horiz-adv-x="632" 
d="M127 1024l281 84v-961l127 -147h-433l121 147v742zM295 1292q80 0 127.5 33.5t48.5 93.5h4q4 -24 4 -53q0 -88 -49 -138t-135 -50q-82 0 -132 50t-50 132q0 9 4 59h2q4 -60 51 -93.5t125 -33.5z" />
    <glyph glyph-name="Iogonek" unicode="&#x12e;" horiz-adv-x="583" 
d="M469 -141q-20 -72 -72.5 -114t-124.5 -42t-116.5 39.5t-44.5 101.5q0 99 100 156h-154l103 147l-2 1160l-101 127h392l-84 -127v-1160l104 -147h-193q-34 -40 -34 -98q0 -54 27.5 -84.5t76.5 -30.5q72 0 123 72z" />
    <glyph glyph-name="iogonek" unicode="&#x12f;" horiz-adv-x="557" 
d="M489 -135q-20 -74 -72 -116t-124 -42t-117 40t-45 103q0 91 90 150h-164l121 147v742l-96 135l280 84v-961l127 -147h-196q-31 -39 -31 -92q0 -54 28 -84.5t77 -30.5q75 0 122 72zM254 1268l-168 139l156 184l172 -147z" />
    <glyph glyph-name="dotlessi" unicode="&#x131;" horiz-adv-x="489" 
d="M63 1024l281 84v-961l127 -147h-432l121 147v742z" />
    <glyph glyph-name="IJ" unicode="&#x132;" horiz-adv-x="1130" 
d="M451 1434l-84 -127v-1160l104 -147h-412l103 147l-2 1160l-101 127h392zM1075 1434l-102 -127v-772q0 -206 -11 -332.5t-40 -227.5q-43 -146 -136 -200t-282 -60v68q158 0 211 121t53 469v934l-106 127h413z" />
    <glyph glyph-name="ij" unicode="&#x133;" horiz-adv-x="925" 
d="M57 1024l281 84v-961l127 -147h-432l121 147v742zM610 25l-2 864l-96 115l283 104v-1010q0 -131 -2 -174q-4 -182 -35 -256q-36 -115 -109 -151q-89 -47 -227 -47v61q117 5 162 143q12 34 18 99q8 82 8 252zM229 1268l-168 139l156 184l172 -147zM668 1591l172 -147
l-160 -176l-168 139z" />
    <glyph glyph-name="uni0136" unicode="&#x136;" horiz-adv-x="1363" 
d="M358 748l596 567l-88 119h369l-508 -476l483 -817l136 -141h-244l-500 842l-244 -234v-485l107 -123h-414l103 111l-2 1208l-101 115h414l-107 -115v-571zM682 -313q-44 0 -73 30.5t-29 77.5q0 51 32 83t86 32q55 0 87 -34t32 -91q0 -90 -69 -174q-68 -89 -152 -107
q33 30 59.5 86t26.5 97z" />
    <glyph glyph-name="uni0137" unicode="&#x137;" horiz-adv-x="1167" 
d="M340 582l446 362l-75 111h370l-409 -338l319 -543l168 -174h-274l-357 600l-188 -151v-302l104 -147h-393l103 147v1162l-99 151l285 76v-954zM590 -313q-44 0 -73.5 30.5t-29.5 77.5q0 51 32.5 83t86.5 32t86.5 -34t32.5 -91q0 -89 -70 -174q-68 -89 -151 -107
q33 30 59.5 86t26.5 97z" />
    <glyph glyph-name="kgreenlandic" unicode="&#x138;" horiz-adv-x="1224" 
d="M367 582l446 362l-76 111h373l-410 -338l318 -543l168 -174h-273l-358 600l-188 -151v-302l104 -147h-391l100 147v717l-98 154l285 76v-512z" />
    <glyph glyph-name="Lacute" unicode="&#x139;" horiz-adv-x="1118" 
d="M496 1434l-123 -127v-1205h555l188 295v-397h-1048l100 147v1160l-100 127h428zM184 1511l82 332h266z" />
    <glyph glyph-name="lacute" unicode="&#x13a;" horiz-adv-x="841" 
d="M72 1460l284 76v-1389l107 -147h-393l102 147l-2 1160zM492 1102l81 332h267z" />
    <glyph glyph-name="uni013B" unicode="&#x13b;" horiz-adv-x="1101" 
d="M479 1434l-125 -115v-1217h555l191 295v-397h-1051l101 111l-3 1208l-98 115h430zM557 -313q-44 0 -73 30.5t-29 77.5q0 51 33 83t87 32t85.5 -34t31.5 -91q0 -89 -67 -174q-68 -89 -152 -107q33 26 57 84q27 58 27 99z" />
    <glyph glyph-name="uni013C" unicode="&#x13c;" horiz-adv-x="444" 
d="M33 1460l284 76v-1389l107 -147h-393l102 147l-2 1160zM211 -313q-44 0 -73 30.5t-29 77.5q0 51 32 83t86 32q55 0 87 -34t32 -91q0 -89 -70 -174q-68 -89 -151 -107q33 30 59.5 86t26.5 97z" />
    <glyph glyph-name="Lcaron" unicode="&#x13d;" horiz-adv-x="1183" 
d="M506 1434l-123 -127v-1205h555l188 295v-397h-1048l100 147v1160l-100 127h428zM856 1130q-47 0 -74.5 29.5t-27.5 79.5q0 51 32 83t86 32t86.5 -35t32.5 -92q0 -90 -69 -174q-69 -87 -152 -105q33 30 59.5 85.5t26.5 96.5z" />
    <glyph glyph-name="lcaron" unicode="&#x13e;" horiz-adv-x="813" 
d="M70 1460l284 76v-1389l107 -147h-393l102 147l-2 1160zM666 1135q-44 0 -73.5 30.5t-29.5 77.5q0 51 32.5 83t86.5 32t86.5 -34t32.5 -91q0 -88 -70 -176q-69 -87 -151 -105q33 30 59.5 86t26.5 97z" />
    <glyph glyph-name="Ldot" unicode="&#x13f;" horiz-adv-x="1148" 
d="M506 1434l-123 -127v-1205h555l188 295v-397h-1048l100 147v1160l-100 127h428zM803 829q-31 31 -31 82t31 82q32 31 86 31t86 -31t32 -82t-32 -82t-86 -31t-86 31z" />
    <glyph glyph-name="ldot" unicode="&#x140;" horiz-adv-x="815" 
d="M70 1460l284 76v-1389l107 -147h-393l102 147l-2 1160zM612 829q-31 31 -31 82t31 82q32 31 86 31t86 -31t32 -82t-32 -82t-86 -31t-86 31z" />
    <glyph glyph-name="Lslash" unicode="&#x141;" horiz-adv-x="1370" 
d="M600 805v-703h555l188 295v-397h-1048l100 147v531l-305 -191l-55 88l360 224v508l-100 127h428l-123 -127v-381l293 184l55 -86z" />
    <glyph glyph-name="lslash" unicode="&#x142;" horiz-adv-x="946" 
d="M381 1307l-100 153l284 76v-621l314 195l53 -86l-367 -229v-648l107 -147h-393l102 147v533l-307 -193l-56 88l363 226v506z" />
    <glyph glyph-name="Nacute" unicode="&#x143;" horiz-adv-x="1482" 
d="M371 0h-310l101 147v1172l-99 115h283l877 -1276v1161l-101 115h308l-105 -115v-1319h-227l-834 1198v-1051zM657 1511l82 332h267z" />
    <glyph glyph-name="nacute" unicode="&#x144;" horiz-adv-x="1150" 
d="M696 1071q138 0 226 -95.5t88 -277.5v-551l102 -147h-389l100 147v482q0 145 -59.5 226t-159.5 81q-126 0 -260 -125v-664l105 -147h-394l105 147l-2 732l-99 153l285 74v-191q73 70 168 113t184 43zM487 1102l82 332h267z" />
    <glyph glyph-name="uni0145" unicode="&#x145;" horiz-adv-x="1361" 
d="M362 0h-309l101 111v1208l-99 115h283l774 -1276v1161l-100 115h307l-105 -115v-1319h-215l-743 1219v-1096zM627 -313q-44 0 -73.5 30.5t-29.5 77.5q0 51 33.5 83t87.5 32t85.5 -34t31.5 -91q0 -89 -70 -174q-68 -89 -149 -107q33 26 57 84q27 58 27 99z" />
    <glyph glyph-name="uni0146" unicode="&#x146;" horiz-adv-x="1130" 
d="M684 1071q138 0 225.5 -95.5t87.5 -277.5v-551l103 -147h-389l100 147v482q0 282 -197 282q-125 0 -282 -151v-613l104 -147h-393l104 147l-2 732l-98 153l285 74v-191q73 70 168 113t184 43zM555 -313q-44 0 -73 30.5t-29 77.5q0 51 33 83t87 32t85.5 -34t31.5 -91
q0 -89 -67 -174q-68 -89 -152 -107q33 26 57 84q27 58 27 99z" />
    <glyph glyph-name="Ncaron" unicode="&#x147;" horiz-adv-x="1484" 
d="M373 0h-310l101 147v1172l-98 115h282l877 -1276v1161l-101 115h308l-105 -115v-1319h-227l-834 1198v-1051zM489 1810l256 -122l263 122l18 -20l-276 -326h-5l-276 326z" />
    <glyph glyph-name="ncaron" unicode="&#x148;" horiz-adv-x="1153" 
d="M696 1071q138 0 226 -95.5t88 -277.5v-551l102 -147h-389l100 147v482q0 145 -59.5 226t-159.5 81q-126 0 -260 -125v-664l105 -147h-394l105 147l-2 732l-99 153l285 74v-191q73 70 168 113t184 43zM326 1532l256 -125l262 125l18 -21l-276 -325h-4l-277 325z" />
    <glyph glyph-name="Eng" unicode="&#x14a;" horiz-adv-x="1329" 
d="M1012 334v667q0 193 -53.5 275t-186.5 82q-126 0 -233 -55q-105 -54 -170 -113v-1043l106 -147h-414l103 147l-2 1160l-101 106l308 53v-174q86 78 223.5 130.5t288.5 52.5q192 -3 274 -113q85 -111 82 -365v-526q0 -217 -16 -346q-7 -78 -24 -130t-50 -110
q-27 -52 -68 -83t-108 -60q-107 -47 -322 -47v61q124 0 196.5 37t110.5 111q25 43 37 114q19 116 19 316z" />
    <glyph glyph-name="eng" unicode="&#x14b;" horiz-adv-x="1083" 
d="M815 86v543q0 145 -59.5 226t-159.5 81q-126 0 -260 -125v-664l104 -147h-393l105 147l-2 732l-99 153l285 74v-191q73 70 168 113t184 43q138 0 225.5 -95.5t87.5 -277.5v-632q0 -197 -72.5 -283t-254.5 -86v55q72 0 106.5 77t34.5 257z" />
    <glyph glyph-name="Omacron" unicode="&#x14c;" horiz-adv-x="1564" 
d="M786 1475q142 0 270.5 -48.5t227.5 -140.5q105 -92 164 -239.5t59 -327.5t-59 -327.5t-164 -241.5q-100 -91 -228.5 -139t-269.5 -48q-301 0 -512 199t-211 557q0 240 105 416q101 172 260 256t358 84zM381 1565v102h805v-102h-805zM289 717q0 -315 133.5 -477
t363.5 -162q235 0 364.5 167.5t129.5 475.5q0 314 -134.5 475.5t-365.5 161.5q-234 0 -362.5 -166.5t-128.5 -474.5z" />
    <glyph glyph-name="omacron" unicode="&#x14d;" horiz-adv-x="1212" 
d="M63 524q0 257 146.5 404t404.5 147q257 0 401 -145t144 -402q0 -259 -143.5 -406t-403.5 -147t-404.5 146.5t-144.5 402.5zM205 1178v102h805v-102h-805zM608 971q-156 0 -248 -117t-92 -328q0 -212 93 -329t251 -117q157 0 249 119t91 336q-1 110 -28 194.5t-74 136.5
t-108 78.5t-134 26.5z" />
    <glyph glyph-name="Obreve" unicode="&#x14e;" horiz-adv-x="1550" 
d="M782 1475q142 0 270.5 -48.5t227.5 -140.5q105 -92 164 -239.5t59 -327.5t-59 -327.5t-164 -241.5q-100 -91 -228.5 -139t-269.5 -48q-301 0 -512 199t-211 557q0 240 105 416q101 172 260 256t358 84zM766 1673q86 0 135.5 36t54.5 99h2q7 -31 7 -57q0 -94 -53.5 -147.5
t-145.5 -53.5q-90 0 -144.5 53.5t-54.5 141.5q0 36 6 63h2q5 -63 55.5 -99t135.5 -36zM285 717q0 -315 133.5 -477t363.5 -162q235 0 364.5 167.5t129.5 475.5q0 314 -134.5 475.5t-365.5 161.5q-234 0 -362.5 -166.5t-128.5 -474.5z" />
    <glyph glyph-name="obreve" unicode="&#x14f;" horiz-adv-x="1200" 
d="M61 524q0 257 146.5 404t404.5 147q257 0 401 -145t144 -402q0 -259 -143.5 -406t-403.5 -147t-404.5 146.5t-144.5 402.5zM801 1440h2q6 -30 6 -58q0 -96 -53.5 -150t-147.5 -54q-92 0 -146 53.5t-54 144.5q0 34 6 64h2q4 -66 54.5 -101.5t137.5 -35.5q86 0 139 37
t54 100zM606 971q-156 0 -248 -117t-92 -328q0 -212 93 -329t251 -117q157 0 249 119t91 336q-1 110 -28 194.5t-74 136.5t-108 78.5t-134 26.5z" />
    <glyph glyph-name="OE" unicode="&#x152;" horiz-adv-x="2426" 
d="M1526 770h364l146 164v-430l-146 164h-364v-566h628l185 295h4v-397h-1129l89 121q-202 -158 -472 -158q-143 0 -275.5 48t-238.5 139q-108 95 -170.5 242.5t-62.5 326.5t62 325.5t171 241.5q105 92 237 140.5t275 48.5q293 0 492 -175l-64 134h1065v-404h-4l-184 301
h-608v-561zM823 1358q-237 0 -374.5 -168.5t-137.5 -472.5q0 -320 146 -481q149 -158 374 -158q190 0 318 109.5t172 312.5v440q-46 205 -179 311.5t-319 106.5z" />
    <glyph glyph-name="oe" unicode="&#x153;" horiz-adv-x="2037" 
d="M1950 471h-762q10 -187 106 -289t252 -102q179 0 328 168l55 -55q-176 -218 -434 -218q-274 0 -412 199q-141 -199 -446 -199q-260 0 -404.5 146.5t-144.5 402.5q0 257 146.5 404t404.5 147q299 0 442 -192q137 192 422 192q270 0 377 -174q111 -172 70 -430zM635 80
q156 0 248 117.5t92 330.5q0 227 -98 334q-100 109 -244 109q-156 0 -248 -117t-92 -328q0 -212 92 -329t250 -117zM1507 956q-131 0 -219 -97t-100 -284h565q6 53 5.5 106.5t-18.5 103t-46 87.5t-76.5 61t-110.5 23z" />
    <glyph glyph-name="Racute" unicode="&#x154;" horiz-adv-x="1361" 
d="M870 580l347 -467l118 -113h-280l-447 643h-233v-496l106 -147h-422l109 147v1160l-109 127h531q571 0 571 -383q0 -178 -118.5 -285t-319.5 -121zM508 1511l82 332h266zM602 1331h-227v-586h227q148 0 241 78.5t93 225.5q0 140 -87.5 211t-246.5 71z" />
    <glyph glyph-name="racute" unicode="&#x155;" horiz-adv-x="907" 
d="M481 0h-418l107 147v732l-127 178h862l-114 -297l-250 211h-82q-61 0 -83 -25t-22 -92v-707zM444 1495h267l-349 -332z" />
    <glyph glyph-name="uni0156" unicode="&#x156;" horiz-adv-x="1271" 
d="M858 580l264 -467l119 -113h-280l-365 643h-234v-541l107 -102h-420l107 102v1229l-107 103h529q571 0 571 -383q0 -178 -118.5 -285t-319.5 -121zM606 -313q-44 0 -73 30.5t-29 77.5q0 51 33.5 83t87.5 32t85 -34t31 -91q0 -89 -67 -174q-68 -89 -152 -107q35 27 58 84
q26 56 26 99zM590 1331h-228v-586h228q147 0 240 79t94 223q1 143 -86.5 213.5t-247.5 70.5z" />
    <glyph glyph-name="uni0157" unicode="&#x157;" horiz-adv-x="915" 
d="M489 0h-417l106 147v732l-127 178h862l-114 -297l-250 211h-96q-51 0 -71 -25.5t-20 -91.5v-707zM260 -313q-44 0 -73 30.5t-29 77.5q0 51 33.5 83t87.5 32t85 -34t31 -91q0 -90 -69 -174q-68 -89 -152 -107q32 26 59 83t27 100z" />
    <glyph glyph-name="Rcaron" unicode="&#x158;" horiz-adv-x="1363" 
d="M868 580l346 -467l119 -113h-280l-447 643h-233v-496l106 -147h-422l109 147v1160l-109 127h531q571 0 571 -383q0 -178 -118.5 -285t-319.5 -121zM295 1898l256 -124l260 124l20 -20l-278 -326h-2l-279 326zM600 1331h-227v-586h227q148 0 241 78.5t93 225.5
q0 140 -87.5 211t-246.5 71z" />
    <glyph glyph-name="rcaron" unicode="&#x159;" horiz-adv-x="915" 
d="M487 0h-417l106 147v732l-127 178h862l-114 -297l-250 211h-82q-61 0 -83 -25t-22 -92v-707zM481 1386l260 125l21 -20l-279 -326h-2l-278 326l20 20z" />
    <glyph glyph-name="uni0162" unicode="&#x162;" horiz-adv-x="1247" 
d="M1229 1030h-2l-187 301h-311v-1210l107 -121h-412l100 121v1210h-313l-186 -301h-2v404h1206v-404zM610 -313q-44 0 -73 30.5t-29 77.5q0 51 32.5 83t86.5 32q55 0 86.5 -34t31.5 -91q0 -90 -69 -174q-68 -89 -152 -107q33 30 59.5 86t26.5 97z" />
    <glyph glyph-name="uni0163" unicode="&#x163;" horiz-adv-x="628" 
d="M588 158l35 -43q-121 -142 -273 -142q-91 0 -145.5 63.5t-54.5 182.5l-3 735h-114v43l291 365v-305h223v-103h-213v-725q-2 -69 16.5 -104t77.5 -41q74 0 160 74zM311 -313q-44 0 -73 30.5t-29 77.5q0 51 32.5 83t86.5 32q55 0 86.5 -34t31.5 -91q0 -90 -69 -174
q-68 -89 -152 -107q33 30 59.5 86t26.5 97z" />
    <glyph glyph-name="Tbar" unicode="&#x166;" horiz-adv-x="1282" 
d="M442 0l101 147v506h-260v103h260v575h-314l-186 -301h-2v404h1206v-404h-2l-186 301h-311v-575h253v-103h-253v-506l106 -147h-412z" />
    <glyph glyph-name="tbar" unicode="&#x167;" horiz-adv-x="708" 
d="M399 657h164v-102h-164v-326q-2 -69 16.5 -104t78.5 -41q73 0 159 74l35 -43q-121 -142 -272 -142q-91 0 -146.5 63.5t-56.5 182.5v336h-123v102h123v297h-115v43l291 365v-305h223v-103h-213v-297z" />
    <glyph glyph-name="Utilde" unicode="&#x168;" horiz-adv-x="1419" 
d="M1061 1434h307l-104 -127v-721q0 -324 -119 -473.5t-395 -149.5q-320 0 -459 160q-135 159 -135 510v674l-103 127h414l-107 -127v-672q0 -305 89 -432q88 -125 292 -125q245 0 336 155q84 142 84 381v693zM1004 1753h4q15 -69 -27 -135q-41 -66 -113 -66q-40 0 -110 37
q-73 37 -111 37q-76 0 -94 -76h-4q3 72 24 129q25 72 109 72q45 0 113 -39q62 -35 108 -35q80 0 101 76z" />
    <glyph glyph-name="utilde" unicode="&#x169;" horiz-adv-x="1155" 
d="M821 313v596l-104 148h289v-910l110 -147h-295v213q-145 -238 -352 -238q-138 0 -225.5 96t-87.5 277v561l-105 148h389l-98 -148v-489q0 -283 188 -283q81 0 157.5 48.5t133.5 127.5zM778 1372h4q15 -70 -26 -135q-41 -66 -113 -66q-40 0 -113 37q-70 37 -108 37
q-76 0 -94 -76h-4q3 201 131 201q48 0 112 -37t109 -37q81 0 102 76z" />
    <glyph glyph-name="Umacron" unicode="&#x16a;" horiz-adv-x="1429" 
d="M1067 1434h307l-104 -127v-721q0 -324 -119 -473.5t-395 -149.5q-320 0 -459 160q-135 159 -135 510v674l-103 127h414l-106 -127v-672q0 -307 88 -432t293 -125q244 0 335 155q84 142 84 381v693zM1174 1534h-805v102h805v-102z" />
    <glyph glyph-name="umacron" unicode="&#x16b;" 
d="M825 313v596l-104 148h289v-910l110 -147h-295v213q-145 -238 -352 -238q-138 0 -225.5 96t-87.5 277v561l-105 148h389l-98 -148v-489q0 -283 189 -283q81 0 157 48.5t133 127.5zM977 1178h-805v102h805v-102z" />
    <glyph glyph-name="Ubreve" unicode="&#x16c;" horiz-adv-x="1419" 
d="M1061 1434h307l-104 -127v-721q0 -324 -119 -473.5t-395 -149.5q-320 0 -459 160q-135 159 -135 510v674l-103 127h414l-107 -127v-672q0 -305 89 -432q88 -125 292 -125q245 0 336 155q84 142 84 381v693zM750 1690q97 0 154.5 40t58.5 109h4q27 -121 -35.5 -205
t-188.5 -84q-121 0 -174 80t-34 209h4q4 -71 60 -110t151 -39z" />
    <glyph glyph-name="ubreve" unicode="&#x16d;" horiz-adv-x="1159" 
d="M821 313v596l-104 148h289v-910l110 -147h-295v213q-145 -238 -352 -238q-138 0 -225.5 96t-87.5 277v561l-105 148h389l-98 -148v-489q0 -283 188 -283q81 0 157.5 48.5t133.5 127.5zM784 1421h2q28 -117 -30 -198q-58 -82 -183 -82q-118 0 -168.5 77t-31.5 203h2
q5 -69 59 -108t146 -39q93 0 148 39t56 108z" />
    <glyph glyph-name="Uring" unicode="&#x16e;" horiz-adv-x="1413" 
d="M1059 1434h307l-104 -127v-721q0 -324 -119 -473.5t-395 -149.5q-320 0 -459 160q-135 159 -135 510v674l-103 127h414l-107 -127v-672q0 -307 88 -432t293 -125q245 0 336 155q84 142 84 381v693zM745 1933q94 0 150.5 -54t56.5 -144q0 -91 -56.5 -146t-150.5 -55
q-92 0 -148 55t-56 146q0 90 55.5 144t148.5 54zM745 1855q-52 0 -88 -32.5t-36 -87.5t37 -89t90 -34t87.5 32.5t34.5 88.5q0 55 -36 88.5t-89 33.5z" />
    <glyph glyph-name="uring" unicode="&#x16f;" horiz-adv-x="1150" 
d="M817 315v594l-106 148h290v-907l111 -148h-295v211q-143 -236 -354 -236q-138 0 -224.5 95t-86.5 278v559l-105 148h389l-98 -148v-489q0 -283 188 -283q81 0 160 49.5t131 128.5zM563 1524q94 0 150.5 -54t56.5 -145t-56.5 -146t-150.5 -55q-92 0 -148.5 55t-56.5 146
q0 90 56 144.5t149 54.5zM563 1446q-52 0 -88.5 -33t-36.5 -88t37 -89t90 -34t88 33t35 88t-36 89t-89 34z" />
    <glyph glyph-name="Uhungarumlaut" unicode="&#x170;" horiz-adv-x="1425" 
d="M1061 1434h307l-104 -127v-721q0 -324 -119 -473.5t-395 -149.5q-320 0 -459 160q-135 159 -135 510v674l-103 127h414l-107 -127v-672q0 -305 89 -432q88 -125 292 -125q245 0 336 155q84 142 84 381v693zM504 1524l90 331h299zM819 1524l123 331h315z" />
    <glyph glyph-name="uhungarumlaut" unicode="&#x171;" 
d="M821 313v596l-104 148h289v-910l110 -147h-295v213q-145 -238 -352 -238q-138 0 -225.5 96t-87.5 277v561l-105 148h389l-98 -148v-489q0 -283 188 -283q81 0 157.5 48.5t133.5 127.5zM332 1171l90 332h299zM647 1171l123 332h315z" />
    <glyph glyph-name="Uogonek" unicode="&#x172;" horiz-adv-x="1421" 
d="M1083 -221q-29 -105 -103.5 -164t-178.5 -59q-103 0 -167.5 56t-64.5 146q0 125 117 207q-280 13 -403 173t-123 495v674l-103 127h414l-106 -127v-672q0 -307 88 -432t292 -125q245 0 336 155q84 142 84 381v693l-100 127h307l-104 -127v-721q0 -312 -109.5 -461.5
t-363.5 -161.5q-37 -52 -37 -123q0 -78 40 -121t109 -43q108 0 176 103z" />
    <glyph glyph-name="uogonek" unicode="&#x173;" horiz-adv-x="1218" 
d="M1137 -141q-20 -74 -72 -115t-125 -41q-72 0 -117 39.5t-45 101.5q0 98 101 156h-70v213q-145 -238 -352 -238q-138 0 -226 96t-88 277v561l-104 148h389l-98 -148v-489q0 -283 188 -283q81 0 157.5 48.5t133.5 127.5v596l-104 148h288v-910l111 -147h-158
q-37 -37 -37 -98q0 -54 28 -84.5t77 -30.5q76 0 123 72z" />
    <glyph glyph-name="Zacute" unicode="&#x179;" horiz-adv-x="1183" 
d="M139 0l-96 203l901 1128h-543l-104 -291l-184 394h936l100 -177l-922 -1155h596l178 295l121 -397h-983zM590 1841h266l-348 -332z" />
    <glyph glyph-name="zacute" unicode="&#x17a;" horiz-adv-x="962" 
d="M84 0l-41 98l643 856h-332l-151 -245l-135 348h804l62 -76l-660 -879h369l158 265l121 -367h-838zM489 1501h267l-348 -332z" />
    <glyph glyph-name="Zcaron" unicode="&#x17d;" horiz-adv-x="1187" 
d="M143 0l-96 203l901 1128h-542l-105 -291l-184 394h936l100 -177l-922 -1155h596l179 295l120 -397h-983zM651 1751l262 123l19 -19l-277 -325h-4l-276 325l20 19z" />
    <glyph glyph-name="zcaron" unicode="&#x17e;" horiz-adv-x="976" 
d="M92 0l-41 98l643 856h-332l-151 -245l-135 348h805l61 -76l-659 -879h368l158 265l121 -367h-838zM496 1393l260 123l20 -21l-278 -326h-2l-279 326l23 21z" />
    <glyph glyph-name="Dbar" unicode="&#x189;" horiz-adv-x="1431" 
d="M229 791v540l-106 103h434q388 0 596.5 -181t208.5 -534q0 -356 -209 -537.5t-596 -181.5h-434l106 100v586h-159v105h159zM606 1331h-170v-540h197v-105h-197v-586h170q263 0 398 176q135 179 135 449q0 265 -133 436q-132 170 -400 170z" />
    <glyph glyph-name="Acaron" unicode="&#x1cd;" horiz-adv-x="1452" 
d="M1427 0h-389l88 102l-133 416h-579l-156 -416l127 -102h-360l135 139l458 1209l-57 86h326l438 -1295zM745 1786l281 135l23 -23l-299 -352h-5l-299 352l23 23zM961 621l-242 686h-8l-258 -686h508z" />
    <glyph glyph-name="acaron" unicode="&#x1ce;" horiz-adv-x="1087" 
d="M57 270q0 121 84 213q33 33 95 68q52 28 104 47q79 29 115 41q126 42 186 76q84 47 84 125q0 72 -55 84h-314l-155 -215l-138 348h881l-22 -101v-782l129 -174h-316v215q-65 -110 -168.5 -170.5t-216.5 -60.5q-129 0 -211.5 76.5t-81.5 209.5zM518 1415l281 133l22 -22
l-299 -350h-4l-299 350l23 22zM737 311v373q-26 -33 -69 -63q-55 -38 -160 -86q-90 -39 -160 -89q-72 -55 -72 -141q0 -68 42 -108.5t120 -40.5q80 0 161 42t138 113z" />
    <glyph glyph-name="Icaron" unicode="&#x1cf;" horiz-adv-x="638" 
d="M510 1434l-86 -115v-1196l106 -123h-411l100 111l-2 1208l-98 115h391zM324 1806l280 136l23 -23l-301 -352h-2l-301 352l24 23z" />
    <glyph glyph-name="icaron" unicode="&#x1d0;" horiz-adv-x="645" 
d="M133 1024l281 84v-961l127 -147h-432l120 147v742zM281 1417l282 133l21 -22l-299 -350h-4l-299 350l22 22z" />
    <glyph glyph-name="Ocaron" unicode="&#x1d1;" horiz-adv-x="1587" 
d="M799 1475q141 0 271.5 -48.5t234.5 -140.5q108 -93 170.5 -240.5t62.5 -326.5t-62.5 -326.5t-170.5 -242.5q-104 -91 -235.5 -139t-272.5 -48t-272.5 48t-237.5 139q-109 95 -171.5 242.5t-62.5 326.5q0 178 62.5 325t171.5 242q105 92 237 140.5t275 48.5zM799 1825
l280 135l23 -23l-301 -352h-2l-301 352l24 23zM281 717q0 -321 145 -481q149 -158 373 -158q237 0 375.5 169.5t138.5 473.5q0 322 -148 479q-149 158 -374 158q-237 0 -373.5 -168t-136.5 -473z" />
    <glyph glyph-name="ocaron" unicode="&#x1d2;" horiz-adv-x="1193" 
d="M53 524q0 257 146.5 404t404.5 147q257 0 401 -145t144 -402q0 -259 -143.5 -406t-403.5 -147t-404.5 146.5t-144.5 402.5zM598 1417l281 133l22 -22l-301 -350h-2l-301 350l25 22zM600 971q-157 0 -249.5 -117t-92.5 -328q0 -212 93 -329t251 -117t249.5 118.5
t90.5 336.5q-1 110 -27.5 194.5t-73.5 136.5t-107.5 78.5t-133.5 26.5z" />
    <glyph glyph-name="Ucaron" unicode="&#x1d3;" horiz-adv-x="1415" 
d="M1059 1434h307l-106 -127v-721q0 -324 -118 -473.5t-394 -149.5q-320 0 -459 160q-137 158 -137 510v674l-101 127h414l-109 -127v-672q0 -302 90 -430q87 -124 295 -127q213 0 314.5 127.5t101.5 408.5v693zM707 1786l280 135l23 -23l-299 -352h-4l-299 352l22 23z" />
    <glyph glyph-name="ucaron" unicode="&#x1d4;" horiz-adv-x="1153" 
d="M817 313v594l-104 150h288v-910l111 -147h-295v213q-139 -238 -352 -238q-138 0 -225.5 95.5t-87.5 277.5v559l-103 150h389l-100 -148v-489q0 -285 188 -285q82 0 158.5 48.5t132.5 129.5zM580 1411l280 133l23 -22l-301 -351h-2l-301 351l24 22z" />
    <glyph glyph-name="Gacute" unicode="&#x1f4;" horiz-adv-x="1474" 
d="M1016 729h414l-105 -143v-586l-160 47q-186 -59 -366 -59q-343 0 -545 202q-201 204 -201 553q0 333 183 510q184 178 479 199q40 4 92 4q217 0 424 -70v-356h-2l-164 273q-129 57 -270 57q-219 0 -367 -154q-148 -151 -145 -461q0 -312 157.5 -479.5t446.5 -167.5
q105 0 233 25v463zM717 1864h266l-348 -332z" />
    <glyph glyph-name="gacute" unicode="&#x1f5;" horiz-adv-x="1325" 
d="M1028 915l250 197v-252h-213q65 -86 65 -229q0 -195 -136 -309.5t-369 -114.5q-204 0 -340 86q-15 -123 112 -160q107 -24 224 -27h28q23 -1 119 -8q44 -3 111 -12q66 -8 108 -27q74 -31 122.5 -88.5t47.5 -146.5q9 -185 -139 -283q-147 -100 -387 -112q-14 -2 -64 -2
q-237 0 -371.5 82t-134.5 208q0 81 61.5 153t172.5 114q-48 10 -85.5 47t-55.5 88q-18 59 4.5 114.5t77.5 92.5q-146 125 -146 317q0 194 141 311q140 119 375 119q273 0 422 -158zM551 1163l98 271h289zM297 645q0 -146 88.5 -232.5t235.5 -86.5q142 0 223.5 83t81.5 226
q0 148 -86.5 233.5t-229.5 85.5q-141 0 -227 -84t-86 -225zM989 -250q0 40 -23.5 72t-58.5 51q-39 19 -88 27q-14 2 -34 5.5t-33 5.5t-23 3l-90 6q-162 9 -262 35q-154 -71 -154 -186q0 -110 109 -175q105 -63 254 -63q80 0 166 18q79 14 161 70q76 52 76 131z" />
    <glyph glyph-name="Ngrave" unicode="&#x1f8;" horiz-adv-x="1376" 
d="M369 0h-310l103 111v1208l-101 115h283l776 -1276v1161l-102 115h307l-102 -115v-1319h-217l-742 1219v-1096zM436 1843h269l81 -332z" />
    <glyph glyph-name="ngrave" unicode="&#x1f9;" horiz-adv-x="1144" 
d="M700 1071q138 0 226 -95.5t88 -277.5v-551l102 -147h-389l100 147v482q0 282 -196 282q-126 0 -283 -151v-613l105 -147h-394l105 147l-2 732l-99 153l285 74v-191q73 70 168 113t184 43zM170 1452h289l102 -274z" />
    <glyph glyph-name="uni021A" unicode="&#x21a;" horiz-adv-x="1247" 
d="M1229 1030h-2l-187 301h-311v-1210l107 -121h-412l100 121v1210h-313l-186 -301h-2v404h1206v-404zM610 -313q-44 0 -73 30.5t-29 77.5q0 51 32.5 83t86.5 32q55 0 86.5 -34t31.5 -91q0 -90 -69 -174q-68 -89 -152 -107q33 30 59.5 86t26.5 97z" />
    <glyph glyph-name="uni021B" unicode="&#x21b;" horiz-adv-x="628" 
d="M588 158l35 -43q-121 -142 -273 -142q-91 0 -145.5 63.5t-54.5 182.5l-3 735h-114v43l291 365v-305h223v-103h-213v-725q-2 -69 16.5 -104t77.5 -41q74 0 160 74zM311 -313q-44 0 -73 30.5t-29 77.5q0 51 32.5 83t86.5 32q55 0 86.5 -34t31.5 -91q0 -90 -69 -174
q-68 -89 -152 -107q33 30 59.5 86t26.5 97z" />
    <glyph glyph-name="circumflex" unicode="&#x2c6;" horiz-adv-x="716" 
d="M377 1485h4l278 -326l-20 -20l-262 125l-256 -125l-21 20z" />
    <glyph glyph-name="caron" unicode="&#x2c7;" horiz-adv-x="712" 
d="M377 1360l262 125l20 -21l-278 -325h-4l-277 325l21 21z" />
    <glyph glyph-name="overscore" unicode="&#x2c9;" horiz-adv-x="886" 
d="M123 1434v102h641v-102h-641z" />
    <glyph glyph-name="breve" unicode="&#x2d8;" horiz-adv-x="739" 
d="M567 1581h2q9 -30 9 -68q-5 -89 -60 -142.5t-151 -53.5q-91 0 -140.5 51.5t-54.5 140.5q-2 12 2 72h4q4 -66 55.5 -101.5t139.5 -35.5t140 37t54 100z" />
    <glyph glyph-name="dotaccent" unicode="&#x2d9;" horiz-adv-x="391" 
d="M31 1292q-4 40 19 71t58 43.5t75 6.5t67 -33q35 -35 35 -88q0 -56 -33.5 -87t-93.5 -31q-57 0 -92 32t-35 86z" />
    <glyph glyph-name="ring" unicode="&#x2da;" horiz-adv-x="591" 
d="M348 1524q94 0 150.5 -54t56.5 -145t-56.5 -146t-150.5 -55q-92 0 -148.5 55t-56.5 146q0 90 56 144.5t149 54.5zM348 1446q-52 0 -88.5 -33t-36.5 -88t37 -89t90 -34t88 33t35 88t-36 89t-89 34z" />
    <glyph glyph-name="ogonek" unicode="&#x2db;" horiz-adv-x="643" 
d="M573 -141q-20 -74 -71.5 -115t-124.5 -41q-72 0 -117 39.5t-45 101.5q0 73 63.5 128.5t167.5 72.5v-4q-100 -37 -100 -139q0 -54 28 -84.5t77 -30.5q75 0 122 72z" />
    <glyph glyph-name="tilde" unicode="&#x2dc;" horiz-adv-x="647" 
d="M557 1384h4q15 -70 -26 -135t-113 -65q-40 0 -113 37q-68 36 -108 36q-77 0 -95 -75h-4q3 200 131 200q47 0 115 -36q61 -37 109 -37q79 0 100 75z" />
    <glyph glyph-name="acuteaccentdbl" unicode="&#x2dd;" horiz-adv-x="800" 
d="M184 1434h267l-349 -332zM492 1434h266l-348 -332z" />
    <glyph glyph-name="uni1680" unicode="&#x1680;" horiz-adv-x="1398" 
d="M123 1331v103h1153v-103h-1153z" />
    <glyph glyph-name="Wgrave" unicode="&#x1e80;" horiz-adv-x="2207" 
d="M713 117h22l328 919l-86 271l-121 127h420l-84 -127l381 -1190h20l355 1190l-80 127h297l-113 -136l-387 -1298h-270l-281 874l-311 -874h-256l-389 1298l-111 136h397l-82 -127zM793 1843h268l82 -332z" />
    <glyph glyph-name="wgrave" unicode="&#x1e81;" horiz-adv-x="1808" 
d="M1782 1057l-168 -178l-346 -879h-219l-195 565l-221 -565h-223l-359 1057h361l-105 -178l258 -764l238 602l-117 340h385l-108 -226l239 -716l301 764l-119 178h398zM586 1499h268l82 -332z" />
    <glyph glyph-name="Wacute" unicode="&#x1e82;" horiz-adv-x="2207" 
d="M713 117h22l328 919l-86 271l-121 127h420l-84 -127l381 -1190h20l355 1190l-80 127h297l-113 -136l-387 -1298h-270l-281 874l-311 -874h-256l-389 1298l-111 136h397l-82 -127zM1030 1511l82 332h266z" />
    <glyph glyph-name="wacute" unicode="&#x1e83;" horiz-adv-x="1806" 
d="M1778 1057l-168 -178l-346 -879h-220l-194 565l-221 -565h-223l-359 1057h361l-105 -178l258 -764l238 602l-117 340h385l-109 -226l240 -716l301 764l-119 178h398zM831 1178l82 331h267z" />
    <glyph glyph-name="Hyphen" unicode="&#x2010;" horiz-adv-x="866" 
d="M123 600v102h620v-102h-620z" />
    <glyph glyph-name="Nonbreakinghyphen" unicode="&#x2011;" horiz-adv-x="989" 
d="M123 600v102h743v-102h-743z" />
    <glyph glyph-name="figuredash" unicode="&#x2012;" horiz-adv-x="1398" 
d="M123 600v102h1153v-102h-1153z" />
    <glyph glyph-name="endash" unicode="&#x2013;" horiz-adv-x="1644" 
d="M123 600v102h1411v-102h-1411z" />
    <glyph glyph-name="emdash" unicode="&#x2014;" horiz-adv-x="2363" 
d="M123 600v102h2126v-102h-2126z" />
    <glyph glyph-name="horizontalbar" unicode="&#x2015;" horiz-adv-x="1808" 
d="M123 600v102h1563v-102h-1563z" />
    <glyph glyph-name="quoteleft" unicode="&#x2018;" horiz-adv-x="354" 
d="M203 1151q0 -41 26.5 -96.5t59.5 -85.5q-83 18 -154 104q-67 85 -67 174q0 60 31 93.5t87 33.5q54 0 86.5 -31.5t32.5 -82.5q0 -50 -27.5 -79.5t-74.5 -29.5z" />
    <glyph glyph-name="quoteright" unicode="&#x2019;" horiz-adv-x="356" 
d="M176 1335q-47 0 -74.5 29.5t-27.5 79.5q0 51 32.5 83t86.5 32q56 0 87 -33.5t31 -93.5q0 -91 -69 -175q-68 -86 -152 -104q33 30 59.5 85.5t26.5 96.5z" />
    <glyph glyph-name="quotesingletop" unicode="&#x201b;" horiz-adv-x="354" 
d="M203 1151q0 -41 26.5 -96.5t59.5 -85.5q-83 18 -154 104q-67 85 -67 174q0 60 31 93.5t87 33.5q54 0 86.5 -31.5t32.5 -82.5q0 -50 -27.5 -79.5t-74.5 -29.5z" />
    <glyph glyph-name="quotedblleft" unicode="&#x201c;" horiz-adv-x="731" 
d="M233 1192q47 0 75 -29.5t28 -79.5q0 -51 -32.5 -82.5t-86.5 -31.5q-56 0 -87.5 33.5t-31.5 93.5q0 88 68 174q71 86 153 104q-33 -30 -59.5 -85.5t-26.5 -96.5zM541 1192q47 0 74.5 -29.5t27.5 -79.5q0 -51 -32.5 -82.5t-86.5 -31.5q-56 0 -87 33.5t-31 93.5q0 89 67 174
q71 86 154 104q-33 -30 -59.5 -85.5t-26.5 -96.5z" />
    <glyph glyph-name="quotedblright" unicode="&#x201d;" horiz-adv-x="724" 
d="M201 1151q-47 0 -75 29.5t-28 79.5q0 51 32.5 82.5t86.5 31.5q56 0 87.5 -33.5t31.5 -93.5q0 -89 -70 -174q-68 -86 -151 -104q33 30 59.5 85.5t26.5 96.5zM508 1151q-47 0 -74.5 29.5t-27.5 79.5q0 51 32 82.5t86 31.5q56 0 87.5 -33.5t31.5 -93.5q0 -89 -70 -174
q-68 -86 -151 -104q33 30 59.5 85.5t26.5 96.5z" />
    <glyph glyph-name="quotedblbase" unicode="&#x201e;" horiz-adv-x="724" 
d="M201 121q-47 0 -75 29t-28 79q0 51 32.5 83t86.5 32q56 0 87.5 -33.5t31.5 -93.5q0 -89 -70 -174q-68 -86 -151 -104q33 30 59.5 85.5t26.5 96.5zM508 121q-47 0 -74.5 29t-27.5 79q0 51 32 83t86 32q56 0 87.5 -33.5t31.5 -93.5q0 -89 -70 -174q-68 -86 -151 -104
q33 30 59.5 85.5t26.5 96.5z" />
    <glyph glyph-name="quotedbltop" unicode="&#x201f;" horiz-adv-x="722" 
d="M201 1151q-47 0 -75 29.5t-28 79.5q0 51 32.5 82.5t86.5 31.5q56 0 87.5 -33.5t31.5 -93.5q0 -89 -70 -174q-68 -86 -151 -104q33 30 59.5 85.5t26.5 96.5zM508 1151q-47 0 -74.5 29.5t-27.5 79.5q0 51 32 82.5t86 31.5q56 0 87.5 -33.5t31.5 -93.5q0 -89 -70 -174
q-68 -86 -151 -104q33 30 59.5 85.5t26.5 96.5z" />
    <glyph glyph-name="dagger" unicode="&#x2020;" horiz-adv-x="907" 
d="M508 1024l362 41v-184l-362 41l41 -1147h-184l41 1147l-361 -41v184l361 -41l-41 322h184z" />
    <glyph glyph-name="daggerdbl" unicode="&#x2021;" horiz-adv-x="923" 
d="M881 535v-187l-344 41l22 -614h-184l22 614l-344 -41v187l348 -41l15 428l-363 -41v184l363 -41l-41 322h184l-41 -322l363 41v-184l-363 41l17 -428z" />
    <glyph glyph-name="bullet" unicode="&#x2022;" horiz-adv-x="765" 
d="M96 651q0 133 80 213q82 82 213 82t213 -82t82 -213t-81 -212t-214 -81q-131 0 -212 81t-81 212z" />
    <glyph glyph-name="ellipsis" unicode="&#x2026;" horiz-adv-x="1163" 
d="M145 0q-31 31 -31 82t31 82q32 31 86 31t86 -31t32 -82t-32 -82t-86 -31t-86 31zM494 0q-31 31 -31 82t31 82q32 31 86 31t86 -31t32 -82t-32 -82t-86 -31t-86 31zM842 0q-31 31 -31 82t31 82q32 31 86 31t86 -31t32 -82t-32 -82t-86 -31t-86 31z" />
    <glyph glyph-name="prime" unicode="&#x2032;" horiz-adv-x="462" 
d="M133 1462h285l-162 -473h-164z" />
    <glyph glyph-name="primedbl" unicode="&#x2033;" horiz-adv-x="835" 
d="M147 1462h285l-162 -473h-164zM475 1462h285l-162 -473h-164z" />
    <glyph glyph-name="primereversed" unicode="&#x2035;" horiz-adv-x="456" 
d="M342 1462l41 -473h-164l-162 473h285z" />
    <glyph glyph-name="primereverseddbl" unicode="&#x2036;" horiz-adv-x="856" 
d="M371 1462l41 -473h-164l-162 473h285zM719 1462l41 -473h-164l-162 473h285z" />
    <glyph glyph-name="guilsinglleft" unicode="&#x2039;" horiz-adv-x="589" 
d="M29 659v5l450 448l27 -27l-170 -423l170 -422l-27 -29z" />
    <glyph glyph-name="guilsinglright" unicode="&#x203a;" horiz-adv-x="587" 
d="M256 662l-170 423l27 27l450 -448v-5l-450 -448l-27 29z" />
    <glyph glyph-name="No" unicode="&#x2116;" horiz-adv-x="2381" 
d="M418 0h-309l100 147v1172l-98 115h282l877 -1276v1161l-101 115h308l-105 -115v-1319h-227l-834 1198v-1051zM1683 391v123h547v-123h-547zM1610 1098q0 153 92 262q94 108 256 108q160 0 252 -108q94 -107 94 -266q0 -157 -92 -269q-91 -110 -252 -110q-163 0 -256 112
q-94 113 -94 271zM2140 1098q0 147 -47 231t-133 84t-135 -87t-49 -236t47.5 -234.5t132.5 -85.5q86 0 135 89t49 239z" />
    <glyph glyph-name="leftarrow" unicode="&#x2190;" horiz-adv-x="1624" 
d="M76 766l491 469l27 -27l-277 -403l1287 41v-184l-1287 40l277 -380l-27 -29l-491 469v4z" />
    <glyph glyph-name="upwards" unicode="&#x2191;" horiz-adv-x="1021" 
d="M518 1528l469 -492l-26 -26l-404 276l39 -1286h-184l43 1286l-381 -276l-29 26l469 492h4z" />
    <glyph glyph-name="rightarrow" unicode="&#x2192;" horiz-adv-x="1619" 
d="M20 866l1287 -41l-277 381l27 29l491 -469v-4l-491 -469l-27 26l277 404l-1287 -41v184z" />
    <glyph glyph-name="downwards" unicode="&#x2193;" horiz-adv-x="1024" 
d="M616 1434l-43 -1287l383 277l29 -27l-469 -491h-4l-469 491l27 27l403 -277l-41 1287h184z" />
    <glyph glyph-name="northwest" unicode="&#x2196;" horiz-adv-x="1222" 
d="M53 1284l680 -14v-39l-481 -90l938 -881l-131 -129l-879 938l-74 -465l-38 -2l-17 680z" />
    <glyph glyph-name="northeast" unicode="&#x2197;" horiz-adv-x="1243" 
d="M37 276l940 879l-465 76l-2 39l680 14l2 -2l-16 -680h-37l-90 481l-881 -938z" />
    <glyph glyph-name="southeast" unicode="&#x2198;" horiz-adv-x="1224" 
d="M1174 154l-680 16v37l481 90l-938 881l131 131l879 -940l73 465l39 2l17 -680z" />
    <glyph glyph-name="southwest" unicode="&#x2199;" horiz-adv-x="1241" 
d="M1206 1176l-938 -879l465 -74l2 -39l-680 -16l-2 2l15 680h38l91 -481l880 938z" />
    <glyph glyph-name="leftbracket" unicode="&#x3008;" horiz-adv-x="622" 
d="M27 659v5l491 550l27 -26l-211 -526l211 -525l-27 -28z" />
    <glyph glyph-name="rightbracket" unicode="&#x3009;" horiz-adv-x="628" 
d="M299 662l-211 526l27 26l491 -550v-5l-491 -550l-27 28z" />
    <glyph glyph-name="leftbracketdbl" unicode="&#x300a;" horiz-adv-x="1075" 
d="M53 659v5l492 550l26 -26l-211 -526l211 -525l-26 -28zM463 659v5l491 550l27 -26l-211 -526l211 -525l-27 -28z" />
    <glyph glyph-name="rightbracketdbl" unicode="&#x300b;" horiz-adv-x="1079" 
d="M313 662l-211 526l27 26l492 -550v-5l-492 -550l-27 28zM723 662l-211 526l27 26l491 -550v-5l-491 -550l-27 28z" />
    <glyph glyph-name="logo" unicode="&#xe000;" horiz-adv-x="2936" 
d="M1468 1298q219 0 433 -34q226 -36 446 -127q224 -89 354 -234q111 -126 111 -266q0 -144 -111 -264q-126 -144 -356 -238q-389 -158 -877 -158q-224 0 -432 33q-221 35 -446 127q-226 92 -354 236q-111 129 -111 264q0 205 237 377q203 148 504 215q298 69 602 69z
M1597 639q18 0 29.5 -11.5t11.5 -29.5q0 -24 -13 -40.5t-36 -16.5q-41 0 -41 43q0 24 13 39.5t36 15.5zM446 608h-260q10 -94 79 -181.5t177 -150.5q200 -114 406 -163q-165 79 -277 206q-116 134 -125 289zM682 608h-176q10 -102 66 -192t145 -154q166 -119 373 -178l6 -2
q-176 77 -289 217t-125 309zM848 1163q-219 -59 -404 -166q-109 -62 -178.5 -148.5t-79.5 -180.5h260q9 154 125 288q114 129 277 207zM1096 1192l-6 -2q-207 -59 -373 -178q-89 -63 -145 -152t-66 -192h176q12 171 127 311q119 140 287 213zM1065 481q103 0 135 107
q9 35 12 61q9 51 15 129h-76q0 -23 -7.5 -72t-27.5 -102t-47 -53q-39 0 -39 39q0 36 12 106l17 82h-78q-29 -192 -29 -207q0 -43 32 -66.5t81 -23.5zM1360 489h70q20 109 20 142q0 63 -64 63q-32 0 -69 -37l6 31h-68l-30 -199h67q0 15 2 35.5t7.5 48t19 46t31.5 18.5
q26 0 26 -27q0 -4 -18 -121zM1624 516l-4 -27h66l47 306h-68q0 -1 -9 -58t-9 -78q-35 35 -68 35q-46 0 -75 -35t-29 -86q0 -38 21.5 -65t55.5 -27q45 0 72 35zM1741 553l-25 -47q48 -25 84 -25q88 0 88 70q0 35 -41 53q-36 16 -45 29q8 14 23 14q26 0 47 -18l20 45
q-33 20 -69 20q-34 0 -60 -18t-26 -47q0 -33 43 -54q43 -18 43 -28l-6 -12q-15 -5 -17 -5q-18 0 -59 23zM1907 522q0 -25 20 -35.5t40 0t20 35.5q0 24 -20 33.5t-40 -0.5t-20 -33zM1841 82l6 2q211 60 375 178q92 64 148 153.5t63 192.5h-178q-9 -178 -125 -315
q-114 -138 -289 -211zM2089 113q214 53 405 163q108 64 177.5 150.5t81.5 181.5h-263q-9 -161 -125 -289q-116 -131 -276 -206zM2255 668h178q-7 103 -63 192.5t-148 151.5q-164 118 -375 178l-6 2q170 -72 289 -213q116 -137 125 -311zM2490 668h263q-12 96 -81 181.5
t-178 147.5q-192 112 -405 166q159 -74 276 -207q116 -128 125 -288z" />
    <glyph glyph-name="longs_t" unicode="&#xfb05;" horiz-adv-x="1396" 
d="M887 219v735h-525v-807l146 -147h-432l102 147v807h-100v103h100v84q0 197 64 301q63 106 250 106q101 0 251 -39v-286l-204 223h-19q-89 0 -123.5 -52t-34.5 -157v-180h512l187 305v-305h223v-103h-213v-725q-2 -69 16.5 -104t77.5 -41q71 0 160 74l35 -43
q-121 -142 -273 -142q-91 0 -145.5 63.5t-54.5 182.5z" />
    <glyph glyph-name="_1" horiz-adv-x="0" 
 />
    <glyph glyph-name="CR" horiz-adv-x="681" 
 />
    <glyph glyph-name="Ccircumflex" horiz-adv-x="1275" 
d="M1231 1384v-354h-2l-164 273q-145 59 -285 59q-229 0 -366 -168q-136 -171 -133 -475q1 -305 137.5 -473t376.5 -168q127 0 270 49l162 270h4v-356q-209 -57 -424 -57q-123 0 -229 21.5t-204.5 74.5t-168.5 135.5t-111.5 212t-40.5 295.5q0 158 41 283.5t110.5 208.5
t166.5 138t204 79t228 24q209 0 428 -72zM774 1919h4l334 -393l-25 -23l-313 150l-309 -150l-27 23z" />
    <glyph glyph-name="Cdotaccent" horiz-adv-x="1267" 
d="M1229 1384v-354h-2l-164 273q-145 59 -285 59q-229 0 -366 -168q-136 -171 -133 -475q1 -305 137.5 -473t376.5 -168q127 0 270 49l162 270h4v-356q-209 -57 -424 -57q-123 0 -229 21.5t-204.5 74.5t-168.5 135.5t-111.5 212t-40.5 295.5q0 158 41 283.5t110.5 208.5
t166.5 138t204 79t228 24q209 0 428 -72zM651 1649q-4 40 19 71t58 43.5t75 6.5t67 -33q35 -35 35 -88q0 -56 -33.5 -87.5t-93.5 -31.5q-57 0 -92 32.5t-35 86.5z" />
    <glyph glyph-name="Ecircumflex" horiz-adv-x="1232" 
d="M879 504l-146 164h-362v-566h626l187 295h2v-397h-1127l107 147v1160l-107 127h1106v-404h-2l-186 301h-606v-561h362l146 164v-430zM629 1933h4l334 -393l-25 -24l-313 149l-310 -149l-24 24z" />
    <glyph glyph-name="Edieresis" horiz-adv-x="1232" 
d="M879 504l-146 164h-362v-566h626l187 295h2v-397h-1127l107 147v1160l-107 127h1106v-404h-2l-186 301h-606v-561h362l146 164v-430zM340 1679q0 49 33 80t84 31q54 0 86 -30.5t32 -80.5q0 -51 -32 -82.5t-86 -31.5q-51 0 -84 31.5t-33 82.5zM672 1679q0 50 32.5 80.5
t86.5 30.5q51 0 83.5 -31t32.5 -80q0 -51 -32.5 -82.5t-83.5 -31.5q-54 0 -86.5 31.5t-32.5 82.5z" />
    <glyph glyph-name="Edotaccent" horiz-adv-x="1226" 
d="M877 504l-146 164h-362v-566h626l187 295h2v-397h-1127l107 147v1160l-107 127h1106v-404h-2l-186 301h-606v-561h362l146 164v-430zM477 1626q-4 40 19 71t58 43.5t75 6.5t67 -33q35 -35 35 -88q0 -56 -33.5 -87.5t-93.5 -31.5q-57 0 -92 32.5t-35 86.5z" />
    <glyph glyph-name="Euro" horiz-adv-x="1585" 
d="M1020 78q127 0 270 49l162 270h4v-356q-209 -57 -424 -57q-289 0 -481 122q-194 123 -250 392h-205v102h189q-12 123 0 246h-189v102h207q58 253 254 381q198 127 471 127q209 0 428 -72l-2 -354l-164 273q-145 59 -284 59q-184 0 -309 -107t-169 -307h551v-102h-567
q-12 -123 0 -246h567v-102h-551q44 -203 173 -311.5t319 -108.5z" />
    <glyph glyph-name="Gdotaccent" horiz-adv-x="1474" 
d="M1018 729h414l-105 -143v-586l-162 47q-189 -59 -362 -59q-341 0 -545 198q-203 200 -203 545q0 348 201 537q203 188 555 188q215 0 422 -70v-356h-2l-164 273q-129 57 -270 57q-219 0 -367 -154q-148 -151 -145 -461q0 -308 155.5 -477.5t448.5 -169.5q102 0 233 25
v463zM670 1636q-4 40 19 71t58 43.5t75 6.5t67 -33q35 -35 35 -88q0 -56 -33.5 -87t-93.5 -31q-57 0 -92 32t-35 86z" />
    <glyph glyph-name="Hcircumflex" horiz-adv-x="1503" 
d="M373 1307v-516h762v516l-109 127h416l-103 -127v-1160l109 -147h-422l109 147v541h-762v-541l106 -147h-418l107 147v1160l-109 127h416zM760 1919h4l334 -393l-25 -23l-313 150l-309 -150l-25 23z" />
    <glyph glyph-name="Icircumflex" horiz-adv-x="649" 
d="M508 1434l-84 -127v-1160l104 -147h-411l102 147l-2 1160l-100 127h391zM330 1921h2l336 -393l-25 -25l-313 150l-310 -150l-26 25z" />
    <glyph glyph-name="Idieresis" horiz-adv-x="612" 
d="M500 1434l-84 -127v-1160l104 -147h-411l102 147l-2 1160l-100 127h391zM27 1679q0 49 32.5 80t83.5 31q54 0 86.5 -30.5t32.5 -80.5q0 -51 -32.5 -82.5t-86.5 -31.5q-51 0 -83.5 31.5t-32.5 82.5zM358 1679q0 50 32.5 80.5t86.5 30.5q51 0 84 -31t33 -80
q0 -51 -33 -82.5t-84 -31.5q-54 0 -86.5 31.5t-32.5 82.5z" />
    <glyph glyph-name="Idot" horiz-adv-x="473" 
d="M428 1434l-84 -127v-1160l105 -147h-412l102 147l-2 1160l-100 127h391zM104 1696q-4 40 19 71t58.5 43.5t75.5 6.5t67 -33q34 -34 34 -88q0 -56 -33.5 -87.5t-93.5 -31.5q-57 0 -92 32.5t-35 86.5z" />
    <glyph glyph-name="Jcircumflex" horiz-adv-x="700" 
d="M588 1434l-103 -127v-772q0 -206 -11 -332.5t-40 -227.5q-43 -146 -136 -200t-282 -60v68q158 0 211 121q54 123 54 469v934l-107 127h414zM387 1931h4l334 -393l-25 -25l-313 150l-309 -150l-25 25z" />
    <glyph glyph-name="Ocircumflex" horiz-adv-x="1556" 
d="M784 1475q143 0 269.5 -45.5t230.5 -143.5t160 -237q61 -146 61 -330q0 -180 -59 -327.5t-164 -241.5q-151 -135 -361 -173.5t-407 33.5q-201 70 -327.5 255.5t-125.5 453.5q0 240 105 416q101 172 260 256t358 84zM793 1921l335 -393l-24 -25l-313 150l-310 -150l-26 25
l336 393h2zM287 717q0 -315 133.5 -477t363.5 -162q235 0 364.5 167.5t129.5 475.5q0 314 -134.5 475.5t-365.5 161.5q-234 0 -362.5 -166.5t-128.5 -474.5z" />
    <glyph glyph-name="Odieresis" horiz-adv-x="1560" 
d="M782 1475q142 0 270.5 -48.5t227.5 -140.5q105 -92 164 -239.5t59 -327.5t-59 -327.5t-164 -241.5q-100 -91 -228.5 -139t-269.5 -48q-301 0 -512 199t-211 557q0 240 105 416q101 172 260 256t358 84zM494 1679q0 49 32.5 80t83.5 31q54 0 86.5 -30.5t32.5 -80.5
q0 -51 -32.5 -82.5t-86.5 -31.5q-51 0 -83.5 31.5t-32.5 82.5zM825 1679q0 50 32.5 80.5t86.5 30.5q51 0 84 -31t33 -80q0 -51 -33 -82.5t-84 -31.5q-54 0 -86.5 31.5t-32.5 82.5zM285 717q0 -315 133.5 -477t363.5 -162q235 0 364.5 167.5t129.5 475.5q0 314 -134.5 475.5
t-365.5 161.5q-234 0 -362.5 -166.5t-128.5 -474.5z" />
    <glyph glyph-name="Ohungarumlaut" horiz-adv-x="1562" 
d="M782 1475q142 0 270.5 -48.5t227.5 -140.5q105 -92 164 -239.5t59 -327.5t-59 -327.5t-164 -241.5q-100 -91 -228.5 -139t-269.5 -48q-301 0 -512 199t-211 557q0 240 105 416q101 172 260 256t358 84zM627 1876h299l-389 -332zM975 1876h315l-438 -332zM285 717
q0 -315 133.5 -477t363.5 -162q235 0 364.5 167.5t129.5 475.5q0 314 -134.5 475.5t-365.5 161.5q-234 0 -362.5 -166.5t-128.5 -474.5z" />
    <glyph glyph-name="Ucircumflex" horiz-adv-x="1425" 
d="M1065 1434h307l-104 -127v-721q0 -324 -119 -473.5t-395 -149.5q-320 0 -459 160q-135 159 -135 510v674l-103 127h414l-106 -127v-672q0 -307 88 -432t292 -125q245 0 336 155q84 142 84 381v693zM754 1921h4l334 -393l-25 -25l-313 150l-310 -150l-26 25z" />
    <glyph glyph-name="Udieresis" horiz-adv-x="1425" 
d="M1065 1434h307l-104 -127v-721q0 -324 -119 -473.5t-395 -149.5q-320 0 -459 160q-135 159 -135 510v674l-103 127h414l-106 -127v-672q0 -307 88 -432t292 -125q245 0 336 155q84 142 84 381v693zM485 1647q0 49 33 79.5t84 30.5q54 0 86.5 -30t32.5 -80
q0 -51 -32.5 -83t-86.5 -32q-51 0 -84 32t-33 83zM817 1647q0 50 32.5 80t86.5 30q51 0 84 -30.5t33 -79.5q0 -51 -33 -83t-84 -32q-54 0 -86.5 32t-32.5 83z" />
    <glyph glyph-name="Wcircumflex" horiz-adv-x="2209" 
d="M713 117h22l328 919l-86 271l-121 127h420l-84 -127l381 -1190h20l355 1190l-80 127h297l-113 -136l-387 -1298h-270l-281 874l-311 -874h-256l-389 1298l-111 136h397l-82 -127zM1098 1837h4l260 -305l-19 -21l-245 117l-240 -117l-20 21z" />
    <glyph glyph-name="Wdieresis" horiz-adv-x="2211" 
d="M713 117h22l328 919l-86 271l-121 127h420l-84 -127l381 -1190h20l355 1190l-80 127h297l-113 -136l-387 -1298h-270l-281 874l-311 -874h-256l-389 1298l-111 136h397l-82 -127zM797 1681q0 49 32.5 80t83.5 31q54 0 86.5 -30.5t32.5 -80.5q0 -51 -32.5 -82.5
t-86.5 -31.5q-51 0 -83.5 31.5t-32.5 82.5zM1128 1681q0 50 32.5 80.5t86.5 30.5q51 0 84 -31t33 -80q0 -51 -33 -82.5t-84 -31.5q-54 0 -86.5 31.5t-32.5 82.5z" />
    <glyph glyph-name="Ycircumflex" horiz-adv-x="1343" 
d="M453 1434l-109 -127l379 -590l369 590l-103 127h340l-123 -127l-424 -705v-455l125 -147h-432l103 147l-3 418l-552 869h430zM684 1939h4l334 -393l-25 -24l-313 149l-309 -149l-27 24z" />
    <glyph glyph-name="Ydieresis" horiz-adv-x="1347" 
d="M455 1434l-109 -127l379 -590l369 590l-103 127h340l-123 -127l-424 -705v-455l125 -147h-432l103 147l-2 418l-553 869h430zM389 1679q0 49 33 80t84 31q54 0 86.5 -30.5t32.5 -80.5q0 -51 -32.5 -82.5t-86.5 -31.5q-51 0 -84 31.5t-33 82.5zM721 1679q0 50 32.5 80.5
t86.5 30.5q51 0 83.5 -31t32.5 -80q0 -51 -32.5 -82.5t-83.5 -31.5q-54 0 -86.5 31.5t-32.5 82.5z" />
    <glyph glyph-name="Zdotaccent" horiz-adv-x="1183" 
d="M139 0l-96 203l901 1128h-543l-104 -291l-184 394h936l100 -177l-922 -1155h596l178 295l121 -397h-983zM506 1655q-4 40 19 71t58 43.5t75 6.5t67 -33q35 -35 35 -88q0 -56 -33.5 -87.5t-93.5 -31.5q-57 0 -92 32.5t-35 86.5z" />
    <glyph glyph-name="acircumflex" horiz-adv-x="1075" 
d="M59 270q0 61 24 116t58 91q33 33 95 68q68 36 102 49l115 41l73 24q70 26 82 33q58 34 89.5 68t31.5 84q0 44 -25 74t-63 30h-303l-135 -239l-135 348h880l-22 -101v-806l108 -150h-295v215q-57 -99 -156.5 -162t-209.5 -69q-144 0 -229 74.5t-85 211.5zM569 1481
l260 -305l-18 -21l-246 117l-239 -117l-21 21l260 305h4zM741 311v373q-60 -79 -241 -164l-94 -47q-20 -11 -72 -47q-76 -57 -76 -145q0 -69 45.5 -105.5t118.5 -36.5q3 0 13.5 1t13.5 1q155 15 292 170z" />
    <glyph glyph-name="adieresis" horiz-adv-x="1087" 
d="M66 270q0 62 23.5 116.5t57.5 90.5q33 33 95 68q68 36 102 49l115 41l73 24q70 26 82 33q58 34 89.5 68t31.5 84q0 44 -25 74t-63 30h-303l-135 -239l-135 348h880l-22 -101v-806l108 -150h-295v215q-57 -99 -156.5 -162t-209.5 -69q-144 0 -228.5 74.5t-84.5 211.5z
M256 1270q0 49 33 79.5t84 30.5q54 0 86.5 -30t32.5 -80q0 -51 -32.5 -83t-86.5 -32q-51 0 -84 32t-33 83zM588 1270q0 50 32.5 80t86.5 30q51 0 83.5 -30.5t32.5 -79.5q0 -51 -32.5 -83t-83.5 -32q-54 0 -86.5 32t-32.5 83zM748 311v373q-60 -78 -242 -164l-94 -47
q-20 -11 -72 -47q-76 -57 -76 -145q0 -69 45.5 -105.5t118.5 -36.5q3 0 13.5 1t13.5 1q156 15 293 170z" />
    <glyph glyph-name="asciicircum" horiz-adv-x="716" 
d="M358 1413h4l300 -352l-21 -21l-283 134l-276 -134l-23 21z" />
    <glyph glyph-name="ccircumflex" horiz-adv-x="1032" 
d="M946 1042v-331l-229 254q-37 6 -76 6q-49 0 -111 -15q-137 -40 -208 -170q-68 -130 -68 -286q0 -194 95.5 -307t246.5 -113q96 0 172 31q74 29 176 137l55 -55q-176 -218 -454 -218q-3 0 -12.5 1t-12.5 1q-195 15 -327 162q-129 148 -144 361q0 5 -1 25.5t-1 25.5
q0 240 142 374t393 146q12 2 53 2q136 0 311 -31zM614 1577l367 -430l-27 -27l-344 164l-338 -164l-28 27l366 430h4z" />
    <glyph glyph-name="cdotaccent" horiz-adv-x="1021" 
d="M944 1042v-331l-229 254q-37 6 -74 6q-178 0 -287 -133q-104 -131 -104 -330q0 -175 90 -303q88 -125 254 -125q96 0 172 31q74 29 176 137l55 -55q-177 -213 -438 -213q-227 -3 -373 155q-141 159 -141 404q0 262 168 399t438 137q141 0 293 -33zM461 1292q0 55 35 88
t92 33t92 -33t35 -88t-35 -88t-92 -33t-92 33.5t-35 87.5z" />
    <glyph glyph-name="dieresis" horiz-adv-x="776" 
d="M111 1270q0 49 32.5 79.5t83.5 30.5q54 0 86.5 -30t32.5 -80q0 -51 -32.5 -83t-86.5 -32q-51 0 -83.5 32t-32.5 83zM442 1270q0 50 32.5 80t86.5 30q51 0 84 -30.5t33 -79.5q0 -51 -33 -83t-84 -32q-54 0 -86.5 32t-32.5 83z" />
    <glyph glyph-name="ebreve" horiz-adv-x="1071" 
d="M1024 471h-762q10 -186 106.5 -288.5t252.5 -102.5q178 0 327 168l56 -55q-176 -218 -435 -218q-231 0 -374 152q-140 155 -140 403q-3 251 138 398t382 147q93 0 168.5 -23t127.5 -64t89.5 -97t54 -123t20.5 -142.5t-11 -154.5zM770 1425h2q8 -27 8 -67q-5 -89 -60 -143
t-151 -54q-92 0 -141.5 51.5t-54.5 141.5q0 5 4 71h4q4 -66 55 -101.5t139 -35.5t141 37t54 100zM582 956q-131 0 -219.5 -97t-100.5 -284h565q4 69 -5 131.5t-33.5 121t-77.5 93.5t-129 35z" />
    <glyph glyph-name="ecircumflex" horiz-adv-x="1071" 
d="M1022 471h-762q10 -187 106 -289t252 -102q179 0 328 168l55 -55q-176 -218 -434 -218q-231 0 -374 152q-140 155 -140 403q-3 252 137 398q141 147 383 147q93 0 168.5 -23t127.5 -64t89.5 -97t54 -123t20.5 -142.5t-11 -154.5zM580 1554l333 -393l-24 -24l-314 149
l-309 -149l-26 24l335 393h5zM580 956q-131 0 -219.5 -97t-100.5 -284h565q4 69 -5 131.5t-33.5 121t-77.5 93.5t-129 35z" />
    <glyph glyph-name="edieresis" horiz-adv-x="1077" 
d="M1028 471h-762q10 -186 106.5 -288.5t252.5 -102.5q178 0 327 168l56 -55q-176 -218 -435 -218q-231 0 -374 152q-140 155 -140 403q-3 251 138 398t383 147q111 -1 197 -33.5t139 -89t85.5 -132.5t36 -164.5t-9.5 -184.5zM291 1278q0 49 33 80t84 31q54 0 86 -30.5
t32 -80.5q0 -51 -32 -83t-86 -32q-51 0 -84 32t-33 83zM623 1278q0 50 32 80.5t86 30.5q51 0 84 -31t33 -80q0 -51 -33 -83t-84 -32q-54 0 -86 32t-32 83zM586 956q-131 0 -219.5 -97t-100.5 -284h565q4 69 -5 131.5t-33.5 121t-77.5 93.5t-129 35z" />
    <glyph glyph-name="edotaccent" horiz-adv-x="1062" 
d="M1022 471h-762q10 -187 106 -289t252 -102q179 0 328 168l55 -55q-176 -218 -434 -218q-231 0 -374 152q-140 155 -140 403q-3 252 137 398q141 147 383 147q93 0 168.5 -23t127.5 -64t89.5 -97t54 -123t20.5 -142.5t-11 -154.5zM440 1296q-4 40 19 71t58 43.5t75 6.5
t67 -33q35 -35 35 -88q0 -56 -33.5 -87t-93.5 -31q-57 0 -92 32t-35 86zM580 956q-131 0 -219.5 -97t-100.5 -284h565q4 69 -5 131.5t-33.5 121t-77.5 93.5t-129 35z" />
    <glyph glyph-name="eight_subs" horiz-adv-x="684" 
d="M154 281q0 70 50.5 114.5t149.5 44.5q91 0 145 -35t54 -106q0 -88 -94 -137q112 -46 112 -137q0 -78 -67.5 -127.5t-177.5 -49.5q-199 0 -199 154q2 42 27.5 86t64.5 57q-65 44 -65 136zM209 2q0 -49 35.5 -80t89.5 -31q48 0 82.5 22.5t34.5 68.5q0 40 -27 61
q-24 24 -80 45q-33 12 -74 33q-61 -49 -61 -119zM369 401q-43 0 -71 -24.5t-28 -61.5q0 -76 125 -116q74 50 74 112q0 45 -28 67.5t-72 22.5z" />
    <glyph glyph-name="eight_sups" horiz-adv-x="684" 
d="M154 1444q0 70 50.5 115t149.5 45q91 0 145 -35.5t54 -106.5q0 -88 -94 -137q112 -46 112 -137q0 -78 -67.5 -127t-177.5 -49q-199 0 -199 153q2 42 27.5 86.5t64.5 57.5q-65 44 -65 135zM209 1165q0 -49 35 -79.5t90 -30.5q48 0 82.5 22t34.5 68q0 37 -29 63
q-26 23 -84 45q-49 20 -68 31q-61 -49 -61 -119zM369 1565q-43 0 -71 -24.5t-28 -61.5q0 -77 125 -117q74 50 74 113q0 45 -28 67.5t-72 22.5z" />
    <glyph glyph-name="fi" horiz-adv-x="1284" 
d="M780 0l144 147v742l-47 65h-519v-807l144 -147h-430l102 147v807h-102v103h102v84q0 216 72 311.5t239 95.5q115 0 254 -39v-286l-196 223h-27q-158 0 -158 -209v-180h750v-910l127 -147h-455zM987 1591l172 -147l-160 -176l-168 139z" />
    <glyph glyph-name="five_subs" horiz-adv-x="663" 
d="M555 446l10 -8q-27 -151 -192 -151q-81 0 -168 35l-12 -140q68 39 174 39q95 0 146.5 -46.5t51.5 -127.5q0 -94 -70.5 -146.5t-203.5 -52.5q-81 0 -154 21v180l150 -164q58 -2 102.5 40t44.5 102q0 62 -49.5 97.5t-130.5 35.5q-40 0 -107 -13l33 283q82 -29 189 -29
q118 0 186 45z" />
    <glyph glyph-name="five_sups" horiz-adv-x="663" 
d="M555 1616l10 -8q-27 -152 -192 -152q-81 0 -168 35l-12 -139q68 39 174 39q95 0 146.5 -45.5t51.5 -126.5q0 -95 -70.5 -148t-203.5 -53q-84 0 -154 20v181l150 -164q58 -2 102.5 39.5t44.5 101.5q0 62 -49.5 97.5t-130.5 35.5q-46 0 -107 -12l33 282q79 -28 189 -28
q118 0 186 45z" />
    <glyph glyph-name="fl" horiz-adv-x="1259" 
d="M782 0l123 147v1063l-362 234l-27 2q-158 0 -158 -209v-180h394v-103h-394v-807l146 -147h-432l102 147v807h-100v103h100v84q0 216 71 311.5t236 95.5q114 0 258 -39l101 -98l250 125v-1389l106 -147h-414z" />
    <glyph glyph-name="four_subs" horiz-adv-x="604" 
d="M291 37l125 149v-149h10l88 110v-151h-98v-66l49 -73h-238l56 67v72h-213v24q125 116 179 211t54 203h113q0 -140 -64.5 -236.5t-214.5 -160.5h154z" />
    <glyph glyph-name="four_sups" horiz-adv-x="604" 
d="M291 1188l125 149v-149h10l88 110v-151h-98v-66l49 -73h-238l56 67v72h-213v24q125 116 179 211t54 203h113q0 -140 -64.5 -236.5t-214.5 -160.5h154z" />
    <glyph glyph-name="franc" horiz-adv-x="1404" 
d="M938 709h-406v-230h322v-102h-322v-230l113 -147h-424l105 147v230h-215v102h215v828l-105 127h1106v-404h-2l-186 301h-607v-520h406l145 164v-430z" />
    <glyph glyph-name="gcircumflex" horiz-adv-x="1329" 
d="M1034 915l250 197v-252h-213q66 -91 66 -229q0 -209 -146 -318q-141 -106 -364 -106q-200 0 -336 86q0 -53 24 -90q29 -40 88 -60q60 -19 117 -26l156 -11q22 -1 119 -8q31 -2 108 -16q63 -8 107 -29q70 -31 115 -90.5t38 -148.5q0 -101 -49 -179t-135 -120
q-146 -76 -346 -86q-10 -2 -47 -2q-175 0 -332 57q-87 30 -137.5 89.5t-50.5 137.5q0 92 65 163t170 110q-149 64 -149 186q0 92 90 158q-146 122 -146 319q0 208 150 316q149 110 366 110q270 0 422 -158zM625 1571h4l366 -430l-26 -27l-344 164l-338 -164l-29 27zM301 645
q0 -146 89 -231.5t237 -85.5q141 0 222 82t81 223q0 146 -85.5 233.5t-228.5 87.5t-229 -84t-86 -225zM993 -260q0 147 -329 188q-96 12 -164 17q-5 0 -23 1t-22 1q-5 1 -23.5 3t-31.5 3.5t-17 1.5q-129 -59 -150 -150q-4 -32 -4 -41q0 -115 115 -174t246 -59q78 0 164 18
q83 15 161 68q78 50 78 123z" />
    <glyph glyph-name="gdotaccent" horiz-adv-x="1329" 
d="M1034 915l250 197v-252h-213q66 -87 66 -229q0 -195 -136.5 -309.5t-369.5 -114.5q-201 0 -340 86v-17q0 -24 6 -45q19 -60 91.5 -85t217.5 -33l29 -2q6 -2 29 -2q24 -1 46.5 -2.5t44 -3.5t29.5 -3q30 -2 111 -16q65 -8 109 -31q73 -30 119.5 -91t39.5 -150
q0 -101 -48 -177t-134 -118q-150 -78 -363 -88l-26 -2h-27q-47 0 -59 2q-100 3 -191 30q-92 24 -172 92q-77 68 -77 166q0 81 62 153t173 114q-149 64 -149 186q0 92 90 158q-146 122 -146 315t142 311q140 119 374 119q273 0 422 -158zM483 1321q0 56 34 89.5t91 33.5
q60 0 94.5 -33.5t34.5 -89.5q0 -55 -34.5 -87t-94.5 -32q-57 0 -91 32.5t-34 86.5zM301 645q0 -146 89 -231.5t237 -85.5q142 0 222.5 82t80.5 225q0 147 -86.5 233t-227.5 86t-228 -84t-87 -225zM993 -254q0 102 -133 143q-114 32 -268 43l-68 7q-44 2 -141 16
q-118 -51 -145 -135l-5 -13q-4 -28 -4 -38q0 -111 107 -175q105 -63 250 -63q35 0 45 2q22 0 28 2q126 11 232 66q102 53 102 145z" />
    <glyph glyph-name="hcircumflex" horiz-adv-x="1173" 
d="M719 1071q138 0 224.5 -95t86.5 -278v-551l105 -147h-390l99 147v482q0 282 -195 282q-74 0 -136.5 -35.5t-147.5 -115.5v-613l106 -147h-393l102 147l-2 1162l-96 153l283 74v-621q70 70 167 113t187 43zM727 1583h4l334 -393l-25 -25l-313 150l-309 -150l-27 25z" />
    <glyph glyph-name="hungarumlaut" horiz-adv-x="958" 
d="M223 1434h299l-389 -332zM571 1434h316l-438 -332z" />
    <glyph glyph-name="icircumflex" horiz-adv-x="655" 
d="M137 1024l281 84v-961l127 -147h-432l120 147v742zM336 1575h2l336 -393l-25 -25l-313 150l-309 -150l-27 25z" />
    <glyph glyph-name="idieresis" horiz-adv-x="620" 
d="M131 1024l281 84v-961l127 -147h-433l121 147v742zM2 1270q0 49 33 79.5t84 30.5q54 0 86.5 -30t32.5 -80q0 -51 -32.5 -83t-86.5 -32q-51 0 -84 32t-33 83zM334 1270q0 50 32.5 80t86.5 30q51 0 83.5 -30.5t32.5 -79.5q0 -51 -32.5 -83t-83.5 -32q-54 0 -86.5 32
t-32.5 83z" />
    <glyph glyph-name="jcircumflex" horiz-adv-x="776" 
d="M295 889l-96 115l303 104v-1010q0 -154 -8 -233q-5 -79 -29 -172q-35 -117 -114.5 -165.5t-241.5 -57.5v61q116 5 161 143q13 38 19 99q8 82 8 252zM395 1489h4l258 -305l-18 -19l-244 117l-239 -117l-21 19z" />
    <glyph glyph-name="lira" horiz-adv-x="1298" 
d="M381 147h573l211 342v-489h-1013v80q241 182 262 397h-308v103h306l-74 245h-232v103h195q-29 110 -29 182q0 189 131 268q131 82 330 82q126 0 242 -26q106 -21 170 -54v-432l-293 410q-177 0 -267.5 -69.5t-90.5 -223.5q0 -37 2 -47q3 -44 12 -90h377v-103h-355
l41 -245h314v-103h-318q-27 -174 -186 -330z" />
    <glyph glyph-name="mu" horiz-adv-x="1275" 
d="M238 899l-115 156h301v-635q0 -283 188 -283q81 0 157.5 48.5t133.5 127.5v596l-104 146h288v-908l111 -147h-295v213q-145 -238 -352 -238q-66 0 -127 25v-365l106 -147h-393l103 147z" />
    <glyph glyph-name="nine_subs" horiz-adv-x="702" 
d="M428 109q-61 -46 -137 -46q-77 0 -119.5 48.5t-42.5 134.5q0 190 217 190q117 0 177.5 -76t60.5 -213q0 -301 -267 -301q-72 0 -178 25v166l160 -148l35 5q85 25 94 215zM430 145q0 248 -76 248q-42 -11 -67 -50t-25 -99q0 -107 72 -119q2 -2 14 -2q24 0 82 22z" />
    <glyph glyph-name="nine_sups" horiz-adv-x="704" 
d="M428 1270q-60 -45 -137 -45t-119.5 48.5t-42.5 133.5q0 190 217 190q117 0 177.5 -75.5t60.5 -212.5q0 -301 -267 -301q-76 0 -178 24v166l160 -147q7 0 35 4q91 28 94 215zM430 1307q0 247 -76 247q-42 -11 -67 -50t-25 -99q0 -58 24 -89.5t62 -31.5q21 0 82 23z" />
    <glyph glyph-name="ntilde" horiz-adv-x="1155" 
d="M698 1071q138 0 226 -95.5t88 -277.5v-551l102 -147h-389l100 147v482q0 145 -59.5 226t-159.5 81q-126 0 -260 -125v-664l105 -147h-394l105 147l-2 732l-99 153l285 74v-191q73 70 168 113t184 43zM799 1384h4q15 -69 -27 -135q-41 -65 -112 -65q-40 0 -113 37
q-68 36 -109 36q-76 0 -94 -75h-4q3 200 131 200q47 0 115 -36q61 -37 108 -37q80 0 101 75z" />
    <glyph glyph-name="ocircumflex" horiz-adv-x="1202" 
d="M59 524q0 257 146.5 404t404.5 147q257 0 401 -145t144 -402q0 -259 -143.5 -406t-403.5 -147t-404.5 146.5t-144.5 402.5zM618 1526l334 -393l-22 -25l-316 149l-307 -149l-26 25l333 393h4zM604 971q-156 0 -248 -117t-92 -328q0 -212 93 -329t251 -117q157 0 249 119
t91 336q-1 110 -28 194.5t-74 136.5t-108 78.5t-134 26.5z" />
    <glyph glyph-name="odieresis" horiz-adv-x="1210" 
d="M63 524q0 257 146.5 404t404.5 147q257 0 401 -145t144 -402q0 -259 -143.5 -406t-403.5 -147t-404.5 146.5t-144.5 402.5zM319 1270q0 49 33 79.5t84 30.5q54 0 86.5 -30t32.5 -80q0 -51 -32.5 -83t-86.5 -32q-51 0 -84 32t-33 83zM651 1270q0 50 32.5 80t86.5 30
q51 0 84 -30.5t33 -79.5q0 -51 -33 -83t-84 -32q-54 0 -86.5 32t-32.5 83zM608 971q-156 0 -248 -117t-92 -328q0 -212 93 -329t251 -117q157 0 249 119t91 336q-1 110 -28 194.5t-74 136.5t-108 78.5t-134 26.5z" />
    <glyph glyph-name="ohungarumlaut" horiz-adv-x="1210" 
d="M59 524q0 257 146.5 404t404.5 147q257 0 401 -145t144 -402q0 -259 -143.5 -406t-403.5 -147t-404.5 146.5t-144.5 402.5zM453 1493h299l-390 -332zM801 1493h315l-438 -332zM604 971q-156 0 -248 -117t-92 -328q0 -212 93 -329t251 -117q157 0 249 119t91 336
q-1 110 -28 194.5t-74 136.5t-108 78.5t-134 26.5z" />
    <glyph glyph-name="one_subs" horiz-adv-x="430" 
d="M94 397l205 45v-512l51 -73h-231l47 67v412z" />
    <glyph glyph-name="one_sups" horiz-adv-x="428" 
d="M92 1561l205 45v-512l51 -74h-231l47 67v412z" />
    <glyph glyph-name="onesuperior" horiz-adv-x="442" 
d="M82 1405l223 57v-641l64 -90h-258l61 84v504z" />
    <glyph glyph-name="paragraph" horiz-adv-x="1204" 
d="M604 1434h531v-72h-187v-1362h-71v1362h-201v-1362h-72v453q-245 3 -393 139q-150 138 -150 362q0 215 146 346q149 131 397 134z" />
    <glyph glyph-name="middot" horiz-adv-x="616" 
d="M98 729q0 98 59 157.5t156 59.5q98 0 157.5 -59.5t59.5 -157.5q0 -97 -59.5 -156t-157.5 -59q-97 0 -156 59t-59 156z" />
    <glyph glyph-name="plusminus" horiz-adv-x="899" 
d="M37 102h825v-102h-825v102zM500 641h362v-102h-362v-320h-103v320h-360v102h360v322h103v-322z" />
    <glyph glyph-name="quotesinglbase" horiz-adv-x="356" 
d="M176 121q-47 0 -74.5 29t-27.5 79q0 51 32.5 83t86.5 32q56 0 87 -33.5t31 -93.5q0 -90 -69 -174q-68 -86 -152 -104q33 30 59.5 85.5t26.5 96.5z" />
    <glyph glyph-name="seven_subs" horiz-adv-x="638" 
d="M221 326l-94 -101v209h446l-32 -98q-91 -81 -148 -211q-59 -130 -59 -268h-144q0 151 80 284q80 132 224 185h-273z" />
    <glyph glyph-name="seven_sups" horiz-adv-x="638" 
d="M221 1479l-94 -101v209h446l-32 -98q-91 -81 -148 -211q-59 -130 -59 -268h-144q0 151 80 284q80 132 224 185h-273z" />
    <glyph glyph-name="six_subs" horiz-adv-x="702" 
d="M283 176q60 45 137 45t119.5 -48.5t42.5 -133.5q0 -191 -217 -191q-117 0 -177.5 76t-60.5 213q0 301 266 301q76 0 178 -24v-166l-159 147q-7 0 -35 -4q-85 -25 -94 -215zM281 139q0 -248 75 -248q42 11 67.5 50.5t25.5 99.5q0 107 -72 119q-2 2 -15 2q-20 0 -81 -23z
" />
    <glyph glyph-name="six_sups" horiz-adv-x="700" 
d="M283 1337q60 45 137 45t119.5 -48.5t42.5 -133.5q0 -190 -217 -190q-117 0 -177.5 75.5t-60.5 212.5q0 301 266 301q76 0 178 -24v-166l-159 147q-7 0 -35 -4q-85 -25 -94 -215zM281 1300q0 -247 75 -247q42 11 67.5 50.5t25.5 98.5q0 107 -72 119q-2 2 -15 2
q-20 0 -81 -23z" />
    <glyph glyph-name="three_subs" horiz-adv-x="665" 
d="M528 289q0 -62 -42.5 -104.5t-125.5 -43.5q93 0 140 -39t47 -102q0 -72 -64.5 -113t-193.5 -41q-52 0 -139 17v186l133 -168h8q108 0 108 115q0 126 -166 135v21q175 24 175 141q0 106 -111 106h-14l-133 -168v187q107 22 159 22q109 0 164 -41t55 -110z" />
    <glyph glyph-name="three_sups" horiz-adv-x="665" 
d="M528 1454q0 -61 -42.5 -102t-125.5 -45q93 0 140 -39.5t47 -102.5q0 -70 -65.5 -111.5t-192.5 -41.5q-57 0 -139 16v186l133 -167h8q108 0 108 114q0 126 -166 135v21q175 24 175 141q0 107 -111 107h-14l-133 -168v186q112 23 159 23q109 0 164 -41t55 -111z" />
    <glyph glyph-name="threequarters" horiz-adv-x="794" 
d="M393 139l125 150v-150h10l88 111v-152h-98v-65l49 -74h-237l55 68v71h-213v25q126 117 180 211.5t54 202.5h112q0 -141 -64 -237.5t-214 -160.5h153zM43 729h702v-102h-702v102zM573 1251q0 -64 -41.5 -104.5t-125.5 -44.5q93 0 139.5 -39t46.5 -102q0 -70 -66 -112
t-192 -42q-57 0 -139 16v187l133 -168h8q108 0 108 114q0 127 -165 136v20q174 24 174 141q0 107 -111 107h-14l-133 -168v186q112 23 159 23q109 0 164 -40.5t55 -109.5z" />
    <glyph glyph-name="threesuperior" horiz-adv-x="743" 
d="M610 1262q0 -163 -200 -175q110 0 165.5 -49.5t55.5 -126.5q0 -94 -89.5 -145t-226.5 -51q-117 0 -194 26v160l131 -137h31q75 0 125.5 43t50.5 113q0 142 -207 157v25q215 27 215 166q0 67 -48.5 105t-123.5 38h-43l-131 -135v158q98 26 203 26q131 0 208.5 -48.5
t77.5 -149.5z" />
    <glyph glyph-name="two_subs" horiz-adv-x="673" 
d="M446 -33l93 101v-209h-426v30q131 108 206.5 224t75.5 202t-106 86h-15l-137 -165v184q90 22 176 22q236 0 236 -137q0 -82 -78 -178q-78 -97 -205 -160h180z" />
    <glyph glyph-name="two_sups" horiz-adv-x="673" 
d="M446 1128l93 101v-209h-426v31q131 108 206.5 224t75.5 202t-106 86h-15l-137 -166v184q94 23 176 23q236 0 236 -138q0 -83 -78 -177t-205 -161h180z" />
    <glyph glyph-name="twosuperior" horiz-adv-x="759" 
d="M508 815l117 127v-211h-523v39q173 144 273 285q104 143 104 235q0 119 -170 119h-39l-137 -133v156q73 30 219 30q285 0 285 -176q0 -120 -119 -248q-116 -127 -287 -223h277z" />
    <glyph glyph-name="ucircumflex" horiz-adv-x="1157" 
d="M819 313v596l-104 148h289v-910l110 -147h-295v213q-145 -238 -352 -238q-138 0 -225.5 96t-87.5 277v561l-105 148h389l-98 -148v-489q0 -283 188 -283q81 0 157.5 48.5t133.5 127.5zM588 1532h4l334 -393l-25 -25l-313 150l-309 -150l-25 25z" />
    <glyph glyph-name="udieresis" horiz-adv-x="1167" 
d="M825 313v596l-104 148h289v-910l110 -147h-295v213q-145 -238 -352 -238q-138 0 -225.5 96t-87.5 277v561l-105 148h389l-98 -148v-489q0 -283 189 -283q81 0 157 48.5t133 127.5zM299 1270q0 49 33 79.5t84 30.5q54 0 86.5 -30t32.5 -80q0 -51 -32.5 -83t-86.5 -32
q-51 0 -84 32t-33 83zM631 1270q0 50 32.5 80t86.5 30q51 0 83.5 -30.5t32.5 -79.5q0 -51 -32.5 -83t-83.5 -32q-54 0 -86.5 32t-32.5 83z" />
    <glyph glyph-name="underscore" horiz-adv-x="1398" 
d="M123 -102v102h1153v-102h-1153z" />
    <glyph glyph-name="wcircumflex" horiz-adv-x="1806" 
d="M1780 1057l-168 -178l-346 -879h-219l-195 565l-221 -565h-223l-359 1057h361l-105 -178l258 -764l238 602l-117 340h385l-108 -226l239 -716l301 764l-119 178h398zM860 1567h4l334 -393l-24 -23l-314 149l-309 -149l-27 23z" />
    <glyph glyph-name="wdieresis" horiz-adv-x="1814" 
d="M1784 1057l-168 -178l-346 -879h-219l-195 565l-221 -565h-223l-359 1057h361l-105 -178l258 -764l238 602l-117 340h385l-108 -226l239 -716l301 764l-119 178h398zM600 1272q0 49 33 79.5t84 30.5q54 0 86.5 -30t32.5 -80q0 -51 -32.5 -83t-86.5 -32q-51 0 -84 32
t-33 83zM932 1272q0 50 32.5 80t86.5 30q51 0 83.5 -30.5t32.5 -79.5q0 -51 -32.5 -83t-83.5 -32q-54 0 -86.5 32t-32.5 83z" />
    <glyph glyph-name="ycircumflex" horiz-adv-x="1222" 
d="M565 -512h-342l109 164l182 346l-479 1059h405l-121 -178l304 -674l356 674l-129 178h360l-114 -178l-641 -1219zM631 1559h4l334 -392l-25 -24l-313 149l-309 -149l-27 24z" />
    <glyph glyph-name="ydieresis" horiz-adv-x="1222" 
d="M563 -512h-342l109 164l182 346l-479 1059h405l-121 -178l304 -674l356 674l-129 178h360l-114 -178l-641 -1219zM360 1270q0 49 33 79.5t84 30.5q54 0 86.5 -30t32.5 -80q0 -51 -32.5 -83t-86.5 -32q-51 0 -84 32t-33 83zM692 1270q0 50 32.5 80t86.5 30q51 0 84 -30.5
t33 -79.5q0 -51 -33 -83t-84 -32q-54 0 -86.5 32t-32.5 83z" />
    <glyph glyph-name="zdotaccent" horiz-adv-x="966" 
d="M86 0l-41 98l643 856h-332l-151 -245l-135 348h804l62 -76l-660 -879h369l158 265l121 -367h-838zM365 1270q-4 40 19 71t58 43.5t75 6.5t67 -33q34 -34 34 -88q0 -56 -33 -87.5t-93 -31.5q-57 0 -92 32.5t-35 86.5z" />
    <glyph glyph-name="zero_subs" horiz-adv-x="808" 
d="M686 145q0 -140 -74 -219.5t-204 -79.5q-131 0 -206 80t-75 219q0 137 75.5 216t205.5 79t204 -79t74 -216zM285 145q0 -116 35.5 -186t87.5 -70t86 71t34 187q0 115 -34 182.5t-86 67.5t-87.5 -69t-35.5 -183z" />
    <glyph glyph-name="zero_sups" horiz-adv-x="808" 
d="M686 1309q0 -140 -74 -219.5t-204 -79.5q-131 0 -206 80t-75 219q0 137 75.5 216t205.5 79t204 -79t74 -216zM285 1309q0 -116 35.5 -186t87.5 -70t86 71t34 187q0 115 -34 182.5t-86 67.5t-87.5 -69t-35.5 -183z" />
    </font>
</defs>
</svg>
